<svg width="450" height="320" viewBox="0 0 450 320" fill="none" xmlns="http://www.w3.org/2000/svg">
<g clip-path="url(#clip0_2028_1686)">
<rect width="450" height="320" fill="#121212"/>
<path d="M72.005 52.2874L72.005 44.2874C72.005 42.8729 71.4431 41.5164 70.4429 40.5162C69.4428 39.516 68.0862 38.9541 66.6717 38.9541L26.6717 38.9541C25.2572 38.9541 23.9007 39.516 22.9005 40.5162C21.9003 41.5164 21.3384 42.8729 21.3384 44.2874L21.3384 70.9541C21.3384 73.8874 23.7384 76.2874 26.6717 76.2874L37.3384 76.2874" stroke="white" stroke-width="2" stroke-linecap="round" stroke-linejoin="round"/>
<path d="M69.3385 62.9541L53.3385 62.9541C50.3929 62.9541 48.0051 65.3419 48.0051 68.2874L48.0051 76.2874C48.0051 79.233 50.3929 81.6208 53.3385 81.6208L69.3385 81.6208C72.284 81.6208 74.6718 79.233 74.6718 76.2874L74.6718 68.2874C74.6718 65.3419 72.284 62.9541 69.3385 62.9541Z" stroke="white" stroke-width="2" stroke-linecap="round" stroke-linejoin="round"/>
<path d="M161.574 0.574544L161.574 -7.42546C161.574 -8.83994 161.012 -10.1965 160.012 -11.1967C159.012 -12.1969 157.655 -12.7588 156.241 -12.7588L116.241 -12.7588C114.826 -12.7588 113.47 -12.1969 112.47 -11.1967C111.469 -10.1965 110.907 -8.83994 110.907 -7.42546L110.907 19.2412C110.907 22.1745 113.307 24.5745 116.241 24.5745L126.907 24.5745" stroke="white" stroke-width="2" stroke-linecap="round" stroke-linejoin="round"/>
<path d="M158.908 11.2412L142.908 11.2412C139.962 11.2412 137.574 13.629 137.574 16.5745L137.574 24.5745C137.574 27.5201 139.962 29.9079 142.908 29.9079L158.908 29.9079C161.853 29.9079 164.241 27.5201 164.241 24.5745L164.241 16.5745C164.241 13.629 161.853 11.2412 158.908 11.2412Z" stroke="white" stroke-width="2" stroke-linecap="round" stroke-linejoin="round"/>
<path d="M26.1486 179.713L26.1486 171.713C26.1486 170.298 25.5867 168.942 24.5865 167.942C23.5863 166.942 22.2298 166.38 20.8153 166.38L-19.1847 166.38C-20.5992 166.38 -21.9558 166.942 -22.956 167.942C-23.9562 168.942 -24.5181 170.298 -24.5181 171.713L-24.5181 198.38C-24.5181 201.313 -22.1181 203.713 -19.1847 203.713L-8.51807 203.713" stroke="white" stroke-width="2" stroke-linecap="round" stroke-linejoin="round"/>
<path d="M23.482 190.38L7.48201 190.38C4.5365 190.38 2.14868 192.767 2.14868 195.713L2.14868 203.713C2.14868 206.658 4.5365 209.046 7.48201 209.046L23.482 209.046C26.4275 209.046 28.8153 206.658 28.8153 203.713L28.8153 195.713C28.8153 192.767 26.4275 190.38 23.482 190.38Z" stroke="white" stroke-width="2" stroke-linecap="round" stroke-linejoin="round"/>
<path d="M115.718 128L115.718 120C115.718 118.586 115.156 117.229 114.156 116.229C113.155 115.229 111.799 114.667 110.384 114.667L70.3844 114.667C68.9699 114.667 67.6133 115.229 66.6131 116.229C65.6129 117.229 65.051 118.586 65.051 120L65.051 146.667C65.051 149.6 67.451 152 70.3844 152L81.051 152" stroke="white" stroke-width="2" stroke-linecap="round" stroke-linejoin="round"/>
<path d="M113.051 138.667L97.0511 138.667C94.1056 138.667 91.7178 141.055 91.7178 144L91.7178 152C91.7178 154.946 94.1056 157.333 97.0511 157.333L113.051 157.333C115.997 157.333 118.384 154.946 118.384 152L118.384 144C118.384 141.055 115.997 138.667 113.051 138.667Z" stroke="white" stroke-width="2" stroke-linecap="round" stroke-linejoin="round"/>
<path d="M205.287 76.2874L205.287 68.2874C205.287 66.8729 204.725 65.5164 203.725 64.5162C202.725 63.516 201.368 62.9541 199.954 62.9541L159.954 62.9541C158.539 62.9541 157.183 63.516 156.182 64.5162C155.182 65.5164 154.62 66.8729 154.62 68.2874L154.62 94.9541C154.62 97.8874 157.02 100.287 159.954 100.287L170.62 100.287" stroke="white" stroke-width="2" stroke-linecap="round" stroke-linejoin="round"/>
<path d="M202.62 86.9541L186.62 86.9541C183.675 86.9541 181.287 89.3419 181.287 92.2874L181.287 100.287C181.287 103.233 183.675 105.621 186.62 105.621L202.62 105.621C205.566 105.621 207.954 103.233 207.954 100.287L207.954 92.2874C207.954 89.3419 205.566 86.9541 202.62 86.9541Z" stroke="white" stroke-width="2" stroke-linecap="round" stroke-linejoin="round"/>
<path d="M294.856 24.5745L294.856 16.5745C294.856 15.1601 294.294 13.8035 293.294 12.8033C292.294 11.8031 290.937 11.2412 289.523 11.2412L249.523 11.2412C248.108 11.2412 246.752 11.8031 245.752 12.8033C244.751 13.8035 244.189 15.1601 244.189 16.5745L244.189 43.2412C244.189 46.1745 246.589 48.5745 249.523 48.5745L260.189 48.5745" stroke="white" stroke-width="2" stroke-linecap="round" stroke-linejoin="round"/>
<path d="M292.19 35.2412L276.19 35.2412C273.244 35.2412 270.856 37.629 270.856 40.5745L270.856 48.5745C270.856 51.5201 273.244 53.9079 276.19 53.9079L292.19 53.9079C295.135 53.9079 297.523 51.5201 297.523 48.5745L297.523 40.5745C297.523 37.629 295.135 35.2412 292.19 35.2412Z" stroke="white" stroke-width="2" stroke-linecap="round" stroke-linejoin="round"/>
<path d="M381.759 -16.4717L365.759 -16.4717C362.813 -16.4717 360.426 -14.0839 360.426 -11.1383L360.426 -3.13835C360.426 -0.192829 362.813 2.19499 365.759 2.19499L381.759 2.19499C384.704 2.19499 387.092 -0.192829 387.092 -3.13835L387.092 -11.1383C387.092 -14.0839 384.704 -16.4717 381.759 -16.4717Z" stroke="white" stroke-width="2" stroke-linecap="round" stroke-linejoin="round"/>
<path d="M69.8615 255.426L69.8615 247.426C69.8615 246.011 69.2996 244.655 68.2994 243.655C67.2992 242.654 65.9426 242.093 64.5282 242.093L24.5282 242.093C23.1137 242.093 21.7571 242.654 20.7569 243.655C19.7567 244.655 19.1948 246.011 19.1948 247.426L19.1948 274.093C19.1948 277.026 21.5948 279.426 24.5282 279.426L35.1948 279.426" stroke="white" stroke-width="2" stroke-linecap="round" stroke-linejoin="round"/>
<path d="M67.1949 266.093L51.1949 266.093C48.2494 266.093 45.8616 268.48 45.8616 271.426L45.8616 279.426C45.8616 282.371 48.2494 284.759 51.1949 284.759L67.1949 284.759C70.1404 284.759 72.5282 282.371 72.5282 279.426L72.5282 271.426C72.5282 268.48 70.1404 266.093 67.1949 266.093Z" stroke="white" stroke-width="2" stroke-linecap="round" stroke-linejoin="round"/>
<path d="M159.431 203.713L159.431 195.713C159.431 194.298 158.869 192.942 157.868 191.942C156.868 190.942 155.512 190.38 154.097 190.38L114.097 190.38C112.683 190.38 111.326 190.942 110.326 191.942C109.326 192.942 108.764 194.298 108.764 195.713L108.764 222.38C108.764 225.313 111.164 227.713 114.097 227.713L124.764 227.713" stroke="white" stroke-width="2" stroke-linecap="round" stroke-linejoin="round"/>
<path d="M156.764 214.38L140.764 214.38C137.818 214.38 135.431 216.767 135.431 219.713L135.431 227.713C135.431 230.658 137.818 233.046 140.764 233.046L156.764 233.046C159.71 233.046 162.097 230.658 162.097 227.713L162.097 219.713C162.097 216.767 159.71 214.38 156.764 214.38Z" stroke="white" stroke-width="2" stroke-linecap="round" stroke-linejoin="round"/>
<path d="M249 152L249 144C249 142.586 248.438 141.229 247.438 140.229C246.438 139.229 245.081 138.667 243.667 138.667L203.667 138.667C202.252 138.667 200.896 139.229 199.895 140.229C198.895 141.229 198.333 142.586 198.333 144L198.333 170.667C198.333 173.6 200.733 176 203.667 176L214.333 176" stroke="white" stroke-width="2" stroke-linecap="round" stroke-linejoin="round"/>
<path d="M246.333 162.667L230.333 162.667C227.388 162.667 225 165.055 225 168L225 176C225 178.946 227.388 181.333 230.333 181.333L246.333 181.333C249.279 181.333 251.667 178.946 251.667 176L251.667 168C251.667 165.055 249.279 162.667 246.333 162.667Z" stroke="white" stroke-width="2" stroke-linecap="round" stroke-linejoin="round"/>
<path d="M338.569 100.287L338.569 92.2874C338.569 90.8729 338.007 89.5164 337.007 88.5162C336.007 87.516 334.65 86.9541 333.236 86.9541L293.236 86.9541C291.821 86.9541 290.465 87.516 289.464 88.5162C288.464 89.5164 287.902 90.8729 287.902 92.2874L287.902 118.954C287.902 121.887 290.302 124.287 293.236 124.287L303.902 124.287" stroke="white" stroke-width="2" stroke-linecap="round" stroke-linejoin="round"/>
<path d="M335.902 110.954L319.902 110.954C316.957 110.954 314.569 113.342 314.569 116.287L314.569 124.287C314.569 127.233 316.957 129.621 319.902 129.621L335.902 129.621C338.848 129.621 341.236 127.233 341.236 124.287L341.236 116.287C341.236 113.342 338.848 110.954 335.902 110.954Z" stroke="white" stroke-width="2" stroke-linecap="round" stroke-linejoin="round"/>
<path d="M428.138 48.5745L428.138 40.5745C428.138 39.1601 427.576 37.8035 426.576 36.8033C425.576 35.8031 424.22 35.2412 422.805 35.2412L382.805 35.2412C381.391 35.2412 380.034 35.8031 379.034 36.8033C378.034 37.8035 377.472 39.1601 377.472 40.5745L377.472 67.2412C377.472 70.1745 379.872 72.5745 382.805 72.5745L393.472 72.5745" stroke="white" stroke-width="2" stroke-linecap="round" stroke-linejoin="round"/>
<path d="M425.472 59.2412L409.472 59.2412C406.526 59.2412 404.138 61.629 404.138 64.5745L404.138 72.5745C404.138 75.5201 406.526 77.9079 409.472 77.9079L425.472 77.9079C428.417 77.9079 430.805 75.5201 430.805 72.5745L430.805 64.5745C430.805 61.629 428.417 59.2412 425.472 59.2412Z" stroke="white" stroke-width="2" stroke-linecap="round" stroke-linejoin="round"/>
<path d="M113.574 331.139L113.574 323.139C113.574 321.724 113.012 320.367 112.012 319.367C111.012 318.367 109.655 317.805 108.241 317.805L68.2408 317.805C66.8263 317.805 65.4698 318.367 64.4696 319.367C63.4694 320.367 62.9075 321.724 62.9075 323.139L62.9075 349.805C62.9075 352.739 65.3075 355.139 68.2408 355.139L78.9075 355.139" stroke="white" stroke-width="2" stroke-linecap="round" stroke-linejoin="round"/>
<path d="M203.143 279.426L203.143 271.426C203.143 270.011 202.582 268.655 201.581 267.655C200.581 266.654 199.225 266.093 197.81 266.093L157.81 266.093C156.396 266.093 155.039 266.654 154.039 267.655C153.039 268.655 152.477 270.011 152.477 271.426L152.477 298.093C152.477 301.026 154.877 303.426 157.81 303.426L168.477 303.426" stroke="white" stroke-width="2" stroke-linecap="round" stroke-linejoin="round"/>
<path d="M200.477 290.093L184.477 290.093C181.531 290.093 179.144 292.48 179.144 295.426L179.144 303.426C179.144 306.371 181.531 308.759 184.477 308.759L200.477 308.759C203.422 308.759 205.81 306.371 205.81 303.426L205.81 295.426C205.81 292.48 203.422 290.093 200.477 290.093Z" stroke="white" stroke-width="2" stroke-linecap="round" stroke-linejoin="round"/>
<path d="M292.713 227.713L292.713 219.713C292.713 218.298 292.151 216.942 291.15 215.942C290.15 214.942 288.794 214.38 287.379 214.38L247.379 214.38C245.965 214.38 244.608 214.942 243.608 215.942C242.608 216.942 242.046 218.298 242.046 219.713L242.046 246.38C242.046 249.313 244.446 251.713 247.379 251.713L258.046 251.713" stroke="white" stroke-width="2" stroke-linecap="round" stroke-linejoin="round"/>
<path d="M290.046 238.38L274.046 238.38C271.1 238.38 268.713 240.767 268.713 243.713L268.713 251.713C268.713 254.658 271.1 257.046 274.046 257.046L290.046 257.046C292.991 257.046 295.379 254.658 295.379 251.713L295.379 243.713C295.379 240.767 292.991 238.38 290.046 238.38Z" stroke="white" stroke-width="2" stroke-linecap="round" stroke-linejoin="round"/>
<path d="M382.282 176L382.282 168C382.282 166.586 381.72 165.229 380.72 164.229C379.72 163.229 378.363 162.667 376.949 162.667L336.949 162.667C335.534 162.667 334.178 163.229 333.177 164.229C332.177 165.229 331.615 166.586 331.615 168L331.615 194.667C331.615 197.6 334.015 200 336.949 200L347.615 200" stroke="white" stroke-width="2" stroke-linecap="round" stroke-linejoin="round"/>
<path d="M379.615 186.667L363.615 186.667C360.67 186.667 358.282 189.055 358.282 192L358.282 200C358.282 202.946 360.67 205.333 363.615 205.333L379.615 205.333C382.561 205.333 384.949 202.946 384.949 200L384.949 192C384.949 189.055 382.561 186.667 379.615 186.667Z" stroke="white" stroke-width="2" stroke-linecap="round" stroke-linejoin="round"/>
<path d="M471.851 124.287L471.851 116.287C471.851 114.873 471.289 113.516 470.289 112.516C469.289 111.516 467.932 110.954 466.518 110.954L426.518 110.954C425.103 110.954 423.747 111.516 422.746 112.516C421.746 113.516 421.184 114.873 421.184 116.287L421.184 142.954C421.184 145.887 423.584 148.287 426.518 148.287L437.184 148.287" stroke="white" stroke-width="2" stroke-linecap="round" stroke-linejoin="round"/>
<path d="M469.184 134.954L453.184 134.954C450.239 134.954 447.851 137.342 447.851 140.287L447.851 148.287C447.851 151.233 450.239 153.621 453.184 153.621L469.184 153.621C472.13 153.621 474.518 151.233 474.518 148.287L474.518 140.287C474.518 137.342 472.13 134.954 469.184 134.954Z" stroke="white" stroke-width="2" stroke-linecap="round" stroke-linejoin="round"/>
<path d="M291.641 329.282L291.641 321.282C291.641 319.868 291.079 318.511 290.079 317.511C289.078 316.511 287.722 315.949 286.307 315.949L246.307 315.949C244.893 315.949 243.536 316.511 242.536 317.511C241.536 318.511 240.974 319.868 240.974 321.282L240.974 347.949C240.974 350.882 243.374 353.282 246.307 353.282L256.974 353.282" stroke="white" stroke-width="2" stroke-linecap="round" stroke-linejoin="round"/>
<path d="M381.21 277.569L381.21 269.569C381.21 268.155 380.648 266.798 379.648 265.798C378.648 264.798 377.291 264.236 375.877 264.236L335.877 264.236C334.462 264.236 333.106 264.798 332.106 265.798C331.105 266.798 330.543 268.155 330.543 269.569L330.543 296.236C330.543 299.169 332.943 301.569 335.877 301.569L346.543 301.569" stroke="white" stroke-width="2" stroke-linecap="round" stroke-linejoin="round"/>
<path d="M378.544 288.236L362.544 288.236C359.598 288.236 357.21 290.624 357.21 293.569L357.21 301.569C357.21 304.515 359.598 306.903 362.544 306.903L378.544 306.903C381.489 306.903 383.877 304.515 383.877 301.569L383.877 293.569C383.877 290.624 381.489 288.236 378.544 288.236Z" stroke="white" stroke-width="2" stroke-linecap="round" stroke-linejoin="round"/>
<path d="M470.779 225.857L470.779 217.857C470.779 216.442 470.217 215.085 469.217 214.085C468.217 213.085 466.86 212.523 465.446 212.523L425.446 212.523C424.031 212.523 422.675 213.085 421.675 214.085C420.674 215.085 420.113 216.442 420.113 217.857L420.113 244.523C420.113 247.457 422.513 249.857 425.446 249.857L436.113 249.857" stroke="white" stroke-width="2" stroke-linecap="round" stroke-linejoin="round"/>
<path d="M468.113 236.523L452.113 236.523C449.167 236.523 446.779 238.911 446.779 241.857L446.779 249.857C446.779 252.802 449.167 255.19 452.113 255.19L468.113 255.19C471.058 255.19 473.446 252.802 473.446 249.857L473.446 241.857C473.446 238.911 471.058 236.523 468.113 236.523Z" stroke="white" stroke-width="2" stroke-linecap="round" stroke-linejoin="round"/>
</g>
<defs>
<clipPath id="clip0_2028_1686">
<rect width="450" height="320" fill="white"/>
</clipPath>
</defs>
</svg>
