<svg width="450" height="320" viewBox="0 0 450 320" fill="none" xmlns="http://www.w3.org/2000/svg">
<g clip-path="url(#clip0_2028_4336)">
<rect width="450" height="320" fill="#121212"/>
<path d="M58.6718 54.954L64.0052 54.954M58.6718 65.6206L64.0052 65.6206M32.4585 68.2873C33.0082 66.7247 34.0294 65.3712 35.3812 64.4138C36.733 63.4563 38.3487 62.9421 40.0052 62.9421C41.6617 62.9421 43.2773 63.4563 44.6291 64.4138C45.9809 65.3712 47.0021 66.7247 47.5518 68.2873" stroke="white" stroke-width="2" stroke-linecap="round" stroke-linejoin="round"/>
<path d="M40.005 62.9539C42.9505 62.9539 45.3383 60.5661 45.3383 57.6206C45.3383 54.675 42.9505 52.2872 40.005 52.2872C37.0594 52.2872 34.6716 54.675 34.6716 57.6206C34.6716 60.5661 37.0594 62.9539 40.005 62.9539Z" stroke="white" stroke-width="2" stroke-linecap="round" stroke-linejoin="round"/>
<path d="M69.3384 41.6206L26.6717 41.6206C23.7262 41.6206 21.3384 44.0084 21.3384 46.9539L21.3384 73.6206C21.3384 76.5661 23.7262 78.9539 26.6717 78.9539L69.3384 78.9539C72.2839 78.9539 74.6717 76.5661 74.6717 73.6206L74.6717 46.9539C74.6717 44.0084 72.2839 41.6206 69.3384 41.6206Z" stroke="white" stroke-width="2" stroke-linecap="round" stroke-linejoin="round"/>
<path d="M148.241 3.24121L153.574 3.24121M148.241 13.9079L153.574 13.9079M122.028 16.5745C122.577 15.0119 123.599 13.6584 124.95 12.701C126.302 11.7435 127.918 11.2293 129.574 11.2293C131.231 11.2293 132.846 11.7435 134.198 12.701C135.55 13.6584 136.571 15.0119 137.121 16.5745" stroke="white" stroke-width="2" stroke-linecap="round" stroke-linejoin="round"/>
<path d="M129.574 11.2411C132.52 11.2411 134.907 8.85332 134.907 5.9078C134.907 2.96228 132.52 0.574463 129.574 0.574463C126.629 0.574463 124.241 2.96228 124.241 5.9078C124.241 8.85332 126.629 11.2411 129.574 11.2411Z" stroke="white" stroke-width="2" stroke-linecap="round" stroke-linejoin="round"/>
<path d="M158.907 -10.0922L116.241 -10.0922C113.295 -10.0922 110.907 -7.70435 110.907 -4.75883L110.907 21.9078C110.907 24.8534 113.295 27.2412 116.241 27.2412L158.907 27.2412C161.853 27.2412 164.241 24.8534 164.241 21.9078L164.241 -4.75883C164.241 -7.70435 161.853 -10.0922 158.907 -10.0922Z" stroke="white" stroke-width="2" stroke-linecap="round" stroke-linejoin="round"/>
<path d="M12.8154 182.38L18.1487 182.38M12.8154 193.046L18.1487 193.046M-13.3979 195.713C-12.8482 194.15 -11.827 192.797 -10.4752 191.839C-9.12345 190.882 -7.50779 190.368 -5.85128 190.368C-4.19477 190.368 -2.57911 190.882 -1.22733 191.839C0.124446 192.797 1.14568 194.15 1.69538 195.713" stroke="white" stroke-width="2" stroke-linecap="round" stroke-linejoin="round"/>
<path d="M-5.85148 190.38C-2.90596 190.38 -0.518148 187.992 -0.518148 185.046C-0.518148 182.101 -2.90596 179.713 -5.85148 179.713C-8.797 179.713 -11.1848 182.101 -11.1848 185.046C-11.1848 187.992 -8.797 190.38 -5.85148 190.38Z" stroke="white" stroke-width="2" stroke-linecap="round" stroke-linejoin="round"/>
<path d="M23.4819 169.046L-19.1847 169.046C-22.1303 169.046 -24.5181 171.434 -24.5181 174.38L-24.5181 201.046C-24.5181 203.992 -22.1303 206.38 -19.1847 206.38L23.4819 206.38C26.4274 206.38 28.8153 203.992 28.8153 201.046L28.8153 174.38C28.8153 171.434 26.4274 169.046 23.4819 169.046Z" stroke="white" stroke-width="2" stroke-linecap="round" stroke-linejoin="round"/>
<path d="M102.384 130.667L107.718 130.667M102.384 141.333L107.718 141.333M76.1711 144C76.7208 142.437 77.7421 141.084 79.0939 140.127C80.4456 139.169 82.0613 138.655 83.7178 138.655C85.3743 138.655 86.99 139.169 88.3418 140.127C89.6935 141.084 90.7148 142.437 91.2645 144" stroke="white" stroke-width="2" stroke-linecap="round" stroke-linejoin="round"/>
<path d="M83.7176 138.667C86.6631 138.667 89.0509 136.279 89.0509 133.333C89.0509 130.388 86.6631 128 83.7176 128C80.7721 128 78.3843 130.388 78.3843 133.333C78.3843 136.279 80.7721 138.667 83.7176 138.667Z" stroke="white" stroke-width="2" stroke-linecap="round" stroke-linejoin="round"/>
<path d="M113.051 117.333L70.3844 117.333C67.4388 117.333 65.051 119.721 65.051 122.667L65.051 149.333C65.051 152.279 67.4388 154.667 70.3844 154.667L113.051 154.667C115.997 154.667 118.384 152.279 118.384 149.333L118.384 122.667C118.384 119.721 115.997 117.333 113.051 117.333Z" stroke="white" stroke-width="2" stroke-linecap="round" stroke-linejoin="round"/>
<path d="M191.954 78.954L197.287 78.954M191.954 89.6206L197.287 89.6206M165.74 92.2873C166.29 90.7247 167.311 89.3712 168.663 88.4138C170.015 87.4563 171.631 86.9421 173.287 86.9421C174.944 86.9421 176.559 87.4563 177.911 88.4138C179.263 89.3712 180.284 90.7247 180.834 92.2873" stroke="white" stroke-width="2" stroke-linecap="round" stroke-linejoin="round"/>
<path d="M173.287 86.9539C176.232 86.9539 178.62 84.5661 178.62 81.6206C178.62 78.675 176.232 76.2872 173.287 76.2872C170.341 76.2872 167.954 78.675 167.954 81.6206C167.954 84.5661 170.341 86.9539 173.287 86.9539Z" stroke="white" stroke-width="2" stroke-linecap="round" stroke-linejoin="round"/>
<path d="M202.62 65.6206L159.954 65.6206C157.008 65.6206 154.62 68.0084 154.62 70.9539L154.62 97.6206C154.62 100.566 157.008 102.954 159.954 102.954L202.62 102.954C205.566 102.954 207.954 100.566 207.954 97.6206L207.954 70.9539C207.954 68.0084 205.566 65.6206 202.62 65.6206Z" stroke="white" stroke-width="2" stroke-linecap="round" stroke-linejoin="round"/>
<path d="M281.523 27.2412L286.856 27.2412M281.523 37.9079L286.856 37.9079M255.31 40.5745C255.859 39.0119 256.881 37.6584 258.232 36.701C259.584 35.7435 261.2 35.2293 262.856 35.2293C264.513 35.2293 266.128 35.7435 267.48 36.701C268.832 37.6584 269.853 39.0119 270.403 40.5745" stroke="white" stroke-width="2" stroke-linecap="round" stroke-linejoin="round"/>
<path d="M262.856 35.2411C265.802 35.2411 268.189 32.8533 268.189 29.9078C268.189 26.9623 265.802 24.5745 262.856 24.5745C259.911 24.5745 257.523 26.9623 257.523 29.9078C257.523 32.8533 259.911 35.2411 262.856 35.2411Z" stroke="white" stroke-width="2" stroke-linecap="round" stroke-linejoin="round"/>
<path d="M292.189 13.9078L249.523 13.9078C246.577 13.9078 244.189 16.2957 244.189 19.2412L244.189 45.9078C244.189 48.8534 246.577 51.2412 249.523 51.2412L292.189 51.2412C295.135 51.2412 297.523 48.8534 297.523 45.9078L297.523 19.2412C297.523 16.2957 295.135 13.9078 292.189 13.9078Z" stroke="white" stroke-width="2" stroke-linecap="round" stroke-linejoin="round"/>
<path d="M381.759 -37.8051L339.092 -37.8051C336.147 -37.8051 333.759 -35.4172 333.759 -32.4717L333.759 -5.80506C333.759 -2.85954 336.147 -0.471722 339.092 -0.471722L381.759 -0.471721C384.704 -0.471721 387.092 -2.85953 387.092 -5.80505L387.092 -32.4717C387.092 -35.4172 384.704 -37.8051 381.759 -37.8051Z" stroke="white" stroke-width="2" stroke-linecap="round" stroke-linejoin="round"/>
<path d="M56.5283 258.092L61.8616 258.092M56.5283 268.759L61.8616 268.759M30.3149 271.426C30.8646 269.863 31.8859 268.51 33.2377 267.552C34.5894 266.595 36.2051 266.081 37.8616 266.081C39.5181 266.081 41.1338 266.595 42.4856 267.552C43.8373 268.51 44.8586 269.863 45.4083 271.426" stroke="white" stroke-width="2" stroke-linecap="round" stroke-linejoin="round"/>
<path d="M37.8614 266.092C40.8069 266.092 43.1947 263.705 43.1947 260.759C43.1947 257.813 40.8069 255.426 37.8614 255.426C34.9159 255.426 32.5281 257.813 32.5281 260.759C32.5281 263.705 34.9159 266.092 37.8614 266.092Z" stroke="white" stroke-width="2" stroke-linecap="round" stroke-linejoin="round"/>
<path d="M67.1948 244.759L24.5282 244.759C21.5826 244.759 19.1948 247.147 19.1948 250.092L19.1948 276.759C19.1948 279.705 21.5826 282.092 24.5282 282.092L67.1948 282.092C70.1403 282.092 72.5282 279.705 72.5282 276.759L72.5282 250.092C72.5282 247.147 70.1403 244.759 67.1948 244.759Z" stroke="white" stroke-width="2" stroke-linecap="round" stroke-linejoin="round"/>
<path d="M146.097 206.38L151.431 206.38M146.097 217.046L151.431 217.046M119.884 219.713C120.434 218.15 121.455 216.797 122.807 215.839C124.159 214.882 125.774 214.368 127.431 214.368C129.087 214.368 130.703 214.882 132.055 215.839C133.406 216.797 134.428 218.15 134.977 219.713" stroke="white" stroke-width="2" stroke-linecap="round" stroke-linejoin="round"/>
<path d="M127.431 214.38C130.376 214.38 132.764 211.992 132.764 209.046C132.764 206.101 130.376 203.713 127.431 203.713C124.485 203.713 122.097 206.101 122.097 209.046C122.097 211.992 124.485 214.38 127.431 214.38Z" stroke="white" stroke-width="2" stroke-linecap="round" stroke-linejoin="round"/>
<path d="M156.764 193.046L114.097 193.046C111.152 193.046 108.764 195.434 108.764 198.38L108.764 225.046C108.764 227.992 111.152 230.38 114.097 230.38L156.764 230.38C159.709 230.38 162.097 227.992 162.097 225.046L162.097 198.38C162.097 195.434 159.709 193.046 156.764 193.046Z" stroke="white" stroke-width="2" stroke-linecap="round" stroke-linejoin="round"/>
<path d="M235.667 154.667L241 154.667M235.667 165.333L241 165.333M209.453 168C210.003 166.437 211.024 165.084 212.376 164.127C213.728 163.169 215.344 162.655 217 162.655C218.657 162.655 220.272 163.169 221.624 164.127C222.976 165.084 223.997 166.437 224.547 168" stroke="white" stroke-width="2" stroke-linecap="round" stroke-linejoin="round"/>
<path d="M217 162.667C219.945 162.667 222.333 160.279 222.333 157.333C222.333 154.388 219.945 152 217 152C214.054 152 211.667 154.388 211.667 157.333C211.667 160.279 214.054 162.667 217 162.667Z" stroke="white" stroke-width="2" stroke-linecap="round" stroke-linejoin="round"/>
<path d="M246.333 141.333L203.667 141.333C200.721 141.333 198.333 143.721 198.333 146.667L198.333 173.333C198.333 176.279 200.721 178.667 203.667 178.667L246.333 178.667C249.279 178.667 251.667 176.279 251.667 173.333L251.667 146.667C251.667 143.721 249.279 141.333 246.333 141.333Z" stroke="white" stroke-width="2" stroke-linecap="round" stroke-linejoin="round"/>
<path d="M325.236 102.954L330.569 102.954M325.236 113.621L330.569 113.621M299.022 116.287C299.572 114.725 300.593 113.371 301.945 112.414C303.297 111.456 304.913 110.942 306.569 110.942C308.226 110.942 309.841 111.456 311.193 112.414C312.545 113.371 313.566 114.725 314.116 116.287" stroke="white" stroke-width="2" stroke-linecap="round" stroke-linejoin="round"/>
<path d="M306.569 110.954C309.514 110.954 311.902 108.566 311.902 105.621C311.902 102.675 309.514 100.287 306.569 100.287C303.623 100.287 301.236 102.675 301.236 105.621C301.236 108.566 303.623 110.954 306.569 110.954Z" stroke="white" stroke-width="2" stroke-linecap="round" stroke-linejoin="round"/>
<path d="M335.902 89.6206L293.236 89.6206C290.29 89.6206 287.902 92.0084 287.902 94.9539L287.902 121.621C287.902 124.566 290.29 126.954 293.236 126.954L335.902 126.954C338.848 126.954 341.236 124.566 341.236 121.621L341.236 94.9539C341.236 92.0084 338.848 89.6206 335.902 89.6206Z" stroke="white" stroke-width="2" stroke-linecap="round" stroke-linejoin="round"/>
<path d="M414.805 51.2412L420.138 51.2412M414.805 61.9079L420.138 61.9079M388.592 64.5745C389.142 63.0119 390.163 61.6584 391.515 60.701C392.866 59.7435 394.482 59.2293 396.138 59.2293C397.795 59.2293 399.411 59.7435 400.762 60.701C402.114 61.6584 403.135 63.0119 403.685 64.5745" stroke="white" stroke-width="2" stroke-linecap="round" stroke-linejoin="round"/>
<path d="M396.138 59.2411C399.084 59.2411 401.472 56.8533 401.472 53.9078C401.472 50.9623 399.084 48.5745 396.138 48.5745C393.193 48.5745 390.805 50.9623 390.805 53.9078C390.805 56.8533 393.193 59.2411 396.138 59.2411Z" stroke="white" stroke-width="2" stroke-linecap="round" stroke-linejoin="round"/>
<path d="M425.472 37.9078L382.805 37.9078C379.859 37.9078 377.472 40.2957 377.472 43.2412L377.472 69.9078C377.472 72.8534 379.859 75.2412 382.805 75.2412L425.472 75.2412C428.417 75.2412 430.805 72.8534 430.805 69.9078L430.805 43.2412C430.805 40.2957 428.417 37.9078 425.472 37.9078Z" stroke="white" stroke-width="2" stroke-linecap="round" stroke-linejoin="round"/>
<path d="M110.907 320.472L68.2408 320.472C65.2953 320.472 62.9075 322.86 62.9075 325.805L62.9075 352.472C62.9075 355.417 65.2953 357.805 68.2408 357.805L110.907 357.805C113.853 357.805 116.241 355.417 116.241 352.472L116.241 325.805C116.241 322.86 113.853 320.472 110.907 320.472Z" stroke="white" stroke-width="2" stroke-linecap="round" stroke-linejoin="round"/>
<path d="M189.81 282.092L195.144 282.092M189.81 292.759L195.144 292.759M163.597 295.426C164.147 293.863 165.168 292.51 166.52 291.552C167.871 290.595 169.487 290.081 171.144 290.081C172.8 290.081 174.416 290.595 175.768 291.552C177.119 292.51 178.141 293.863 178.69 295.426" stroke="white" stroke-width="2" stroke-linecap="round" stroke-linejoin="round"/>
<path d="M171.143 290.092C174.089 290.092 176.477 287.705 176.477 284.759C176.477 281.813 174.089 279.426 171.143 279.426C168.198 279.426 165.81 281.813 165.81 284.759C165.81 287.705 168.198 290.092 171.143 290.092Z" stroke="white" stroke-width="2" stroke-linecap="round" stroke-linejoin="round"/>
<path d="M200.477 268.759L157.81 268.759C154.865 268.759 152.477 271.147 152.477 274.092L152.477 300.759C152.477 303.705 154.865 306.092 157.81 306.092L200.477 306.092C203.422 306.092 205.81 303.705 205.81 300.759L205.81 274.092C205.81 271.147 203.422 268.759 200.477 268.759Z" stroke="white" stroke-width="2" stroke-linecap="round" stroke-linejoin="round"/>
<path d="M279.379 230.38L284.713 230.38M279.379 241.046L284.713 241.046M253.166 243.713C253.716 242.15 254.737 240.797 256.089 239.839C257.441 238.882 259.056 238.368 260.713 238.368C262.369 238.368 263.985 238.882 265.337 239.839C266.688 240.797 267.71 242.15 268.259 243.713" stroke="white" stroke-width="2" stroke-linecap="round" stroke-linejoin="round"/>
<path d="M260.712 238.38C263.658 238.38 266.046 235.992 266.046 233.046C266.046 230.101 263.658 227.713 260.712 227.713C257.767 227.713 255.379 230.101 255.379 233.046C255.379 235.992 257.767 238.38 260.712 238.38Z" stroke="white" stroke-width="2" stroke-linecap="round" stroke-linejoin="round"/>
<path d="M290.046 217.046L247.379 217.046C244.434 217.046 242.046 219.434 242.046 222.38L242.046 249.046C242.046 251.992 244.434 254.38 247.379 254.38L290.046 254.38C292.991 254.38 295.379 251.992 295.379 249.046L295.379 222.38C295.379 219.434 292.991 217.046 290.046 217.046Z" stroke="white" stroke-width="2" stroke-linecap="round" stroke-linejoin="round"/>
<path d="M368.949 178.667L374.282 178.667M368.949 189.333L374.282 189.333M342.735 192C343.285 190.437 344.306 189.084 345.658 188.127C347.01 187.169 348.626 186.655 350.282 186.655C351.939 186.655 353.554 187.169 354.906 188.127C356.258 189.084 357.279 190.437 357.829 192" stroke="white" stroke-width="2" stroke-linecap="round" stroke-linejoin="round"/>
<path d="M350.282 186.667C353.227 186.667 355.615 184.279 355.615 181.333C355.615 178.388 353.227 176 350.282 176C347.336 176 344.948 178.388 344.948 181.333C344.948 184.279 347.336 186.667 350.282 186.667Z" stroke="white" stroke-width="2" stroke-linecap="round" stroke-linejoin="round"/>
<path d="M379.615 165.333L336.949 165.333C334.003 165.333 331.615 167.721 331.615 170.667L331.615 197.333C331.615 200.279 334.003 202.667 336.949 202.667L379.615 202.667C382.561 202.667 384.949 200.279 384.949 197.333L384.949 170.667C384.949 167.721 382.561 165.333 379.615 165.333Z" stroke="white" stroke-width="2" stroke-linecap="round" stroke-linejoin="round"/>
<path d="M458.518 126.954L463.851 126.954M458.518 137.621L463.851 137.621M432.304 140.287C432.854 138.725 433.875 137.371 435.227 136.414C436.579 135.456 438.195 134.942 439.851 134.942C441.508 134.942 443.123 135.456 444.475 136.414C445.827 137.371 446.848 138.725 447.398 140.287" stroke="white" stroke-width="2" stroke-linecap="round" stroke-linejoin="round"/>
<path d="M439.851 134.954C442.796 134.954 445.184 132.566 445.184 129.621C445.184 126.675 442.796 124.287 439.851 124.287C436.905 124.287 434.518 126.675 434.518 129.621C434.518 132.566 436.905 134.954 439.851 134.954Z" stroke="white" stroke-width="2" stroke-linecap="round" stroke-linejoin="round"/>
<path d="M469.184 113.621L426.518 113.621C423.572 113.621 421.184 116.008 421.184 118.954L421.184 145.621C421.184 148.566 423.572 150.954 426.518 150.954L469.184 150.954C472.13 150.954 474.518 148.566 474.518 145.621L474.518 118.954C474.518 116.008 472.13 113.621 469.184 113.621Z" stroke="white" stroke-width="2" stroke-linecap="round" stroke-linejoin="round"/>
<path d="M288.974 318.615L246.307 318.615C243.362 318.615 240.974 321.003 240.974 323.949L240.974 350.615C240.974 353.561 243.362 355.949 246.307 355.949L288.974 355.949C291.92 355.949 294.307 353.561 294.307 350.615L294.307 323.949C294.307 321.003 291.92 318.615 288.974 318.615Z" stroke="white" stroke-width="2" stroke-linecap="round" stroke-linejoin="round"/>
<path d="M367.877 280.236L373.21 280.236M367.877 290.903L373.21 290.903M341.664 293.569C342.213 292.007 343.235 290.653 344.586 289.696C345.938 288.738 347.554 288.224 349.21 288.224C350.867 288.224 352.482 288.738 353.834 289.696C355.186 290.653 356.207 292.007 356.757 293.569" stroke="white" stroke-width="2" stroke-linecap="round" stroke-linejoin="round"/>
<path d="M349.21 288.236C352.156 288.236 354.543 285.848 354.543 282.903C354.543 279.957 352.156 277.569 349.21 277.569C346.265 277.569 343.877 279.957 343.877 282.903C343.877 285.848 346.265 288.236 349.21 288.236Z" stroke="white" stroke-width="2" stroke-linecap="round" stroke-linejoin="round"/>
<path d="M378.543 266.903L335.877 266.903C332.931 266.903 330.543 269.29 330.543 272.236L330.543 298.903C330.543 301.848 332.931 304.236 335.877 304.236L378.543 304.236C381.489 304.236 383.877 301.848 383.877 298.903L383.877 272.236C383.877 269.29 381.489 266.903 378.543 266.903Z" stroke="white" stroke-width="2" stroke-linecap="round" stroke-linejoin="round"/>
<path d="M457.446 228.523L462.779 228.523M457.446 239.19L462.779 239.19M431.233 241.857C431.782 240.294 432.804 238.94 434.155 237.983C435.507 237.026 437.123 236.511 438.779 236.511C440.436 236.511 442.052 237.026 443.403 237.983C444.755 238.94 445.776 240.294 446.326 241.857" stroke="white" stroke-width="2" stroke-linecap="round" stroke-linejoin="round"/>
<path d="M438.779 236.523C441.725 236.523 444.112 234.135 444.112 231.19C444.112 228.244 441.725 225.856 438.779 225.856C435.834 225.856 433.446 228.244 433.446 231.19C433.446 234.135 435.834 236.523 438.779 236.523Z" stroke="white" stroke-width="2" stroke-linecap="round" stroke-linejoin="round"/>
<path d="M468.113 215.19L425.446 215.19C422.5 215.19 420.113 217.578 420.113 220.523L420.113 247.19C420.113 250.135 422.5 252.523 425.446 252.523L468.113 252.523C471.058 252.523 473.446 250.135 473.446 247.19L473.446 220.523C473.446 217.578 471.058 215.19 468.113 215.19Z" stroke="white" stroke-width="2" stroke-linecap="round" stroke-linejoin="round"/>
</g>
<defs>
<clipPath id="clip0_2028_4336">
<rect width="450" height="320" fill="white"/>
</clipPath>
</defs>
</svg>
