<svg width="450" height="320" viewBox="0 0 450 320" fill="none" xmlns="http://www.w3.org/2000/svg">
<g clip-path="url(#clip0_2028_2193)">
<rect width="450" height="320" fill="#121212"/>
<path d="M40.0051 36.2874L26.6718 36.2874C25.199 36.2874 24.0051 37.4813 24.0051 38.954L24.0051 57.6207C24.0051 59.0934 25.199 60.2874 26.6718 60.2874L40.0051 60.2874C41.4779 60.2874 42.6718 59.0934 42.6718 57.6207L42.6718 38.954C42.6718 37.4813 41.4779 36.2874 40.0051 36.2874Z" stroke="white" stroke-width="2" stroke-linecap="round" stroke-linejoin="round"/>
<path d="M69.3384 36.2874L56.005 36.2874C54.5323 36.2874 53.3384 37.4813 53.3384 38.954L53.3384 46.954C53.3384 48.4268 54.5323 49.6207 56.005 49.6207L69.3384 49.6207C70.8111 49.6207 72.005 48.4268 72.005 46.954L72.005 38.954C72.005 37.4813 70.8111 36.2874 69.3384 36.2874Z" stroke="white" stroke-width="2" stroke-linecap="round" stroke-linejoin="round"/>
<path d="M69.3384 60.2874L56.005 60.2874C54.5323 60.2874 53.3384 61.4813 53.3384 62.954L53.3384 81.6207C53.3384 83.0934 54.5323 84.2874 56.005 84.2874L69.3384 84.2874C70.8111 84.2874 72.005 83.0934 72.005 81.6207L72.005 62.954C72.005 61.4813 70.8111 60.2874 69.3384 60.2874Z" stroke="white" stroke-width="2" stroke-linecap="round" stroke-linejoin="round"/>
<path d="M40.0051 70.9541L26.6718 70.9541C25.199 70.9541 24.0051 72.148 24.0051 73.6208L24.0051 81.6208C24.0051 83.0935 25.199 84.2874 26.6718 84.2874L40.0051 84.2874C41.4779 84.2874 42.6718 83.0935 42.6718 81.6208L42.6718 73.6208C42.6718 72.148 41.4779 70.9541 40.0051 70.9541Z" stroke="white" stroke-width="2" stroke-linecap="round" stroke-linejoin="round"/>
<path d="M129.574 -15.4255L116.241 -15.4255C114.768 -15.4255 113.574 -14.2316 113.574 -12.7589L113.574 5.9078C113.574 7.38056 114.768 8.57446 116.241 8.57446L129.574 8.57446C131.047 8.57446 132.241 7.38056 132.241 5.9078L132.241 -12.7589C132.241 -14.2316 131.047 -15.4255 129.574 -15.4255Z" stroke="white" stroke-width="2" stroke-linecap="round" stroke-linejoin="round"/>
<path d="M158.908 8.57446L145.574 8.57446C144.102 8.57446 142.908 9.76837 142.908 11.2411L142.908 29.9078C142.908 31.3806 144.102 32.5745 145.574 32.5745L158.908 32.5745C160.38 32.5745 161.574 31.3806 161.574 29.9078L161.574 11.2411C161.574 9.76837 160.38 8.57446 158.908 8.57446Z" stroke="white" stroke-width="2" stroke-linecap="round" stroke-linejoin="round"/>
<path d="M129.574 19.2412L116.241 19.2412C114.768 19.2412 113.574 20.4351 113.574 21.9079L113.574 29.9079C113.574 31.3806 114.768 32.5745 116.241 32.5745L129.574 32.5745C131.047 32.5745 132.241 31.3806 132.241 29.9079L132.241 21.9079C132.241 20.4351 131.047 19.2412 129.574 19.2412Z" stroke="white" stroke-width="2" stroke-linecap="round" stroke-linejoin="round"/>
<path d="M23.4819 163.713L10.1486 163.713C8.67584 163.713 7.48193 164.907 7.48193 166.38L7.48193 174.38C7.48193 175.852 8.67584 177.046 10.1486 177.046L23.4819 177.046C24.9547 177.046 26.1486 175.852 26.1486 174.38L26.1486 166.38C26.1486 164.907 24.9547 163.713 23.4819 163.713Z" stroke="white" stroke-width="2" stroke-linecap="round" stroke-linejoin="round"/>
<path d="M23.4819 187.713L10.1486 187.713C8.67584 187.713 7.48193 188.907 7.48193 190.38L7.48193 209.046C7.48193 210.519 8.67584 211.713 10.1486 211.713L23.4819 211.713C24.9547 211.713 26.1486 210.519 26.1486 209.046L26.1486 190.38C26.1486 188.907 24.9547 187.713 23.4819 187.713Z" stroke="white" stroke-width="2" stroke-linecap="round" stroke-linejoin="round"/>
<path d="M83.7178 112L70.3844 112C68.9117 112 67.7178 113.194 67.7178 114.667L67.7178 133.333C67.7178 134.806 68.9117 136 70.3844 136L83.7178 136C85.1905 136 86.3844 134.806 86.3844 133.333L86.3844 114.667C86.3844 113.194 85.1905 112 83.7178 112Z" stroke="white" stroke-width="2" stroke-linecap="round" stroke-linejoin="round"/>
<path d="M113.051 112L99.7177 112C98.2449 112 97.051 113.194 97.051 114.667L97.051 122.667C97.051 124.139 98.2449 125.333 99.7177 125.333L113.051 125.333C114.524 125.333 115.718 124.139 115.718 122.667L115.718 114.667C115.718 113.194 114.524 112 113.051 112Z" stroke="white" stroke-width="2" stroke-linecap="round" stroke-linejoin="round"/>
<path d="M113.051 136L99.7177 136C98.2449 136 97.051 137.194 97.051 138.667L97.051 157.333C97.051 158.806 98.2449 160 99.7177 160L113.051 160C114.524 160 115.718 158.806 115.718 157.333L115.718 138.667C115.718 137.194 114.524 136 113.051 136Z" stroke="white" stroke-width="2" stroke-linecap="round" stroke-linejoin="round"/>
<path d="M83.7178 146.667L70.3844 146.667C68.9117 146.667 67.7178 147.861 67.7178 149.333L67.7178 157.333C67.7178 158.806 68.9117 160 70.3844 160L83.7178 160C85.1905 160 86.3844 158.806 86.3844 157.333L86.3844 149.333C86.3844 147.861 85.1905 146.667 83.7178 146.667Z" stroke="white" stroke-width="2" stroke-linecap="round" stroke-linejoin="round"/>
<path d="M173.287 60.2874L159.954 60.2874C158.481 60.2874 157.287 61.4813 157.287 62.954L157.287 81.6207C157.287 83.0934 158.481 84.2874 159.954 84.2874L173.287 84.2874C174.76 84.2874 175.954 83.0934 175.954 81.6207L175.954 62.954C175.954 61.4813 174.76 60.2874 173.287 60.2874Z" stroke="white" stroke-width="2" stroke-linecap="round" stroke-linejoin="round"/>
<path d="M202.621 60.2874L189.287 60.2874C187.815 60.2874 186.621 61.4813 186.621 62.954L186.621 70.954C186.621 72.4268 187.815 73.6207 189.287 73.6207L202.621 73.6207C204.093 73.6207 205.287 72.4268 205.287 70.954L205.287 62.954C205.287 61.4813 204.093 60.2874 202.621 60.2874Z" stroke="white" stroke-width="2" stroke-linecap="round" stroke-linejoin="round"/>
<path d="M202.621 84.2874L189.287 84.2874C187.815 84.2874 186.621 85.4813 186.621 86.954L186.621 105.621C186.621 107.093 187.815 108.287 189.287 108.287L202.621 108.287C204.093 108.287 205.287 107.093 205.287 105.621L205.287 86.954C205.287 85.4813 204.093 84.2874 202.621 84.2874Z" stroke="white" stroke-width="2" stroke-linecap="round" stroke-linejoin="round"/>
<path d="M173.287 94.9541L159.954 94.9541C158.481 94.9541 157.287 96.148 157.287 97.6208L157.287 105.621C157.287 107.094 158.481 108.287 159.954 108.287L173.287 108.287C174.76 108.287 175.954 107.094 175.954 105.621L175.954 97.6208C175.954 96.148 174.76 94.9541 173.287 94.9541Z" stroke="white" stroke-width="2" stroke-linecap="round" stroke-linejoin="round"/>
<path d="M262.856 8.57446L249.523 8.57446C248.05 8.57446 246.856 9.76837 246.856 11.2411L246.856 29.9078C246.856 31.3806 248.05 32.5745 249.523 32.5745L262.856 32.5745C264.329 32.5745 265.523 31.3806 265.523 29.9078L265.523 11.2411C265.523 9.76837 264.329 8.57446 262.856 8.57446Z" stroke="white" stroke-width="2" stroke-linecap="round" stroke-linejoin="round"/>
<path d="M292.19 8.57446L278.857 8.57446C277.384 8.57446 276.19 9.76837 276.19 11.2411L276.19 19.2411C276.19 20.7139 277.384 21.9078 278.857 21.9078L292.19 21.9078C293.663 21.9078 294.857 20.7139 294.857 19.2411L294.857 11.2411C294.857 9.76837 293.663 8.57446 292.19 8.57446Z" stroke="white" stroke-width="2" stroke-linecap="round" stroke-linejoin="round"/>
<path d="M292.19 32.5745L278.857 32.5745C277.384 32.5745 276.19 33.7684 276.19 35.2411L276.19 53.9078C276.19 55.3806 277.384 56.5745 278.857 56.5745L292.19 56.5745C293.663 56.5745 294.857 55.3806 294.857 53.9078L294.857 35.2411C294.857 33.7684 293.663 32.5745 292.19 32.5745Z" stroke="white" stroke-width="2" stroke-linecap="round" stroke-linejoin="round"/>
<path d="M262.856 43.2412L249.523 43.2412C248.05 43.2412 246.856 44.4351 246.856 45.9079L246.856 53.9079C246.856 55.3806 248.05 56.5745 249.523 56.5745L262.856 56.5745C264.329 56.5745 265.523 55.3806 265.523 53.9079L265.523 45.9079C265.523 44.4351 264.329 43.2412 262.856 43.2412Z" stroke="white" stroke-width="2" stroke-linecap="round" stroke-linejoin="round"/>
<path d="M381.759 -19.1384L368.425 -19.1384C366.953 -19.1384 365.759 -17.9445 365.759 -16.4718L365.759 2.19491C365.759 3.66767 366.953 4.86157 368.425 4.86157L381.759 4.86157C383.232 4.86157 384.425 3.66767 384.425 2.19491L384.425 -16.4718C384.425 -17.9445 383.232 -19.1384 381.759 -19.1384Z" stroke="white" stroke-width="2" stroke-linecap="round" stroke-linejoin="round"/>
<path d="M352.425 -8.47168L339.092 -8.47168C337.619 -8.47168 336.425 -7.27777 336.425 -5.80501L336.425 2.19499C336.425 3.66775 337.619 4.86165 339.092 4.86165L352.425 4.86165C353.898 4.86165 355.092 3.66775 355.092 2.19499L355.092 -5.80501C355.092 -7.27777 353.898 -8.47168 352.425 -8.47168Z" stroke="white" stroke-width="2" stroke-linecap="round" stroke-linejoin="round"/>
<path d="M37.8616 239.426L24.5282 239.426C23.0555 239.426 21.8616 240.62 21.8616 242.092L21.8616 260.759C21.8616 262.232 23.0555 263.426 24.5282 263.426L37.8616 263.426C39.3343 263.426 40.5282 262.232 40.5282 260.759L40.5282 242.092C40.5282 240.62 39.3343 239.426 37.8616 239.426Z" stroke="white" stroke-width="2" stroke-linecap="round" stroke-linejoin="round"/>
<path d="M67.1948 239.426L53.8615 239.426C52.3887 239.426 51.1948 240.62 51.1948 242.092L51.1948 250.092C51.1948 251.565 52.3887 252.759 53.8615 252.759L67.1948 252.759C68.6676 252.759 69.8615 251.565 69.8615 250.092L69.8615 242.092C69.8615 240.62 68.6676 239.426 67.1948 239.426Z" stroke="white" stroke-width="2" stroke-linecap="round" stroke-linejoin="round"/>
<path d="M67.1948 263.426L53.8615 263.426C52.3887 263.426 51.1948 264.62 51.1948 266.092L51.1948 284.759C51.1948 286.232 52.3887 287.426 53.8615 287.426L67.1948 287.426C68.6676 287.426 69.8615 286.232 69.8615 284.759L69.8615 266.092C69.8615 264.62 68.6676 263.426 67.1948 263.426Z" stroke="white" stroke-width="2" stroke-linecap="round" stroke-linejoin="round"/>
<path d="M37.8616 274.093L24.5282 274.093C23.0555 274.093 21.8616 275.286 21.8616 276.759L21.8616 284.759C21.8616 286.232 23.0555 287.426 24.5282 287.426L37.8616 287.426C39.3343 287.426 40.5282 286.232 40.5282 284.759L40.5282 276.759C40.5282 275.286 39.3343 274.093 37.8616 274.093Z" stroke="white" stroke-width="2" stroke-linecap="round" stroke-linejoin="round"/>
<path d="M127.431 187.713L114.097 187.713C112.625 187.713 111.431 188.907 111.431 190.38L111.431 209.046C111.431 210.519 112.625 211.713 114.097 211.713L127.431 211.713C128.903 211.713 130.097 210.519 130.097 209.046L130.097 190.38C130.097 188.907 128.903 187.713 127.431 187.713Z" stroke="white" stroke-width="2" stroke-linecap="round" stroke-linejoin="round"/>
<path d="M156.764 187.713L143.431 187.713C141.958 187.713 140.764 188.907 140.764 190.38L140.764 198.38C140.764 199.852 141.958 201.046 143.431 201.046L156.764 201.046C158.237 201.046 159.431 199.852 159.431 198.38L159.431 190.38C159.431 188.907 158.237 187.713 156.764 187.713Z" stroke="white" stroke-width="2" stroke-linecap="round" stroke-linejoin="round"/>
<path d="M156.764 211.713L143.431 211.713C141.958 211.713 140.764 212.907 140.764 214.38L140.764 233.046C140.764 234.519 141.958 235.713 143.431 235.713L156.764 235.713C158.237 235.713 159.431 234.519 159.431 233.046L159.431 214.38C159.431 212.907 158.237 211.713 156.764 211.713Z" stroke="white" stroke-width="2" stroke-linecap="round" stroke-linejoin="round"/>
<path d="M127.431 222.38L114.097 222.38C112.625 222.38 111.431 223.574 111.431 225.046L111.431 233.046C111.431 234.519 112.625 235.713 114.097 235.713L127.431 235.713C128.903 235.713 130.097 234.519 130.097 233.046L130.097 225.046C130.097 223.574 128.903 222.38 127.431 222.38Z" stroke="white" stroke-width="2" stroke-linecap="round" stroke-linejoin="round"/>
<path d="M217 136L203.667 136C202.194 136 201 137.194 201 138.667L201 157.333C201 158.806 202.194 160 203.667 160L217 160C218.473 160 219.667 158.806 219.667 157.333L219.667 138.667C219.667 137.194 218.473 136 217 136Z" stroke="white" stroke-width="2" stroke-linecap="round" stroke-linejoin="round"/>
<path d="M246.333 136L233 136C231.527 136 230.333 137.194 230.333 138.667L230.333 146.667C230.333 148.139 231.527 149.333 233 149.333L246.333 149.333C247.806 149.333 249 148.139 249 146.667L249 138.667C249 137.194 247.806 136 246.333 136Z" stroke="white" stroke-width="2" stroke-linecap="round" stroke-linejoin="round"/>
<path d="M246.333 160L233 160C231.527 160 230.333 161.194 230.333 162.667L230.333 181.333C230.333 182.806 231.527 184 233 184L246.333 184C247.806 184 249 182.806 249 181.333L249 162.667C249 161.194 247.806 160 246.333 160Z" stroke="white" stroke-width="2" stroke-linecap="round" stroke-linejoin="round"/>
<path d="M217 170.667L203.667 170.667C202.194 170.667 201 171.861 201 173.333L201 181.333C201 182.806 202.194 184 203.667 184L217 184C218.473 184 219.667 182.806 219.667 181.333L219.667 173.333C219.667 171.861 218.473 170.667 217 170.667Z" stroke="white" stroke-width="2" stroke-linecap="round" stroke-linejoin="round"/>
<path d="M306.569 84.2874L293.236 84.2874C291.763 84.2874 290.569 85.4813 290.569 86.954L290.569 105.621C290.569 107.093 291.763 108.287 293.236 108.287L306.569 108.287C308.042 108.287 309.236 107.093 309.236 105.621L309.236 86.954C309.236 85.4813 308.042 84.2874 306.569 84.2874Z" stroke="white" stroke-width="2" stroke-linecap="round" stroke-linejoin="round"/>
<path d="M335.903 84.2874L322.569 84.2874C321.097 84.2874 319.903 85.4813 319.903 86.954L319.903 94.954C319.903 96.4268 321.097 97.6207 322.569 97.6207L335.903 97.6207C337.376 97.6207 338.569 96.4268 338.569 94.954L338.569 86.954C338.569 85.4813 337.376 84.2874 335.903 84.2874Z" stroke="white" stroke-width="2" stroke-linecap="round" stroke-linejoin="round"/>
<path d="M335.903 108.287L322.569 108.287C321.097 108.287 319.903 109.481 319.903 110.954L319.903 129.621C319.903 131.093 321.097 132.287 322.569 132.287L335.903 132.287C337.376 132.287 338.569 131.093 338.569 129.621L338.569 110.954C338.569 109.481 337.376 108.287 335.903 108.287Z" stroke="white" stroke-width="2" stroke-linecap="round" stroke-linejoin="round"/>
<path d="M306.569 118.954L293.236 118.954C291.763 118.954 290.569 120.148 290.569 121.621L290.569 129.621C290.569 131.094 291.763 132.287 293.236 132.287L306.569 132.287C308.042 132.287 309.236 131.094 309.236 129.621L309.236 121.621C309.236 120.148 308.042 118.954 306.569 118.954Z" stroke="white" stroke-width="2" stroke-linecap="round" stroke-linejoin="round"/>
<path d="M396.138 32.5745L382.805 32.5745C381.332 32.5745 380.138 33.7684 380.138 35.2411L380.138 53.9078C380.138 55.3806 381.332 56.5745 382.805 56.5745L396.138 56.5745C397.611 56.5745 398.805 55.3806 398.805 53.9078L398.805 35.2411C398.805 33.7684 397.611 32.5745 396.138 32.5745Z" stroke="white" stroke-width="2" stroke-linecap="round" stroke-linejoin="round"/>
<path d="M425.472 32.5745L412.138 32.5745C410.666 32.5745 409.472 33.7684 409.472 35.2411L409.472 43.2411C409.472 44.7139 410.666 45.9078 412.138 45.9078L425.472 45.9078C426.944 45.9078 428.138 44.7139 428.138 43.2411L428.138 35.2411C428.138 33.7684 426.944 32.5745 425.472 32.5745Z" stroke="white" stroke-width="2" stroke-linecap="round" stroke-linejoin="round"/>
<path d="M425.472 56.5745L412.138 56.5745C410.666 56.5745 409.472 57.7684 409.472 59.2411L409.472 77.9078C409.472 79.3806 410.666 80.5745 412.138 80.5745L425.472 80.5745C426.944 80.5745 428.138 79.3806 428.138 77.9078L428.138 59.2411C428.138 57.7684 426.944 56.5745 425.472 56.5745Z" stroke="white" stroke-width="2" stroke-linecap="round" stroke-linejoin="round"/>
<path d="M396.138 67.2412L382.805 67.2412C381.332 67.2412 380.138 68.4351 380.138 69.9079L380.138 77.9079C380.138 79.3806 381.332 80.5745 382.805 80.5745L396.138 80.5745C397.611 80.5745 398.805 79.3806 398.805 77.9079L398.805 69.9079C398.805 68.4351 397.611 67.2412 396.138 67.2412Z" stroke="white" stroke-width="2" stroke-linecap="round" stroke-linejoin="round"/>
<path d="M81.5742 315.138L68.2409 315.138C66.7681 315.138 65.5742 316.332 65.5742 317.805L65.5742 336.472C65.5742 337.945 66.7681 339.138 68.2409 339.138L81.5742 339.138C83.047 339.138 84.2409 337.945 84.2409 336.472L84.2409 317.805C84.2409 316.332 83.047 315.138 81.5742 315.138Z" stroke="white" stroke-width="2" stroke-linecap="round" stroke-linejoin="round"/>
<path d="M110.907 315.138L97.5741 315.138C96.1014 315.138 94.9075 316.332 94.9075 317.805L94.9075 325.805C94.9075 327.278 96.1014 328.472 97.5741 328.472L110.907 328.472C112.38 328.472 113.574 327.278 113.574 325.805L113.574 317.805C113.574 316.332 112.38 315.138 110.907 315.138Z" stroke="white" stroke-width="2" stroke-linecap="round" stroke-linejoin="round"/>
<path d="M171.144 263.426L157.81 263.426C156.337 263.426 155.144 264.62 155.144 266.092L155.144 284.759C155.144 286.232 156.337 287.426 157.81 287.426L171.144 287.426C172.616 287.426 173.81 286.232 173.81 284.759L173.81 266.092C173.81 264.62 172.616 263.426 171.144 263.426Z" stroke="white" stroke-width="2" stroke-linecap="round" stroke-linejoin="round"/>
<path d="M200.477 263.426L187.144 263.426C185.671 263.426 184.477 264.62 184.477 266.092L184.477 274.092C184.477 275.565 185.671 276.759 187.144 276.759L200.477 276.759C201.95 276.759 203.144 275.565 203.144 274.092L203.144 266.092C203.144 264.62 201.95 263.426 200.477 263.426Z" stroke="white" stroke-width="2" stroke-linecap="round" stroke-linejoin="round"/>
<path d="M200.477 287.426L187.144 287.426C185.671 287.426 184.477 288.62 184.477 290.092L184.477 308.759C184.477 310.232 185.671 311.426 187.144 311.426L200.477 311.426C201.95 311.426 203.144 310.232 203.144 308.759L203.144 290.092C203.144 288.62 201.95 287.426 200.477 287.426Z" stroke="white" stroke-width="2" stroke-linecap="round" stroke-linejoin="round"/>
<path d="M171.144 298.093L157.81 298.093C156.337 298.093 155.144 299.286 155.144 300.759L155.144 308.759C155.144 310.232 156.337 311.426 157.81 311.426L171.144 311.426C172.616 311.426 173.81 310.232 173.81 308.759L173.81 300.759C173.81 299.286 172.616 298.093 171.144 298.093Z" stroke="white" stroke-width="2" stroke-linecap="round" stroke-linejoin="round"/>
<path d="M260.713 211.713L247.38 211.713C245.907 211.713 244.713 212.907 244.713 214.38L244.713 233.046C244.713 234.519 245.907 235.713 247.38 235.713L260.713 235.713C262.186 235.713 263.38 234.519 263.38 233.046L263.38 214.38C263.38 212.907 262.186 211.713 260.713 211.713Z" stroke="white" stroke-width="2" stroke-linecap="round" stroke-linejoin="round"/>
<path d="M290.046 211.713L276.713 211.713C275.24 211.713 274.046 212.907 274.046 214.38L274.046 222.38C274.046 223.852 275.24 225.046 276.713 225.046L290.046 225.046C291.519 225.046 292.713 223.852 292.713 222.38L292.713 214.38C292.713 212.907 291.519 211.713 290.046 211.713Z" stroke="white" stroke-width="2" stroke-linecap="round" stroke-linejoin="round"/>
<path d="M290.046 235.713L276.713 235.713C275.24 235.713 274.046 236.907 274.046 238.38L274.046 257.046C274.046 258.519 275.24 259.713 276.713 259.713L290.046 259.713C291.519 259.713 292.713 258.519 292.713 257.046L292.713 238.38C292.713 236.907 291.519 235.713 290.046 235.713Z" stroke="white" stroke-width="2" stroke-linecap="round" stroke-linejoin="round"/>
<path d="M260.713 246.38L247.38 246.38C245.907 246.38 244.713 247.574 244.713 249.046L244.713 257.046C244.713 258.519 245.907 259.713 247.38 259.713L260.713 259.713C262.186 259.713 263.38 258.519 263.38 257.046L263.38 249.046C263.38 247.574 262.186 246.38 260.713 246.38Z" stroke="white" stroke-width="2" stroke-linecap="round" stroke-linejoin="round"/>
<path d="M350.282 160L336.948 160C335.476 160 334.282 161.194 334.282 162.667L334.282 181.333C334.282 182.806 335.476 184 336.948 184L350.282 184C351.754 184 352.948 182.806 352.948 181.333L352.948 162.667C352.948 161.194 351.754 160 350.282 160Z" stroke="white" stroke-width="2" stroke-linecap="round" stroke-linejoin="round"/>
<path d="M379.615 160L366.282 160C364.809 160 363.615 161.194 363.615 162.667L363.615 170.667C363.615 172.139 364.809 173.333 366.282 173.333L379.615 173.333C381.088 173.333 382.282 172.139 382.282 170.667L382.282 162.667C382.282 161.194 381.088 160 379.615 160Z" stroke="white" stroke-width="2" stroke-linecap="round" stroke-linejoin="round"/>
<path d="M379.615 184L366.282 184C364.809 184 363.615 185.194 363.615 186.667L363.615 205.333C363.615 206.806 364.809 208 366.282 208L379.615 208C381.088 208 382.282 206.806 382.282 205.333L382.282 186.667C382.282 185.194 381.088 184 379.615 184Z" stroke="white" stroke-width="2" stroke-linecap="round" stroke-linejoin="round"/>
<path d="M350.282 194.667L336.948 194.667C335.476 194.667 334.282 195.861 334.282 197.333L334.282 205.333C334.282 206.806 335.476 208 336.948 208L350.282 208C351.754 208 352.948 206.806 352.948 205.333L352.948 197.333C352.948 195.861 351.754 194.667 350.282 194.667Z" stroke="white" stroke-width="2" stroke-linecap="round" stroke-linejoin="round"/>
<path d="M439.851 108.287L426.518 108.287C425.045 108.287 423.851 109.481 423.851 110.954L423.851 129.621C423.851 131.093 425.045 132.287 426.518 132.287L439.851 132.287C441.324 132.287 442.518 131.093 442.518 129.621L442.518 110.954C442.518 109.481 441.324 108.287 439.851 108.287Z" stroke="white" stroke-width="2" stroke-linecap="round" stroke-linejoin="round"/>
<path d="M439.851 142.954L426.518 142.954C425.045 142.954 423.851 144.148 423.851 145.621L423.851 153.621C423.851 155.094 425.045 156.287 426.518 156.287L439.851 156.287C441.324 156.287 442.518 155.094 442.518 153.621L442.518 145.621C442.518 144.148 441.324 142.954 439.851 142.954Z" stroke="white" stroke-width="2" stroke-linecap="round" stroke-linejoin="round"/>
<path d="M259.641 313.282L246.308 313.282C244.835 313.282 243.641 314.476 243.641 315.949L243.641 334.615C243.641 336.088 244.835 337.282 246.308 337.282L259.641 337.282C261.114 337.282 262.308 336.088 262.308 334.615L262.308 315.949C262.308 314.476 261.114 313.282 259.641 313.282Z" stroke="white" stroke-width="2" stroke-linecap="round" stroke-linejoin="round"/>
<path d="M288.975 313.282L275.641 313.282C274.169 313.282 272.975 314.476 272.975 315.949L272.975 323.949C272.975 325.421 274.169 326.615 275.641 326.615L288.975 326.615C290.447 326.615 291.641 325.421 291.641 323.949L291.641 315.949C291.641 314.476 290.447 313.282 288.975 313.282Z" stroke="white" stroke-width="2" stroke-linecap="round" stroke-linejoin="round"/>
<path d="M349.21 261.569L335.877 261.569C334.404 261.569 333.21 262.763 333.21 264.236L333.21 282.903C333.21 284.375 334.404 285.569 335.877 285.569L349.21 285.569C350.683 285.569 351.877 284.375 351.877 282.903L351.877 264.236C351.877 262.763 350.683 261.569 349.21 261.569Z" stroke="white" stroke-width="2" stroke-linecap="round" stroke-linejoin="round"/>
<path d="M378.543 261.569L365.21 261.569C363.737 261.569 362.543 262.763 362.543 264.236L362.543 272.236C362.543 273.709 363.737 274.903 365.21 274.903L378.543 274.903C380.016 274.903 381.21 273.709 381.21 272.236L381.21 264.236C381.21 262.763 380.016 261.569 378.543 261.569Z" stroke="white" stroke-width="2" stroke-linecap="round" stroke-linejoin="round"/>
<path d="M378.543 285.569L365.21 285.569C363.737 285.569 362.543 286.763 362.543 288.236L362.543 306.903C362.543 308.375 363.737 309.569 365.21 309.569L378.543 309.569C380.016 309.569 381.21 308.375 381.21 306.903L381.21 288.236C381.21 286.763 380.016 285.569 378.543 285.569Z" stroke="white" stroke-width="2" stroke-linecap="round" stroke-linejoin="round"/>
<path d="M349.21 296.236L335.877 296.236C334.404 296.236 333.21 297.43 333.21 298.903L333.21 306.903C333.21 308.376 334.404 309.569 335.877 309.569L349.21 309.569C350.683 309.569 351.877 308.376 351.877 306.903L351.877 298.903C351.877 297.43 350.683 296.236 349.21 296.236Z" stroke="white" stroke-width="2" stroke-linecap="round" stroke-linejoin="round"/>
<path d="M438.779 209.856L425.446 209.856C423.973 209.856 422.779 211.05 422.779 212.523L422.779 231.19C422.779 232.663 423.973 233.856 425.446 233.856L438.779 233.856C440.252 233.856 441.446 232.663 441.446 231.19L441.446 212.523C441.446 211.05 440.252 209.856 438.779 209.856Z" stroke="white" stroke-width="2" stroke-linecap="round" stroke-linejoin="round"/>
<path d="M438.779 244.523L425.446 244.523C423.973 244.523 422.779 245.717 422.779 247.19L422.779 255.19C422.779 256.663 423.973 257.857 425.446 257.857L438.779 257.857C440.252 257.857 441.446 256.663 441.446 255.19L441.446 247.19C441.446 245.717 440.252 244.523 438.779 244.523Z" stroke="white" stroke-width="2" stroke-linecap="round" stroke-linejoin="round"/>
</g>
<defs>
<clipPath id="clip0_2028_2193">
<rect width="450" height="320" fill="white"/>
</clipPath>
</defs>
</svg>
