<svg width="450" height="320" viewBox="0 0 450 320" fill="none" xmlns="http://www.w3.org/2000/svg">
<g clip-path="url(#clip0_2028_1039)">
<rect width="450" height="320" fill="#121212"/>
<path d="M37.3384 60.2872L37.365 60.2872M48.005 60.2872L48.0317 60.2872M58.6717 60.2872L58.6984 60.2872M37.0717 81.6205C42.1613 84.2313 48.0159 84.9385 53.5807 83.6146C59.1456 82.2907 64.0545 79.0227 67.4231 74.3997C70.7916 69.7766 72.3982 64.1024 71.9533 58.3996C71.5084 52.6968 69.0413 47.3404 64.9965 43.2957C60.9518 39.251 55.5954 36.7839 49.8926 36.339C44.1898 35.8941 38.5156 37.5007 33.8926 40.8692C29.2695 44.2377 26.0016 49.1467 24.6776 54.7115C23.3537 60.2763 24.0609 66.131 26.6717 71.2205L21.3384 86.9539L37.0717 81.6205Z" stroke="white" stroke-width="2" stroke-linecap="round" stroke-linejoin="round"/>
<path d="M126.907 8.57436L126.934 8.57436M137.574 8.57436L137.601 8.57436M148.241 8.57437L148.267 8.57437M126.641 29.9077C131.73 32.5185 137.585 33.2257 143.15 31.9018C148.715 30.5779 153.624 27.3099 156.992 22.6868C160.361 18.0638 161.967 12.3896 161.522 6.68679C161.077 0.983999 158.61 -4.37238 154.566 -8.41712C150.521 -12.4619 145.165 -14.929 139.462 -15.3739C133.759 -15.8188 128.085 -14.2122 123.462 -10.8436C118.839 -7.47511 115.571 -2.56614 114.247 2.99866C112.923 8.56347 113.63 14.4182 116.241 19.5077L110.907 35.241L126.641 29.9077Z" stroke="white" stroke-width="2" stroke-linecap="round" stroke-linejoin="round"/>
<path d="M-8.51807 187.713L-8.4914 187.713M2.1486 187.713L2.17527 187.713M12.8153 187.713L12.8419 187.713M-8.78473 209.046C-3.69519 211.657 2.15949 212.364 7.7243 211.04C13.2891 209.716 18.1981 206.448 21.5666 201.825C24.9351 197.202 26.5417 191.528 26.0968 185.825C25.6519 180.122 23.1848 174.766 19.1401 170.721C15.0953 166.677 9.73897 164.21 4.03617 163.765C-1.66662 163.32 -7.34081 164.926 -11.9639 168.295C-16.587 171.663 -19.8549 176.572 -21.1788 182.137C-22.5027 187.702 -21.7956 193.557 -19.1847 198.646L-24.5181 214.38L-8.78473 209.046Z" stroke="white" stroke-width="2" stroke-linecap="round" stroke-linejoin="round"/>
<path d="M81.051 136L81.0777 136M91.7177 136L91.7444 136M102.384 136L102.411 136M80.7844 157.333C85.8739 159.944 91.7286 160.651 97.2934 159.327C102.858 158.004 107.767 154.736 111.136 150.113C114.504 145.489 116.111 139.815 115.666 134.112C115.221 128.41 112.754 123.053 108.709 119.009C104.664 114.964 99.3081 112.497 93.6053 112.052C87.9025 111.607 82.2283 113.213 77.6052 116.582C72.9821 119.951 69.7142 124.86 68.3903 130.424C67.0664 135.989 67.7735 141.844 70.3844 146.933L65.051 162.667L80.7844 157.333Z" stroke="white" stroke-width="2" stroke-linecap="round" stroke-linejoin="round"/>
<path d="M170.62 84.2872L170.647 84.2872M181.287 84.2872L181.314 84.2872M191.954 84.2872L191.98 84.2872M170.354 105.621C175.443 108.231 181.298 108.939 186.863 107.615C192.428 106.291 197.337 103.023 200.705 98.3997C204.074 93.7766 205.68 88.1024 205.235 82.3996C204.79 76.6968 202.323 71.3404 198.279 67.2957C194.234 63.251 188.877 60.7839 183.175 60.339C177.472 59.8941 171.798 61.5007 167.175 64.8692C162.551 68.2377 159.284 73.1467 157.96 78.7115C156.636 84.2763 157.343 90.131 159.954 95.2205L154.62 110.954L170.354 105.621Z" stroke="white" stroke-width="2" stroke-linecap="round" stroke-linejoin="round"/>
<path d="M260.189 32.5744L260.216 32.5744M270.856 32.5744L270.883 32.5744M281.523 32.5744L281.549 32.5744M259.923 53.9077C265.012 56.5185 270.867 57.2257 276.432 55.9018C281.997 54.5779 286.906 51.3099 290.274 46.6868C293.643 42.0638 295.249 36.3896 294.804 30.6868C294.359 24.984 291.892 19.6276 287.848 15.5829C283.803 11.5381 278.446 9.07104 272.744 8.62614C267.041 8.18125 261.367 9.78782 256.744 13.1564C252.121 16.5249 248.853 21.4339 247.529 26.9987C246.205 32.5635 246.912 38.4182 249.523 43.5077L244.189 59.241L259.923 53.9077Z" stroke="white" stroke-width="2" stroke-linecap="round" stroke-linejoin="round"/>
<path d="M349.759 -19.1384L349.785 -19.1384M360.425 -19.1384L360.452 -19.1384M371.092 -19.1384L371.119 -19.1384M349.492 2.1949C354.582 4.80572 360.436 5.51289 366.001 4.18897C371.566 2.86506 376.475 -0.402884 379.843 -5.02596C383.212 -9.64903 384.819 -15.3232 384.374 -21.026C383.929 -26.7288 381.462 -32.0852 377.417 -36.1299C373.372 -40.1747 368.016 -42.6418 362.313 -43.0867C356.61 -43.5316 350.936 -41.925 346.313 -38.5564C341.69 -35.1879 338.422 -30.2789 337.098 -24.7141C335.774 -19.1493 336.481 -13.2946 339.092 -8.2051L333.759 7.52823L349.492 2.1949Z" stroke="white" stroke-width="2" stroke-linecap="round" stroke-linejoin="round"/>
<path d="M35.1948 263.426L35.2215 263.426M45.8615 263.426L45.8882 263.426M56.5282 263.426L56.5548 263.426M34.9282 284.759C40.0177 287.37 45.8724 288.077 51.4372 286.753C57.002 285.429 61.911 282.161 65.2795 277.538C68.648 272.915 70.2546 267.241 69.8097 261.538C69.3648 255.835 66.8977 250.479 62.853 246.434C58.8082 242.389 53.4519 239.922 47.7491 239.477C42.0463 239.033 36.3721 240.639 31.749 244.008C27.1259 247.376 23.858 252.285 22.5341 257.85C21.2102 263.415 21.9173 269.269 24.5282 274.359L19.1948 290.092L34.9282 284.759Z" stroke="white" stroke-width="2" stroke-linecap="round" stroke-linejoin="round"/>
<path d="M124.764 211.713L124.791 211.713M135.431 211.713L135.457 211.713M146.097 211.713L146.124 211.713M124.497 233.046C129.587 235.657 135.441 236.364 141.006 235.04C146.571 233.716 151.48 230.448 154.849 225.825C158.217 221.202 159.824 215.528 159.379 209.825C158.934 204.122 156.467 198.766 152.422 194.721C148.377 190.677 143.021 188.21 137.318 187.765C131.615 187.32 125.941 188.926 121.318 192.295C116.695 195.663 113.427 200.572 112.103 206.137C110.779 211.702 111.486 217.557 114.097 222.646L108.764 238.38L124.497 233.046Z" stroke="white" stroke-width="2" stroke-linecap="round" stroke-linejoin="round"/>
<path d="M214.333 160L214.36 160M225 160L225.027 160M235.667 160L235.693 160M214.067 181.333C219.156 183.944 225.011 184.651 230.576 183.327C236.14 182.004 241.049 178.736 244.418 174.113C247.786 169.489 249.393 163.815 248.948 158.112C248.503 152.41 246.036 147.053 241.991 143.009C237.947 138.964 232.59 136.497 226.887 136.052C221.185 135.607 215.511 137.213 210.887 140.582C206.264 143.951 202.996 148.86 201.673 154.424C200.349 159.989 201.056 165.844 203.667 170.933L198.333 186.667L214.067 181.333Z" stroke="white" stroke-width="2" stroke-linecap="round" stroke-linejoin="round"/>
<path d="M303.902 108.287L303.929 108.287M314.569 108.287L314.596 108.287M325.236 108.287L325.262 108.287M303.636 129.621C308.725 132.231 314.58 132.939 320.145 131.615C325.71 130.291 330.618 127.023 333.987 122.4C337.356 117.777 338.962 112.102 338.517 106.4C338.072 100.697 335.605 95.3404 331.56 91.2957C327.516 87.251 322.159 84.7839 316.457 84.339C310.754 83.8941 305.08 85.5007 300.457 88.8692C295.833 92.2377 292.566 97.1467 291.242 102.711C289.918 108.276 290.625 114.131 293.236 119.221L287.902 134.954L303.636 129.621Z" stroke="white" stroke-width="2" stroke-linecap="round" stroke-linejoin="round"/>
<path d="M393.472 56.5744L393.498 56.5744M404.138 56.5744L404.165 56.5744M414.805 56.5744L414.832 56.5744M393.205 77.9078C398.295 80.5186 404.149 81.2257 409.714 79.9018C415.279 78.5779 420.188 75.31 423.556 70.6869C426.925 66.0638 428.531 60.3897 428.087 54.6869C427.642 48.9841 425.175 43.6277 421.13 39.5829C417.085 35.5382 411.729 33.0711 406.026 32.6262C400.323 32.1813 394.649 33.7879 390.026 37.1564C385.403 40.5249 382.135 45.4339 380.811 50.9987C379.487 56.5635 380.194 62.4182 382.805 67.5078L377.472 83.2411L393.205 77.9078Z" stroke="white" stroke-width="2" stroke-linecap="round" stroke-linejoin="round"/>
<path d="M78.9075 339.138L78.9341 339.138M89.5741 339.138L89.6008 339.138M100.241 339.138L100.267 339.138M78.6408 360.472C83.7303 363.083 89.585 363.79 95.1498 362.466C100.715 361.142 105.624 357.874 108.992 353.251C112.361 348.628 113.967 342.954 113.522 337.251C113.077 331.548 110.61 326.192 106.566 322.147C102.521 318.102 97.1645 315.635 91.4617 315.19C85.7589 314.745 80.0847 316.352 75.4617 319.72C70.8386 323.089 67.5706 327.998 66.2467 333.563C64.9228 339.128 65.63 344.982 68.2408 350.072L62.9075 365.805L78.6408 360.472Z" stroke="white" stroke-width="2" stroke-linecap="round" stroke-linejoin="round"/>
<path d="M168.477 287.426L168.503 287.426M179.143 287.426L179.17 287.426M189.81 287.426L189.837 287.426M168.21 308.759C173.3 311.37 179.154 312.077 184.719 310.753C190.284 309.429 195.193 306.161 198.561 301.538C201.93 296.915 203.537 291.241 203.092 285.538C202.647 279.835 200.18 274.479 196.135 270.434C192.09 266.389 186.734 263.922 181.031 263.477C175.328 263.033 169.654 264.639 165.031 268.008C160.408 271.376 157.14 276.285 155.816 281.85C154.492 287.415 155.199 293.269 157.81 298.359L152.477 314.092L168.21 308.759Z" stroke="white" stroke-width="2" stroke-linecap="round" stroke-linejoin="round"/>
<path d="M258.046 235.713L258.073 235.713M268.713 235.713L268.739 235.713M279.379 235.713L279.406 235.713M257.779 257.046C262.869 259.657 268.723 260.364 274.288 259.04C279.853 257.716 284.762 254.448 288.131 249.825C291.499 245.202 293.106 239.528 292.661 233.825C292.216 228.122 289.749 222.766 285.704 218.721C281.659 214.677 276.303 212.21 270.6 211.765C264.897 211.32 259.223 212.926 254.6 216.295C249.977 219.663 246.709 224.572 245.385 230.137C244.061 235.702 244.768 241.557 247.379 246.646L242.046 262.38L257.779 257.046Z" stroke="white" stroke-width="2" stroke-linecap="round" stroke-linejoin="round"/>
<path d="M347.615 184L347.642 184M358.282 184L358.309 184M368.949 184L368.975 184M347.349 205.333C352.438 207.944 358.293 208.651 363.858 207.327C369.422 206.004 374.331 202.736 377.7 198.113C381.068 193.489 382.675 187.815 382.23 182.112C381.785 176.41 379.318 171.053 375.273 167.009C371.229 162.964 365.872 160.497 360.169 160.052C354.467 159.607 348.792 161.213 344.169 164.582C339.546 167.951 336.278 172.86 334.954 178.424C333.631 183.989 334.338 189.844 336.949 194.933L331.615 210.667L347.349 205.333Z" stroke="white" stroke-width="2" stroke-linecap="round" stroke-linejoin="round"/>
<path d="M437.184 132.287L437.211 132.287M447.851 132.287L447.878 132.287M458.518 132.287L458.544 132.287M436.918 153.621C442.007 156.231 447.862 156.939 453.427 155.615C458.991 154.291 463.9 151.023 467.269 146.4C470.638 141.777 472.244 136.102 471.799 130.4C471.354 124.697 468.887 119.34 464.842 115.296C460.798 111.251 455.441 108.784 449.739 108.339C444.036 107.894 438.362 109.501 433.739 112.869C429.115 116.238 425.848 121.147 424.524 126.711C423.2 132.276 423.907 138.131 426.518 143.221L421.184 158.954L436.918 153.621Z" stroke="white" stroke-width="2" stroke-linecap="round" stroke-linejoin="round"/>
<path d="M301.759 311.426L301.785 311.426M312.425 311.426L312.452 311.426M323.092 311.426L323.119 311.426M301.492 332.759C306.582 335.37 312.436 336.077 318.001 334.753C323.566 333.429 328.475 330.161 331.843 325.538C335.212 320.915 336.819 315.241 336.374 309.538C335.929 303.835 333.462 298.479 329.417 294.434C325.372 290.389 320.016 287.922 314.313 287.477C308.61 287.033 302.936 288.639 298.313 292.008C293.69 295.376 290.422 300.285 289.098 305.85C287.774 311.415 288.481 317.269 291.092 322.359L285.759 338.092L301.492 332.759Z" stroke="white" stroke-width="2" stroke-linecap="round" stroke-linejoin="round"/>
<path d="M391.328 259.713L391.355 259.713M401.995 259.713L402.021 259.713M412.661 259.713L412.688 259.713M391.061 281.046C396.151 283.657 402.005 284.364 407.57 283.04C413.135 281.716 418.044 278.448 421.413 273.825C424.781 269.202 426.388 263.528 425.943 257.825C425.498 252.122 423.031 246.766 418.986 242.721C414.941 238.677 409.585 236.21 403.882 235.765C398.179 235.32 392.505 236.926 387.882 240.295C383.259 243.663 379.991 248.572 378.667 254.137C377.343 259.702 378.05 265.557 380.661 270.646L375.328 286.38L391.061 281.046Z" stroke="white" stroke-width="2" stroke-linecap="round" stroke-linejoin="round"/>
</g>
<defs>
<clipPath id="clip0_2028_1039">
<rect width="450" height="320" fill="white"/>
</clipPath>
</defs>
</svg>
