<svg width="450" height="320" viewBox="0 0 450 320" fill="none" xmlns="http://www.w3.org/2000/svg">
<g clip-path="url(#clip0_2028_4259)">
<rect width="450" height="320" fill="#121212"/>
<path d="M58.6718 73.6206L69.3385 73.6206M26.6718 62.9539L37.3385 62.9539M26.6718 70.9539L26.6718 64.6073C26.6718 58.9539 23.9251 56.2873 24.0051 49.6206C24.0851 42.3673 27.9785 33.6206 36.0051 33.6206C40.9918 33.6206 42.6718 38.4206 42.6718 42.9539C42.6718 51.2473 37.3385 58.0473 37.3385 66.1006L37.3385 70.9539C37.3385 72.3684 36.7766 73.725 35.7764 74.7252C34.7762 75.7254 33.4196 76.2873 32.0051 76.2873C30.5906 76.2873 29.2341 75.7254 28.2339 74.7252C27.2337 73.725 26.6718 72.3684 26.6718 70.9539ZM69.3385 81.6206L69.3385 75.2739C69.3385 69.6206 72.0851 66.9539 72.0051 60.2873C71.9251 53.0339 68.0318 44.2873 60.0051 44.2873C55.0185 44.2873 53.3385 49.0873 53.3385 53.6206C53.3385 61.9139 58.6718 68.7139 58.6718 76.7673L58.6718 81.6206C58.6718 83.0351 59.2337 84.3916 60.2339 85.3918C61.2341 86.392 62.5906 86.9539 64.0051 86.9539C65.4196 86.9539 66.7762 86.392 67.7764 85.3918C68.7766 84.3916 69.3385 83.0351 69.3385 81.6206Z" stroke="white" stroke-width="2" stroke-linecap="round" stroke-linejoin="round"/>
<path d="M148.241 21.9078L158.908 21.9078M116.241 11.2412L126.908 11.2412M116.241 19.2412L116.241 12.8945C116.241 7.24117 113.494 4.5745 113.574 -2.09216C113.654 -9.3455 117.548 -18.0922 125.574 -18.0922C130.561 -18.0922 132.241 -13.2922 132.241 -8.75883C132.241 -0.465497 126.908 6.3345 126.908 14.3878L126.908 19.2412C126.908 20.6557 126.346 22.0122 125.345 23.0124C124.345 24.0126 122.989 24.5745 121.574 24.5745C120.16 24.5745 118.803 24.0126 117.803 23.0124C116.803 22.0122 116.241 20.6557 116.241 19.2412ZM158.908 29.9078L158.908 23.5612C158.908 17.9078 161.654 15.2412 161.574 8.5745C161.494 1.32117 157.601 -7.4255 149.574 -7.4255C144.588 -7.4255 142.908 -2.6255 142.908 1.90784C142.908 10.2012 148.241 17.0012 148.241 25.0545L148.241 29.9078C148.241 31.3223 148.803 32.6789 149.803 33.6791C150.803 34.6793 152.16 35.2412 153.574 35.2412C154.989 35.2412 156.345 34.6793 157.345 33.6791C158.346 32.6789 158.908 31.3223 158.908 29.9078Z" stroke="white" stroke-width="2" stroke-linecap="round" stroke-linejoin="round"/>
<path d="M12.8154 201.046L23.482 201.046M-19.1846 190.38L-8.51798 190.38M-19.1846 198.38L-19.1846 192.033C-19.1846 186.38 -21.9313 183.713 -21.8513 177.046C-21.7713 169.793 -17.878 161.046 -9.85131 161.046C-4.86465 161.046 -3.18465 165.846 -3.18465 170.38C-3.18465 178.673 -8.51798 185.473 -8.51798 193.526L-8.51798 198.38C-8.51798 199.794 -9.07988 201.151 -10.0801 202.151C-11.0803 203.151 -12.4368 203.713 -13.8513 203.713C-15.2658 203.713 -16.6224 203.151 -17.6225 202.151C-18.6227 201.151 -19.1846 199.794 -19.1846 198.38ZM23.482 209.046L23.482 202.7C23.482 197.046 26.2287 194.38 26.1487 187.713C26.0687 180.46 22.1754 171.713 14.1487 171.713C9.16202 171.713 7.48202 176.513 7.48202 181.046C7.48202 189.34 12.8154 196.14 12.8154 204.193L12.8154 209.046C12.8154 210.461 13.3773 211.817 14.3775 212.817C15.3776 213.818 16.7342 214.38 18.1487 214.38C19.5632 214.38 20.9197 213.818 21.9199 212.817C22.9201 211.817 23.482 210.461 23.482 209.046Z" stroke="white" stroke-width="2" stroke-linecap="round" stroke-linejoin="round"/>
<path d="M102.384 149.333L113.051 149.333M70.3844 138.667L81.0511 138.667M70.3844 146.667L70.3844 140.32C70.3844 134.667 67.6378 132 67.7178 125.333C67.7978 118.08 71.6911 109.333 79.7178 109.333C84.7044 109.333 86.3844 114.133 86.3844 118.667C86.3844 126.96 81.0511 133.76 81.0511 141.813L81.0511 146.667C81.0511 148.081 80.4892 149.438 79.489 150.438C78.4888 151.438 77.1323 152 75.7178 152C74.3033 152 72.9467 151.438 71.9465 150.438C70.9463 149.438 70.3844 148.081 70.3844 146.667ZM113.051 157.333L113.051 150.987C113.051 145.333 115.798 142.667 115.718 136C115.638 128.747 111.744 120 103.718 120C98.7311 120 97.0511 124.8 97.0511 129.333C97.0511 137.627 102.384 144.427 102.384 152.48L102.384 157.333C102.384 158.748 102.946 160.104 103.947 161.105C104.947 162.105 106.303 162.667 107.718 162.667C109.132 162.667 110.489 162.105 111.489 161.105C112.489 160.104 113.051 158.748 113.051 157.333Z" stroke="white" stroke-width="2" stroke-linecap="round" stroke-linejoin="round"/>
<path d="M191.954 97.6206L202.62 97.6206M159.954 86.9539L170.62 86.9539M159.954 94.9539L159.954 88.6073C159.954 82.9539 157.207 80.2873 157.287 73.6206C157.367 66.3673 161.26 57.6206 169.287 57.6206C174.274 57.6206 175.954 62.4206 175.954 66.9539C175.954 75.2473 170.62 82.0473 170.62 90.1006L170.62 94.9539C170.62 96.3684 170.059 97.725 169.058 98.7252C168.058 99.7254 166.702 100.287 165.287 100.287C163.873 100.287 162.516 99.7254 161.516 98.7252C160.516 97.725 159.954 96.3684 159.954 94.9539ZM202.62 105.621L202.62 99.2739C202.62 93.6206 205.367 90.9539 205.287 84.2873C205.207 77.0339 201.314 68.2873 193.287 68.2873C188.3 68.2873 186.62 73.0873 186.62 77.6206C186.62 85.9139 191.954 92.7139 191.954 100.767L191.954 105.621C191.954 107.035 192.516 108.392 193.516 109.392C194.516 110.392 195.873 110.954 197.287 110.954C198.702 110.954 200.058 110.392 201.058 109.392C202.059 108.392 202.62 107.035 202.62 105.621Z" stroke="white" stroke-width="2" stroke-linecap="round" stroke-linejoin="round"/>
<path d="M281.523 45.9078L292.19 45.9078M249.523 35.2412L260.19 35.2412M249.523 43.2412L249.523 36.8945C249.523 31.2412 246.776 28.5745 246.856 21.9078C246.936 14.6545 250.83 5.90784 258.856 5.90784C263.843 5.90784 265.523 10.7078 265.523 15.2412C265.523 23.5345 260.19 30.3345 260.19 38.3878L260.19 43.2412C260.19 44.6557 259.628 46.0122 258.627 47.0124C257.627 48.0126 256.271 48.5745 254.856 48.5745C253.442 48.5745 252.085 48.0126 251.085 47.0124C250.085 46.0122 249.523 44.6557 249.523 43.2412ZM292.19 53.9078L292.19 47.5612C292.19 41.9078 294.936 39.2412 294.856 32.5745C294.776 25.3212 290.883 16.5745 282.856 16.5745C277.87 16.5745 276.19 21.3745 276.19 25.9078C276.19 34.2012 281.523 41.0012 281.523 49.0545L281.523 53.9078C281.523 55.3223 282.085 56.6789 283.085 57.6791C284.085 58.6793 285.442 59.2412 286.856 59.2412C288.271 59.2412 289.627 58.6793 290.627 57.6791C291.628 56.6789 292.19 55.3223 292.19 53.9078Z" stroke="white" stroke-width="2" stroke-linecap="round" stroke-linejoin="round"/>
<path d="M371.092 -5.80506L381.759 -5.80506M339.092 -16.4717L349.759 -16.4717M339.092 -8.47172L339.092 -14.8184C339.092 -20.4717 336.346 -23.1384 336.426 -29.8051C336.506 -37.0584 340.399 -45.8051 348.426 -45.8051C353.412 -45.8051 355.092 -41.0051 355.092 -36.4717C355.092 -28.1784 349.759 -21.3784 349.759 -13.3251L349.759 -8.47172C349.759 -7.05723 349.197 -5.70068 348.197 -4.70049C347.197 -3.70029 345.84 -3.13839 344.426 -3.13839C343.011 -3.13839 341.654 -3.70029 340.654 -4.70049C339.654 -5.70068 339.092 -7.05723 339.092 -8.47172ZM381.759 2.19494L381.759 -4.15172C381.759 -9.80505 384.506 -12.4717 384.426 -19.1384C384.346 -26.3917 380.452 -35.1384 372.426 -35.1384C367.439 -35.1384 365.759 -30.3384 365.759 -25.8051C365.759 -17.5117 371.092 -10.7117 371.092 -2.65839L371.092 2.19494C371.092 3.60943 371.654 4.96599 372.654 5.96618C373.655 6.96637 375.011 7.52828 376.426 7.52828C377.84 7.52828 379.197 6.96637 380.197 5.96618C381.197 4.96599 381.759 3.60943 381.759 2.19494Z" stroke="white" stroke-width="2" stroke-linecap="round" stroke-linejoin="round"/>
<path d="M56.5282 276.759L67.1949 276.759M24.5282 266.092L35.1949 266.092M24.5282 274.092L24.5282 267.746C24.5282 262.092 21.7816 259.426 21.8616 252.759C21.9416 245.506 25.8349 236.759 33.8616 236.759C38.8482 236.759 40.5282 241.559 40.5282 246.092C40.5282 254.386 35.1949 261.186 35.1949 269.239L35.1949 274.092C35.1949 275.507 34.633 276.863 33.6328 277.864C32.6326 278.864 31.2761 279.426 29.8616 279.426C28.4471 279.426 27.0905 278.864 26.0903 277.864C25.0901 276.863 24.5282 275.507 24.5282 274.092ZM67.1949 284.759L67.1949 278.412C67.1949 272.759 69.9416 270.092 69.8616 263.426C69.7816 256.172 65.8882 247.426 57.8616 247.426C52.8749 247.426 51.1949 252.226 51.1949 256.759C51.1949 265.052 56.5282 271.852 56.5282 279.906L56.5282 284.759C56.5282 286.174 57.0901 287.53 58.0903 288.53C59.0905 289.53 60.4471 290.092 61.8616 290.092C63.2761 290.092 64.6326 289.53 65.6328 288.53C66.633 287.53 67.1949 286.174 67.1949 284.759Z" stroke="white" stroke-width="2" stroke-linecap="round" stroke-linejoin="round"/>
<path d="M146.097 225.046L156.764 225.046M114.097 214.38L124.764 214.38M114.097 222.38L114.097 216.033C114.097 210.38 111.351 207.713 111.431 201.046C111.511 193.793 115.404 185.046 123.431 185.046C128.417 185.046 130.097 189.846 130.097 194.38C130.097 202.673 124.764 209.473 124.764 217.526L124.764 222.38C124.764 223.794 124.202 225.151 123.202 226.151C122.202 227.151 120.845 227.713 119.431 227.713C118.016 227.713 116.66 227.151 115.659 226.151C114.659 225.151 114.097 223.794 114.097 222.38ZM156.764 233.046L156.764 226.7C156.764 221.046 159.511 218.38 159.431 211.713C159.351 204.46 155.457 195.713 147.431 195.713C142.444 195.713 140.764 200.513 140.764 205.046C140.764 213.34 146.097 220.14 146.097 228.193L146.097 233.046C146.097 234.461 146.659 235.817 147.659 236.817C148.66 237.818 150.016 238.38 151.431 238.38C152.845 238.38 154.202 237.818 155.202 236.817C156.202 235.817 156.764 234.461 156.764 233.046Z" stroke="white" stroke-width="2" stroke-linecap="round" stroke-linejoin="round"/>
<path d="M235.667 173.333L246.333 173.333M203.667 162.667L214.333 162.667M203.667 170.667L203.667 164.32C203.667 158.667 200.92 156 201 149.333C201.08 142.08 204.973 133.333 213 133.333C217.987 133.333 219.667 138.133 219.667 142.667C219.667 150.96 214.333 157.76 214.333 165.813L214.333 170.667C214.333 172.081 213.771 173.438 212.771 174.438C211.771 175.438 210.414 176 209 176C207.586 176 206.229 175.438 205.229 174.438C204.229 173.438 203.667 172.081 203.667 170.667ZM246.333 181.333L246.333 174.987C246.333 169.333 249.08 166.667 249 160C248.92 152.747 245.027 144 237 144C232.013 144 230.333 148.8 230.333 153.333C230.333 161.627 235.667 168.427 235.667 176.48L235.667 181.333C235.667 182.748 236.229 184.104 237.229 185.105C238.229 186.105 239.586 186.667 241 186.667C242.414 186.667 243.771 186.105 244.771 185.105C245.771 184.104 246.333 182.748 246.333 181.333Z" stroke="white" stroke-width="2" stroke-linecap="round" stroke-linejoin="round"/>
<path d="M325.236 121.621L335.902 121.621M293.236 110.954L303.902 110.954M293.236 118.954L293.236 112.607C293.236 106.954 290.489 104.287 290.569 97.6206C290.649 90.3673 294.542 81.6206 302.569 81.6206C307.556 81.6206 309.236 86.4206 309.236 90.9539C309.236 99.2473 303.902 106.047 303.902 114.101L303.902 118.954C303.902 120.368 303.341 121.725 302.34 122.725C301.34 123.725 299.984 124.287 298.569 124.287C297.155 124.287 295.798 123.725 294.798 122.725C293.798 121.725 293.236 120.368 293.236 118.954ZM335.902 129.621L335.902 123.274C335.902 117.621 338.649 114.954 338.569 108.287C338.489 101.034 334.596 92.2873 326.569 92.2873C321.582 92.2873 319.902 97.0873 319.902 101.621C319.902 109.914 325.236 116.714 325.236 124.767L325.236 129.621C325.236 131.035 325.798 132.392 326.798 133.392C327.798 134.392 329.155 134.954 330.569 134.954C331.984 134.954 333.34 134.392 334.34 133.392C335.341 132.392 335.902 131.035 335.902 129.621Z" stroke="white" stroke-width="2" stroke-linecap="round" stroke-linejoin="round"/>
<path d="M414.805 69.9078L425.472 69.9078M382.805 59.2412L393.472 59.2412M382.805 67.2412L382.805 60.8945C382.805 55.2412 380.058 52.5745 380.138 45.9078C380.218 38.6545 384.112 29.9078 392.138 29.9078C397.125 29.9078 398.805 34.7078 398.805 39.2412C398.805 47.5345 393.472 54.3345 393.472 62.3878L393.472 67.2412C393.472 68.6557 392.91 70.0122 391.91 71.0124C390.909 72.0126 389.553 72.5745 388.138 72.5745C386.724 72.5745 385.367 72.0126 384.367 71.0124C383.367 70.0122 382.805 68.6557 382.805 67.2412ZM425.472 77.9078L425.472 71.5612C425.472 65.9078 428.218 63.2412 428.138 56.5745C428.058 49.3212 424.165 40.5745 416.138 40.5745C411.152 40.5745 409.472 45.3745 409.472 49.9078C409.472 58.2012 414.805 65.0012 414.805 73.0545L414.805 77.9078C414.805 79.3223 415.367 80.6789 416.367 81.6791C417.367 82.6793 418.724 83.2412 420.138 83.2412C421.553 83.2412 422.909 82.6793 423.91 81.6791C424.91 80.6789 425.472 79.3223 425.472 77.9078Z" stroke="white" stroke-width="2" stroke-linecap="round" stroke-linejoin="round"/>
<path d="M100.241 352.472L110.908 352.472M68.2409 341.805L78.9076 341.805M68.2409 349.805L68.2409 343.458C68.2409 337.805 65.4942 335.138 65.5742 328.472C65.6542 321.218 69.5476 312.472 77.5742 312.472C82.5609 312.472 84.2409 317.272 84.2409 321.805C84.2409 330.098 78.9076 336.898 78.9076 344.952L78.9076 349.805C78.9076 351.22 78.3457 352.576 77.3455 353.576C76.3453 354.577 74.9887 355.138 73.5742 355.138C72.1597 355.138 70.8032 354.577 69.803 353.576C68.8028 352.576 68.2409 351.22 68.2409 349.805ZM110.908 360.472L110.908 354.125C110.908 348.472 113.654 345.805 113.574 339.138C113.494 331.885 109.601 323.138 101.574 323.138C96.5876 323.138 94.9076 327.938 94.9076 332.472C94.9076 340.765 100.241 347.565 100.241 355.618L100.241 360.472C100.241 361.886 100.803 363.243 101.803 364.243C102.803 365.243 104.16 365.805 105.574 365.805C106.989 365.805 108.345 365.243 109.345 364.243C110.346 363.243 110.908 361.886 110.908 360.472Z" stroke="white" stroke-width="2" stroke-linecap="round" stroke-linejoin="round"/>
<path d="M189.81 300.759L200.477 300.759M157.81 290.092L168.477 290.092M157.81 298.092L157.81 291.746C157.81 286.092 155.064 283.426 155.144 276.759C155.224 269.506 159.117 260.759 167.144 260.759C172.13 260.759 173.81 265.559 173.81 270.092C173.81 278.386 168.477 285.186 168.477 293.239L168.477 298.092C168.477 299.507 167.915 300.863 166.915 301.864C165.915 302.864 164.558 303.426 163.144 303.426C161.729 303.426 160.373 302.864 159.372 301.864C158.372 300.863 157.81 299.507 157.81 298.092ZM200.477 308.759L200.477 302.412C200.477 296.759 203.224 294.092 203.144 287.426C203.064 280.172 199.17 271.426 191.144 271.426C186.157 271.426 184.477 276.226 184.477 280.759C184.477 289.052 189.81 295.852 189.81 303.906L189.81 308.759C189.81 310.174 190.372 311.53 191.372 312.53C192.373 313.53 193.729 314.092 195.144 314.092C196.558 314.092 197.915 313.53 198.915 312.53C199.915 311.53 200.477 310.174 200.477 308.759Z" stroke="white" stroke-width="2" stroke-linecap="round" stroke-linejoin="round"/>
<path d="M279.379 249.046L290.046 249.046M247.379 238.38L258.046 238.38M247.379 246.38L247.379 240.033C247.379 234.38 244.633 231.713 244.713 225.046C244.793 217.793 248.686 209.046 256.713 209.046C261.699 209.046 263.379 213.846 263.379 218.38C263.379 226.673 258.046 233.473 258.046 241.526L258.046 246.38C258.046 247.794 257.484 249.151 256.484 250.151C255.484 251.151 254.127 251.713 252.713 251.713C251.298 251.713 249.942 251.151 248.941 250.151C247.941 249.151 247.379 247.794 247.379 246.38ZM290.046 257.046L290.046 250.7C290.046 245.046 292.793 242.38 292.713 235.713C292.633 228.46 288.739 219.713 280.713 219.713C275.726 219.713 274.046 224.513 274.046 229.046C274.046 237.34 279.379 244.14 279.379 252.193L279.379 257.046C279.379 258.461 279.941 259.817 280.941 260.817C281.942 261.818 283.298 262.38 284.713 262.38C286.127 262.38 287.484 261.818 288.484 260.817C289.484 259.817 290.046 258.461 290.046 257.046Z" stroke="white" stroke-width="2" stroke-linecap="round" stroke-linejoin="round"/>
<path d="M368.949 197.333L379.615 197.333M336.949 186.667L347.615 186.667M336.949 194.667L336.949 188.32C336.949 182.667 334.202 180 334.282 173.333C334.362 166.08 338.255 157.333 346.282 157.333C351.269 157.333 352.949 162.133 352.949 166.667C352.949 174.96 347.615 181.76 347.615 189.813L347.615 194.667C347.615 196.081 347.053 197.438 346.053 198.438C345.053 199.438 343.696 200 342.282 200C340.867 200 339.511 199.438 338.511 198.438C337.511 197.438 336.949 196.081 336.949 194.667ZM379.615 205.333L379.615 198.987C379.615 193.333 382.362 190.667 382.282 184C382.202 176.747 378.309 168 370.282 168C365.295 168 363.615 172.8 363.615 177.333C363.615 185.627 368.949 192.427 368.949 200.48L368.949 205.333C368.949 206.748 369.511 208.104 370.511 209.105C371.511 210.105 372.867 210.667 374.282 210.667C375.696 210.667 377.053 210.105 378.053 209.105C379.053 208.104 379.615 206.748 379.615 205.333Z" stroke="white" stroke-width="2" stroke-linecap="round" stroke-linejoin="round"/>
<path d="M458.518 145.621L469.184 145.621M426.518 134.954L437.184 134.954M426.518 142.954L426.518 136.607C426.518 130.954 423.771 128.287 423.851 121.621C423.931 114.367 427.824 105.621 435.851 105.621C440.838 105.621 442.518 110.421 442.518 114.954C442.518 123.247 437.184 130.047 437.184 138.101L437.184 142.954C437.184 144.368 436.623 145.725 435.622 146.725C434.622 147.725 433.266 148.287 431.851 148.287C430.437 148.287 429.08 147.725 428.08 146.725C427.08 145.725 426.518 144.368 426.518 142.954ZM469.184 153.621L469.184 147.274C469.184 141.621 471.931 138.954 471.851 132.287C471.771 125.034 467.878 116.287 459.851 116.287C454.864 116.287 453.184 121.087 453.184 125.621C453.184 133.914 458.518 140.714 458.518 148.767L458.518 153.621C458.518 155.035 459.08 156.392 460.08 157.392C461.08 158.392 462.437 158.954 463.851 158.954C465.266 158.954 466.622 158.392 467.622 157.392C468.623 156.392 469.184 155.035 469.184 153.621Z" stroke="white" stroke-width="2" stroke-linecap="round" stroke-linejoin="round"/>
<path d="M278.308 350.615L288.974 350.615M246.308 339.949L256.974 339.949M246.308 347.949L246.308 341.602C246.308 335.949 243.561 333.282 243.641 326.615C243.721 319.362 247.614 310.615 255.641 310.615C260.628 310.615 262.308 315.415 262.308 319.949C262.308 328.242 256.974 335.042 256.974 343.095L256.974 347.949C256.974 349.363 256.412 350.72 255.412 351.72C254.412 352.72 253.055 353.282 251.641 353.282C250.226 353.282 248.87 352.72 247.87 351.72C246.869 350.72 246.308 349.363 246.308 347.949ZM288.974 358.615L288.974 352.269C288.974 346.615 291.721 343.949 291.641 337.282C291.561 330.029 287.668 321.282 279.641 321.282C274.654 321.282 272.974 326.082 272.974 330.615C272.974 338.909 278.308 345.709 278.308 353.762L278.308 358.615C278.308 360.03 278.869 361.387 279.87 362.387C280.87 363.387 282.226 363.949 283.641 363.949C285.055 363.949 286.412 363.387 287.412 362.387C288.412 361.387 288.974 360.03 288.974 358.615Z" stroke="white" stroke-width="2" stroke-linecap="round" stroke-linejoin="round"/>
<path d="M367.877 298.903L378.544 298.903M335.877 288.236L346.544 288.236M335.877 296.236L335.877 289.889C335.877 284.236 333.13 281.569 333.21 274.903C333.29 267.649 337.184 258.903 345.21 258.903C350.197 258.903 351.877 263.703 351.877 268.236C351.877 276.529 346.544 283.329 346.544 291.383L346.544 296.236C346.544 297.65 345.982 299.007 344.981 300.007C343.981 301.007 342.625 301.569 341.21 301.569C339.796 301.569 338.439 301.007 337.439 300.007C336.439 299.007 335.877 297.65 335.877 296.236ZM378.544 306.903L378.544 300.556C378.544 294.903 381.29 292.236 381.21 285.569C381.13 278.316 377.237 269.569 369.21 269.569C364.224 269.569 362.544 274.369 362.544 278.903C362.544 287.196 367.877 293.996 367.877 302.049L367.877 306.903C367.877 308.317 368.439 309.674 369.439 310.674C370.439 311.674 371.796 312.236 373.21 312.236C374.625 312.236 375.981 311.674 376.981 310.674C377.982 309.674 378.544 308.317 378.544 306.903Z" stroke="white" stroke-width="2" stroke-linecap="round" stroke-linejoin="round"/>
<path d="M457.446 247.19L468.113 247.19M425.446 236.523L436.113 236.523M425.446 244.523L425.446 238.176C425.446 232.523 422.699 229.856 422.779 223.19C422.859 215.936 426.753 207.19 434.779 207.19C439.766 207.19 441.446 211.99 441.446 216.523C441.446 224.816 436.113 231.616 436.113 239.67L436.113 244.523C436.113 245.938 435.551 247.294 434.551 248.294C433.55 249.295 432.194 249.856 430.779 249.856C429.365 249.856 428.008 249.295 427.008 248.294C426.008 247.294 425.446 245.938 425.446 244.523ZM468.113 255.19L468.113 248.843C468.113 243.19 470.859 240.523 470.779 233.856C470.699 226.603 466.806 217.856 458.779 217.856C453.793 217.856 452.113 222.656 452.113 227.19C452.113 235.483 457.446 242.283 457.446 250.336L457.446 255.19C457.446 256.604 458.008 257.961 459.008 258.961C460.008 259.961 461.365 260.523 462.779 260.523C464.194 260.523 465.55 259.961 466.551 258.961C467.551 257.961 468.113 256.604 468.113 255.19Z" stroke="white" stroke-width="2" stroke-linecap="round" stroke-linejoin="round"/>
</g>
<defs>
<clipPath id="clip0_2028_4259">
<rect width="450" height="320" fill="white"/>
</clipPath>
</defs>
</svg>
