<svg width="450" height="320" viewBox="0 0 450 320" fill="none" xmlns="http://www.w3.org/2000/svg">
<g clip-path="url(#clip0_2028_2667)">
<rect width="450" height="320" fill="#121212"/>
<path d="M37.3387 44.2874L72.0054 44.2874M37.3387 60.2874L72.0054 60.2874M37.3387 76.2874L72.0054 76.2874M24.0054 44.2874L24.032 44.2874M24.0054 60.2874L24.032 60.2874M24.0054 76.2874L24.032 76.2874" stroke="white" stroke-width="2" stroke-linecap="round" stroke-linejoin="round"/>
<path d="M126.908 -7.42554L161.575 -7.42554M126.908 8.57446L161.575 8.57446M126.908 24.5745L161.575 24.5745M113.575 -7.42554L113.601 -7.42554M113.575 8.57446L113.601 8.57446M113.575 24.5745L113.601 24.5745" stroke="white" stroke-width="2" stroke-linecap="round" stroke-linejoin="round"/>
<path d="M-8.51774 171.713L26.1489 171.713M-8.51774 187.713L26.1489 187.713M-8.51774 203.713L26.1489 203.713M-21.8511 171.713L-21.8244 171.713M-21.8511 187.713L-21.8244 187.713M-21.8511 203.713L-21.8244 203.713" stroke="white" stroke-width="2" stroke-linecap="round" stroke-linejoin="round"/>
<path d="M81.0516 120L115.718 120M81.0516 136L115.718 136M81.0516 152L115.718 152M67.7183 120L67.7449 120M67.7183 136L67.7449 136M67.7183 152L67.7449 152" stroke="white" stroke-width="2" stroke-linecap="round" stroke-linejoin="round"/>
<path d="M170.62 68.2874L205.287 68.2874M170.62 84.2874L205.287 84.2874M170.62 100.287L205.287 100.287M157.287 68.2874L157.314 68.2874M157.287 84.2874L157.314 84.2874M157.287 100.287L157.314 100.287" stroke="white" stroke-width="2" stroke-linecap="round" stroke-linejoin="round"/>
<path d="M260.19 16.5745L294.856 16.5745M260.19 32.5745L294.856 32.5745M260.19 48.5745L294.856 48.5745M246.856 16.5745L246.883 16.5745M246.856 32.5745L246.883 32.5745M246.856 48.5745L246.883 48.5745" stroke="white" stroke-width="2" stroke-linecap="round" stroke-linejoin="round"/>
<path d="M35.1952 247.426L69.8618 247.426M35.1951 263.426L69.8618 263.426M35.1951 279.426L69.8618 279.426M21.8618 247.426L21.8885 247.426M21.8618 263.426L21.8885 263.426M21.8618 279.426L21.8885 279.426" stroke="white" stroke-width="2" stroke-linecap="round" stroke-linejoin="round"/>
<path d="M124.764 195.713L159.431 195.713M124.764 211.713L159.431 211.713M124.764 227.713L159.431 227.713M111.431 195.713L111.458 195.713M111.431 211.713L111.458 211.713M111.431 227.713L111.458 227.713" stroke="white" stroke-width="2" stroke-linecap="round" stroke-linejoin="round"/>
<path d="M214.333 144L249 144M214.333 160L249 160M214.333 176L249 176M201 144L201.027 144M201 160L201.027 160M201 176L201.027 176" stroke="white" stroke-width="2" stroke-linecap="round" stroke-linejoin="round"/>
<path d="M303.903 92.2874L338.569 92.2874M303.903 108.287L338.569 108.287M303.903 124.287L338.569 124.287M290.569 92.2874L290.596 92.2874M290.569 108.287L290.596 108.287M290.569 124.287L290.596 124.287" stroke="white" stroke-width="2" stroke-linecap="round" stroke-linejoin="round"/>
<path d="M393.472 40.5745L428.139 40.5745M393.472 56.5745L428.139 56.5745M393.472 72.5745L428.139 72.5745M380.139 40.5745L380.165 40.5745M380.139 56.5745L380.165 56.5745M380.139 72.5745L380.165 72.5745" stroke="white" stroke-width="2" stroke-linecap="round" stroke-linejoin="round"/>
<path d="M168.477 271.426L203.144 271.426M168.477 287.426L203.144 287.426M168.477 303.426L203.144 303.426M155.144 271.426L155.17 271.426M155.144 287.426L155.17 287.426M155.144 303.426L155.17 303.426" stroke="white" stroke-width="2" stroke-linecap="round" stroke-linejoin="round"/>
<path d="M258.046 219.713L292.713 219.713M258.046 235.713L292.713 235.713M258.046 251.713L292.713 251.713M244.713 219.713L244.74 219.713M244.713 235.713L244.74 235.713M244.713 251.713L244.74 251.713" stroke="white" stroke-width="2" stroke-linecap="round" stroke-linejoin="round"/>
<path d="M347.616 168L382.282 168M347.616 184L382.282 184M347.616 200L382.282 200M334.282 168L334.309 168M334.282 184L334.309 184M334.282 200L334.309 200" stroke="white" stroke-width="2" stroke-linecap="round" stroke-linejoin="round"/>
<path d="M437.185 116.287L471.852 116.287M437.185 132.287L471.852 132.287M437.185 148.287L471.852 148.287M423.852 116.287L423.878 116.287M423.852 132.287L423.878 132.287M423.852 148.287L423.878 148.287" stroke="white" stroke-width="2" stroke-linecap="round" stroke-linejoin="round"/>
<path d="M346.544 269.569L381.21 269.569M346.544 285.569L381.21 285.569M346.544 301.569L381.21 301.569M333.21 269.569L333.237 269.569M333.21 285.569L333.237 285.569M333.21 301.569L333.237 301.569" stroke="white" stroke-width="2" stroke-linecap="round" stroke-linejoin="round"/>
<path d="M436.113 217.856L470.78 217.856M436.113 233.856L470.78 233.856M436.113 249.856L470.78 249.856M422.78 217.856L422.806 217.856M422.78 233.856L422.806 233.856M422.78 249.856L422.806 249.856" stroke="white" stroke-width="2" stroke-linecap="round" stroke-linejoin="round"/>
</g>
<defs>
<clipPath id="clip0_2028_2667">
<rect width="450" height="320" fill="white"/>
</clipPath>
</defs>
</svg>
