<svg width="450" height="320" viewBox="0 0 450 320" fill="none" xmlns="http://www.w3.org/2000/svg">
<g clip-path="url(#clip0_2028_1232)">
<rect width="450" height="320" fill="#121212"/>
<path d="M21.3384 36.2872L74.6717 36.2872M72.005 36.2872L72.005 65.6205C72.005 67.035 71.4431 68.3915 70.4429 69.3917C69.4427 70.3919 68.0862 70.9538 66.6717 70.9538L29.3384 70.9538C27.9239 70.9538 26.5673 70.3919 25.5671 69.3917C24.5669 68.3915 24.005 67.035 24.005 65.6205L24.005 36.2872M34.6717 84.2872L48.005 70.9538L61.3384 84.2872" stroke="white" stroke-width="2" stroke-linecap="round" stroke-linejoin="round"/>
<path d="M110.907 -15.4256L164.241 -15.4256M161.574 -15.4256L161.574 13.9077C161.574 15.3222 161.012 16.6788 160.012 17.679C159.012 18.6792 157.655 19.2411 156.241 19.2411L118.907 19.2411C117.493 19.2411 116.136 18.6792 115.136 17.679C114.136 16.6788 113.574 15.3222 113.574 13.9077L113.574 -15.4256M124.241 32.5744L137.574 19.2411L150.907 32.5744" stroke="white" stroke-width="2" stroke-linecap="round" stroke-linejoin="round"/>
<path d="M-24.5181 163.713L28.8153 163.713M26.1486 163.713L26.1486 193.046C26.1486 194.461 25.5867 195.817 24.5865 196.817C23.5863 197.818 22.2298 198.379 20.8153 198.379L-16.5181 198.379C-17.9326 198.379 -19.2891 197.818 -20.2893 196.817C-21.2895 195.817 -21.8514 194.461 -21.8514 193.046L-21.8514 163.713M-11.1847 211.713L2.1486 198.379L15.4819 211.713" stroke="white" stroke-width="2" stroke-linecap="round" stroke-linejoin="round"/>
<path d="M65.051 112L118.384 112M115.718 112L115.718 141.333C115.718 142.748 115.156 144.104 114.156 145.105C113.155 146.105 111.799 146.667 110.384 146.667L73.051 146.667C71.6365 146.667 70.28 146.105 69.2798 145.105C68.2796 144.104 67.7177 142.748 67.7177 141.333L67.7177 112M78.3844 160L91.7177 146.667L105.051 160" stroke="white" stroke-width="2" stroke-linecap="round" stroke-linejoin="round"/>
<path d="M154.62 60.2872L207.954 60.2872M205.287 60.2872L205.287 89.6205C205.287 91.035 204.725 92.3915 203.725 93.3917C202.725 94.3919 201.368 94.9538 199.954 94.9538L162.62 94.9538C161.206 94.9538 159.849 94.3919 158.849 93.3917C157.849 92.3915 157.287 91.035 157.287 89.6205L157.287 60.2872M167.954 108.287L181.287 94.9538L194.62 108.287" stroke="white" stroke-width="2" stroke-linecap="round" stroke-linejoin="round"/>
<path d="M244.189 8.5744L297.523 8.5744M294.856 8.5744L294.856 37.9077C294.856 39.3222 294.294 40.6788 293.294 41.679C292.294 42.6792 290.937 43.2411 289.523 43.2411L252.189 43.2411C250.775 43.2411 249.418 42.6792 248.418 41.679C247.418 40.6788 246.856 39.3222 246.856 37.9077L246.856 8.5744M257.523 56.5744L270.856 43.2411L284.189 56.5744" stroke="white" stroke-width="2" stroke-linecap="round" stroke-linejoin="round"/>
<path d="M333.759 -43.1384L387.092 -43.1384M384.425 -43.1384L384.425 -13.8051C384.425 -12.3906 383.864 -11.0341 382.863 -10.0339C381.863 -9.03366 380.507 -8.47176 379.092 -8.47176L341.759 -8.47176C340.344 -8.47176 338.988 -9.03366 337.988 -10.0339C336.987 -11.0341 336.425 -12.3906 336.425 -13.8051L336.425 -43.1384M347.092 4.86157L360.425 -8.47176L373.759 4.86157" stroke="white" stroke-width="2" stroke-linecap="round" stroke-linejoin="round"/>
<path d="M19.1948 239.426L72.5282 239.426M69.8615 239.426L69.8615 268.759C69.8615 270.173 69.2996 271.53 68.2994 272.53C67.2992 273.53 65.9426 274.092 64.5282 274.092L27.1948 274.092C25.7803 274.092 24.4238 273.53 23.4236 272.53C22.4234 271.53 21.8615 270.173 21.8615 268.759L21.8615 239.426M32.5282 287.426L45.8615 274.092L59.1948 287.426" stroke="white" stroke-width="2" stroke-linecap="round" stroke-linejoin="round"/>
<path d="M108.764 187.713L162.097 187.713M159.431 187.713L159.431 217.046C159.431 218.461 158.869 219.817 157.868 220.817C156.868 221.818 155.512 222.379 154.097 222.379L116.764 222.379C115.349 222.379 113.993 221.818 112.993 220.817C111.992 219.817 111.431 218.461 111.431 217.046L111.431 187.713M122.097 235.713L135.431 222.379L148.764 235.713" stroke="white" stroke-width="2" stroke-linecap="round" stroke-linejoin="round"/>
<path d="M198.333 136L251.667 136M249 136L249 165.333C249 166.748 248.438 168.104 247.438 169.105C246.438 170.105 245.081 170.667 243.667 170.667L206.333 170.667C204.919 170.667 203.562 170.105 202.562 169.105C201.562 168.104 201 166.748 201 165.333L201 136M211.667 184L225 170.667L238.333 184" stroke="white" stroke-width="2" stroke-linecap="round" stroke-linejoin="round"/>
<path d="M287.902 84.2872L341.236 84.2872M338.569 84.2872L338.569 113.621C338.569 115.035 338.007 116.392 337.007 117.392C336.007 118.392 334.65 118.954 333.236 118.954L295.902 118.954C294.488 118.954 293.131 118.392 292.131 117.392C291.131 116.392 290.569 115.035 290.569 113.621L290.569 84.2872M301.236 132.287L314.569 118.954L327.902 132.287" stroke="white" stroke-width="2" stroke-linecap="round" stroke-linejoin="round"/>
<path d="M377.472 32.5744L430.805 32.5744M428.138 32.5744L428.138 61.9077C428.138 63.3222 427.576 64.6788 426.576 65.679C425.576 66.6792 424.219 67.2411 422.805 67.2411L385.472 67.2411C384.057 67.2411 382.701 66.6792 381.7 65.679C380.7 64.6788 380.138 63.3222 380.138 61.9077L380.138 32.5744M390.805 80.5744L404.138 67.2411L417.472 80.5744" stroke="white" stroke-width="2" stroke-linecap="round" stroke-linejoin="round"/>
<path d="M62.9075 315.138L116.241 315.138M113.574 315.138L113.574 344.472C113.574 345.886 113.012 347.243 112.012 348.243C111.012 349.243 109.655 349.805 108.241 349.805L70.9075 349.805C69.493 349.805 68.1364 349.243 67.1362 348.243C66.136 347.243 65.5741 345.886 65.5741 344.472L65.5741 315.138M76.2408 363.138L89.5741 349.805L102.907 363.138" stroke="white" stroke-width="2" stroke-linecap="round" stroke-linejoin="round"/>
<path d="M152.477 263.426L205.81 263.426M203.143 263.426L203.143 292.759C203.143 294.173 202.582 295.53 201.581 296.53C200.581 297.53 199.225 298.092 197.81 298.092L160.477 298.092C159.062 298.092 157.706 297.53 156.706 296.53C155.705 295.53 155.143 294.173 155.143 292.759L155.143 263.426M165.81 311.426L179.143 298.092L192.477 311.426" stroke="white" stroke-width="2" stroke-linecap="round" stroke-linejoin="round"/>
<path d="M242.046 211.713L295.379 211.713M292.713 211.713L292.713 241.046C292.713 242.461 292.151 243.817 291.15 244.817C290.15 245.818 288.794 246.379 287.379 246.379L250.046 246.379C248.631 246.379 247.275 245.818 246.275 244.817C245.274 243.817 244.713 242.461 244.713 241.046L244.713 211.713M255.379 259.713L268.713 246.379L282.046 259.713" stroke="white" stroke-width="2" stroke-linecap="round" stroke-linejoin="round"/>
<path d="M331.615 160L384.949 160M382.282 160L382.282 189.333C382.282 190.748 381.72 192.104 380.72 193.105C379.72 194.105 378.363 194.667 376.949 194.667L339.615 194.667C338.201 194.667 336.844 194.105 335.844 193.105C334.844 192.104 334.282 190.748 334.282 189.333L334.282 160M344.949 208L358.282 194.667L371.615 208" stroke="white" stroke-width="2" stroke-linecap="round" stroke-linejoin="round"/>
<path d="M421.184 108.287L474.518 108.287M471.851 108.287L471.851 137.621C471.851 139.035 471.289 140.392 470.289 141.392C469.289 142.392 467.932 142.954 466.518 142.954L429.184 142.954C427.77 142.954 426.413 142.392 425.413 141.392C424.413 140.392 423.851 139.035 423.851 137.621L423.851 108.287M434.518 156.287L447.851 142.954L461.184 156.287" stroke="white" stroke-width="2" stroke-linecap="round" stroke-linejoin="round"/>
<path d="M285.759 287.426L339.092 287.426M336.425 287.426L336.425 316.759C336.425 318.173 335.864 319.53 334.863 320.53C333.863 321.53 332.507 322.092 331.092 322.092L293.759 322.092C292.344 322.092 290.988 321.53 289.988 320.53C288.987 319.53 288.425 318.173 288.425 316.759L288.425 287.426M299.092 335.426L312.425 322.092L325.759 335.426" stroke="white" stroke-width="2" stroke-linecap="round" stroke-linejoin="round"/>
<path d="M375.328 235.713L428.661 235.713M425.995 235.713L425.995 265.046C425.995 266.461 425.433 267.817 424.432 268.817C423.432 269.818 422.076 270.379 420.661 270.379L383.328 270.379C381.913 270.379 380.557 269.818 379.557 268.817C378.556 267.817 377.995 266.461 377.995 265.046L377.995 235.713M388.661 283.713L401.995 270.379L415.328 283.713" stroke="white" stroke-width="2" stroke-linecap="round" stroke-linejoin="round"/>
</g>
<defs>
<clipPath id="clip0_2028_1232">
<rect width="450" height="320" fill="white"/>
</clipPath>
</defs>
</svg>
