<svg width="450" height="320" viewBox="0 0 450 320" fill="none" xmlns="http://www.w3.org/2000/svg">
<g clip-path="url(#clip0_2028_1324)">
<rect width="450" height="320" fill="#121212"/>
<path d="M26.2718 51.2739C25.8826 49.5206 25.9424 47.6975 26.4456 45.9734C26.9488 44.2494 27.8791 42.6804 29.1504 41.4118C30.4217 40.1432 31.9926 39.2161 33.7177 38.7165C35.4428 38.2169 37.266 38.161 39.0185 38.5539C39.983 37.0453 41.3118 35.8039 42.8824 34.944C44.4529 34.084 46.2146 33.6333 48.0052 33.6333C49.7957 33.6333 51.5574 34.084 53.128 34.944C54.6985 35.8039 56.0273 37.0453 56.9918 38.5539C58.7469 38.1593 60.5733 38.215 62.3011 38.7158C64.029 39.2166 65.602 40.1462 66.8741 41.4183C68.1461 42.6903 69.0758 44.2634 69.5766 45.9912C70.0774 47.719 70.1331 49.5454 69.7385 51.3005C71.247 52.2651 72.4885 53.5939 73.3484 55.1644C74.2083 56.7349 74.6591 58.4967 74.6591 60.2872C74.6591 62.0777 74.2083 63.8395 73.3484 65.41C72.4885 66.9805 71.247 68.3093 69.7385 69.2739C70.1314 71.0263 70.0754 72.8496 69.5758 74.5747C69.0762 76.2997 68.1492 77.8707 66.8806 79.142C65.612 80.4132 64.0429 81.3436 62.3189 81.8468C60.5949 82.35 58.7717 82.4098 57.0185 82.0205C56.0552 83.5349 54.7254 84.7816 53.1522 85.6454C51.5789 86.5092 49.8132 86.962 48.0185 86.962C46.2237 86.962 44.458 86.5092 42.8848 85.6454C41.3116 84.7816 39.9818 83.5349 39.0185 82.0205C37.266 82.4134 35.4428 82.3575 33.7177 81.8579C31.9926 81.3583 30.4217 80.4312 29.1504 79.1626C27.8791 77.894 26.9488 76.325 26.4456 74.601C25.9424 72.877 25.8826 71.0538 26.2718 69.3005C24.7517 68.3385 23.4996 67.0077 22.6319 65.4318C21.7643 63.8559 21.3093 62.0862 21.3093 60.2872C21.3093 58.4883 21.7643 56.7185 22.6319 55.1426C23.4996 53.5667 24.7517 52.2359 26.2718 51.2739Z" stroke="white" stroke-width="2" stroke-linecap="round" stroke-linejoin="round"/>
<path d="M58.6717 49.6206L42.6717 49.6206C41.2572 49.6206 39.9007 50.1825 38.9005 51.1827C37.9003 52.1829 37.3384 53.5394 37.3384 54.9539C37.3384 56.3684 37.9003 57.7249 38.9005 58.7251C39.9007 59.7253 41.2572 60.2872 42.6717 60.2872L53.3384 60.2872C54.7529 60.2872 56.1094 60.8491 57.1096 61.8493C58.1098 62.8495 58.6717 64.2061 58.6717 65.6206C58.6717 67.0351 58.1098 68.3916 57.1096 69.3918C56.1094 70.392 54.7529 70.9539 53.3384 70.9539L37.3384 70.9539M48.005 76.2872L48.005 44.2872" stroke="white" stroke-width="2" stroke-linecap="round" stroke-linejoin="round"/>
<path d="M115.841 -0.438896C115.452 -2.19216 115.511 -4.01531 116.015 -5.73932C116.518 -7.46333 117.448 -9.03237 118.719 -10.301C119.991 -11.5696 121.562 -12.4966 123.287 -12.9962C125.012 -13.4958 126.835 -13.5518 128.588 -13.1589C129.552 -14.6674 130.881 -15.9089 132.451 -16.7688C134.022 -17.6287 135.784 -18.0795 137.574 -18.0795C139.365 -18.0795 141.127 -17.6287 142.697 -16.7688C144.268 -15.9089 145.596 -14.6674 146.561 -13.1589C148.316 -13.5535 150.142 -13.4978 151.87 -12.997C153.598 -12.4962 155.171 -11.5665 156.443 -10.2945C157.715 -9.02245 158.645 -7.44937 159.146 -5.72156C159.646 -3.99375 159.702 -2.16734 159.308 -0.412228C160.816 0.55233 162.058 1.88111 162.917 3.45164C163.777 5.02217 164.228 6.7839 164.228 8.57444C164.228 10.365 163.777 12.1267 162.917 13.6972C162.058 15.2678 160.816 16.5965 159.308 17.5611C159.7 19.3136 159.645 21.1368 159.145 22.8619C158.645 24.5869 157.718 26.1579 156.45 27.4292C155.181 28.7004 153.612 29.6308 151.888 30.134C150.164 30.6372 148.341 30.697 146.588 30.3078C145.624 31.8221 144.294 33.0689 142.721 33.9326C141.148 34.7964 139.382 35.2492 137.588 35.2492C135.793 35.2492 134.027 34.7964 132.454 33.9326C130.881 33.0689 129.551 31.8221 128.588 30.3078C126.835 30.7007 125.012 30.6447 123.287 30.1451C121.562 29.6455 119.991 28.7184 118.719 27.4499C117.448 26.1813 116.518 24.6122 116.015 22.8882C115.511 21.1642 115.452 19.341 115.841 17.5878C114.321 16.6258 113.069 15.2949 112.201 13.719C111.333 12.1431 110.878 10.3734 110.878 8.57444C110.878 6.77549 111.333 5.00576 112.201 3.42987C113.069 1.85398 114.321 0.523123 115.841 -0.438896Z" stroke="white" stroke-width="2" stroke-linecap="round" stroke-linejoin="round"/>
<path d="M148.241 -2.0922L132.241 -2.0922C130.826 -2.0922 129.47 -1.5303 128.47 -0.530105C127.469 0.470089 126.907 1.82664 126.907 3.24113C126.907 4.65562 127.469 6.01217 128.47 7.01237C129.47 8.01256 130.826 8.57446 132.241 8.57446L142.907 8.57446C144.322 8.57446 145.679 9.13637 146.679 10.1366C147.679 11.1368 148.241 12.4933 148.241 13.9078C148.241 15.3223 147.679 16.6788 146.679 17.679C145.679 18.6792 144.322 19.2411 142.907 19.2411L126.907 19.2411M137.574 24.5745L137.574 -7.42554" stroke="white" stroke-width="2" stroke-linecap="round" stroke-linejoin="round"/>
<path d="M-19.5846 178.7C-19.9738 176.946 -19.9141 175.123 -19.4109 173.399C-18.9077 171.675 -17.9773 170.106 -16.706 168.837C-15.4348 167.569 -13.8638 166.642 -12.1387 166.142C-10.4137 165.643 -8.5904 165.587 -6.83796 165.98C-5.8734 164.471 -4.54462 163.23 -2.97409 162.37C-1.40356 161.51 0.358168 161.059 2.14871 161.059C3.93925 161.059 5.70098 161.51 7.27151 162.37C8.84203 163.23 10.1708 164.471 11.1354 165.98C12.8905 165.585 14.7169 165.641 16.4447 166.141C18.1725 166.642 19.7456 167.572 21.0176 168.844C22.2897 170.116 23.2193 171.689 23.7201 173.417C24.221 175.145 24.2766 176.971 23.882 178.726C25.3906 179.691 26.632 181.02 27.4919 182.59C28.3519 184.161 28.8026 185.922 28.8026 187.713C28.8026 189.503 28.3519 191.265 27.4919 192.836C26.632 194.406 25.3906 195.735 23.882 196.7C24.2749 198.452 24.219 200.275 23.7194 202C23.2198 203.725 22.2927 205.296 21.0241 206.568C19.7555 207.839 18.1865 208.769 16.4625 209.272C14.7385 209.776 12.9153 209.835 11.162 209.446C10.1987 210.961 8.86891 212.207 7.29571 213.071C5.7225 213.935 3.95678 214.388 2.16204 214.388C0.367302 214.388 -1.39842 213.935 -2.97163 213.071C-4.54484 212.207 -5.87466 210.961 -6.83796 209.446C-8.5904 209.839 -10.4137 209.783 -12.1387 209.284C-13.8638 208.784 -15.4348 207.857 -16.706 206.588C-17.9773 205.32 -18.9077 203.751 -19.4109 202.027C-19.9141 200.303 -19.9738 198.479 -19.5846 196.726C-21.1047 195.764 -22.3569 194.433 -23.2245 192.857C-24.0921 191.282 -24.5471 189.512 -24.5471 187.713C-24.5471 185.914 -24.0921 184.144 -23.2245 182.568C-22.3569 180.992 -21.1047 179.662 -19.5846 178.7Z" stroke="white" stroke-width="2" stroke-linecap="round" stroke-linejoin="round"/>
<path d="M12.8153 177.046L-3.18473 177.046C-4.59922 177.046 -5.95577 177.608 -6.95597 178.608C-7.95616 179.609 -8.51807 180.965 -8.51807 182.38C-8.51807 183.794 -7.95616 185.151 -6.95597 186.151C-5.95577 187.151 -4.59922 187.713 -3.18473 187.713L7.48193 187.713C8.89642 187.713 10.253 188.275 11.2532 189.275C12.2534 190.275 12.8153 191.632 12.8153 193.046C12.8153 194.461 12.2534 195.817 11.2532 196.817C10.253 197.818 8.89642 198.38 7.48193 198.38L-8.51807 198.38M2.1486 203.713L2.1486 171.713" stroke="white" stroke-width="2" stroke-linecap="round" stroke-linejoin="round"/>
<path d="M69.9845 126.987C69.5952 125.233 69.655 123.41 70.1582 121.686C70.6614 119.962 71.5918 118.393 72.863 117.125C74.1343 115.856 75.7053 114.929 77.4304 114.429C79.1554 113.93 80.9787 113.874 82.7311 114.267C83.6957 112.758 85.0245 111.517 86.595 110.657C88.1655 109.797 89.9273 109.346 91.7178 109.346C93.5083 109.346 95.2701 109.797 96.8406 110.657C98.4111 111.517 99.7399 112.758 100.704 114.267C102.46 113.872 104.286 113.928 106.014 114.429C107.742 114.929 109.315 115.859 110.587 117.131C111.859 118.403 112.788 119.976 113.289 121.704C113.79 123.432 113.846 125.258 113.451 127.013C114.96 127.978 116.201 129.307 117.061 130.877C117.921 132.448 118.372 134.209 118.372 136C118.372 137.791 117.921 139.552 117.061 141.123C116.201 142.693 114.96 144.022 113.451 144.987C113.844 146.739 113.788 148.562 113.288 150.287C112.789 152.012 111.862 153.583 110.593 154.855C109.325 156.126 107.756 157.056 106.032 157.56C104.308 158.063 102.484 158.123 100.731 157.733C99.7678 159.248 98.438 160.494 96.8648 161.358C95.2916 162.222 93.5259 162.675 91.7311 162.675C89.9364 162.675 88.1707 162.222 86.5975 161.358C85.0243 160.494 83.6944 159.248 82.7311 157.733C80.9787 158.126 79.1554 158.07 77.4304 157.571C75.7053 157.071 74.1343 156.144 72.863 154.875C71.5918 153.607 70.6614 152.038 70.1582 150.314C69.655 148.59 69.5952 146.767 69.9845 145.013C68.4644 144.051 67.2122 142.72 66.3446 141.145C65.477 139.569 65.022 137.799 65.022 136C65.022 134.201 65.477 132.431 66.3446 130.855C67.2122 129.28 68.4644 127.949 69.9845 126.987Z" stroke="white" stroke-width="2" stroke-linecap="round" stroke-linejoin="round"/>
<path d="M102.384 125.333L86.3844 125.333C84.9699 125.333 83.6133 125.895 82.6131 126.895C81.6129 127.896 81.051 129.252 81.051 130.667C81.051 132.081 81.6129 133.438 82.6131 134.438C83.6133 135.438 84.9699 136 86.3844 136L97.051 136C98.4655 136 99.8221 136.562 100.822 137.562C101.822 138.562 102.384 139.919 102.384 141.333C102.384 142.748 101.822 144.104 100.822 145.105C99.8221 146.105 98.4655 146.667 97.051 146.667L81.051 146.667M91.7177 152L91.7177 120" stroke="white" stroke-width="2" stroke-linecap="round" stroke-linejoin="round"/>
<path d="M159.554 75.2739C159.165 73.5206 159.224 71.6975 159.728 69.9734C160.231 68.2494 161.161 66.6804 162.432 65.4118C163.704 64.1432 165.275 63.2161 167 62.7165C168.725 62.2169 170.548 62.161 172.3 62.5539C173.265 61.0453 174.594 59.8039 176.164 58.944C177.735 58.084 179.497 57.6333 181.287 57.6333C183.078 57.6333 184.839 58.084 186.41 58.944C187.98 59.8039 189.309 61.0453 190.274 62.5539C192.029 62.1593 193.855 62.215 195.583 62.7158C197.311 63.2166 198.884 64.1462 200.156 65.4183C201.428 66.6903 202.358 68.2634 202.859 69.9912C203.359 71.719 203.415 73.5454 203.02 75.3005C204.529 76.2651 205.77 77.5939 206.63 79.1644C207.49 80.7349 207.941 82.4967 207.941 84.2872C207.941 86.0777 207.49 87.8395 206.63 89.41C205.77 90.9805 204.529 92.3093 203.02 93.2739C203.413 95.0263 203.357 96.8496 202.858 98.5747C202.358 100.3 201.431 101.871 200.163 103.142C198.894 104.413 197.325 105.344 195.601 105.847C193.877 106.35 192.054 106.41 190.3 106.021C189.337 107.535 188.007 108.782 186.434 109.645C184.861 110.509 183.095 110.962 181.3 110.962C179.506 110.962 177.74 110.509 176.167 109.645C174.594 108.782 173.264 107.535 172.3 106.021C170.548 106.413 168.725 106.357 167 105.858C165.275 105.358 163.704 104.431 162.432 103.163C161.161 101.894 160.231 100.325 159.728 98.601C159.224 96.877 159.165 95.0538 159.554 93.3005C158.034 92.3385 156.782 91.0077 155.914 89.4318C155.046 87.8559 154.591 86.0862 154.591 84.2872C154.591 82.4883 155.046 80.7185 155.914 79.1426C156.782 77.5667 158.034 76.2359 159.554 75.2739Z" stroke="white" stroke-width="2" stroke-linecap="round" stroke-linejoin="round"/>
<path d="M191.954 73.6206L175.954 73.6206C174.539 73.6206 173.183 74.1825 172.182 75.1827C171.182 76.1829 170.62 77.5394 170.62 78.9539C170.62 80.3684 171.182 81.7249 172.182 82.7251C173.183 83.7253 174.539 84.2872 175.954 84.2872L186.62 84.2872C188.035 84.2872 189.391 84.8491 190.392 85.8493C191.392 86.8495 191.954 88.2061 191.954 89.6206C191.954 91.0351 191.392 92.3916 190.392 93.3918C189.391 94.392 188.035 94.9539 186.62 94.9539L170.62 94.9539M181.287 100.287L181.287 68.2872" stroke="white" stroke-width="2" stroke-linecap="round" stroke-linejoin="round"/>
<path d="M249.123 23.5611C248.734 21.8078 248.793 19.9847 249.297 18.2607C249.8 16.5367 250.73 14.9676 252.001 13.699C253.273 12.4304 254.844 11.5034 256.569 11.0038C258.294 10.5042 260.117 10.4482 261.87 10.8411C262.834 9.33258 264.163 8.09113 265.733 7.2312C267.304 6.37127 269.066 5.92053 270.856 5.92053C272.647 5.92053 274.408 6.37127 275.979 7.2312C277.55 8.09113 278.878 9.33258 279.843 10.8411C281.598 10.4465 283.424 10.5022 285.152 11.003C286.88 11.5038 288.453 12.4335 289.725 13.7055C290.997 14.9775 291.927 16.5506 292.428 18.2784C292.928 20.0063 292.984 21.8327 292.59 23.5878C294.098 24.5523 295.34 25.8811 296.199 27.4516C297.059 29.0222 297.51 30.7839 297.51 32.5744C297.51 34.365 297.059 36.1267 296.199 37.6972C295.34 39.2678 294.098 40.5965 292.59 41.5611C292.982 43.3136 292.927 45.1368 292.427 46.8619C291.927 48.5869 291 50.1579 289.732 51.4292C288.463 52.7004 286.894 53.6308 285.17 54.134C283.446 54.6372 281.623 54.697 279.87 54.3078C278.906 55.8221 277.576 57.0689 276.003 57.9326C274.43 58.7964 272.664 59.2492 270.87 59.2492C269.075 59.2492 267.309 58.7964 265.736 57.9326C264.163 57.0689 262.833 55.8221 261.87 54.3078C260.117 54.7007 258.294 54.6447 256.569 54.1451C254.844 53.6455 253.273 52.7184 252.001 51.4499C250.73 50.1813 249.8 48.6122 249.297 46.8882C248.793 45.1642 248.734 43.341 249.123 41.5878C247.603 40.6258 246.351 39.2949 245.483 37.719C244.615 36.1431 244.16 34.3734 244.16 32.5744C244.16 30.7755 244.615 29.0058 245.483 27.4299C246.351 25.854 247.603 24.5231 249.123 23.5611Z" stroke="white" stroke-width="2" stroke-linecap="round" stroke-linejoin="round"/>
<path d="M281.523 21.9078L265.523 21.9078C264.108 21.9078 262.752 22.4697 261.752 23.4699C260.751 24.4701 260.189 25.8266 260.189 27.2411C260.189 28.6556 260.751 30.0122 261.752 31.0124C262.752 32.0126 264.108 32.5745 265.523 32.5745L276.189 32.5745C277.604 32.5745 278.96 33.1364 279.961 34.1366C280.961 35.1368 281.523 36.4933 281.523 37.9078C281.523 39.3223 280.961 40.6788 279.961 41.679C278.96 42.6792 277.604 43.2411 276.189 43.2411L260.189 43.2411M270.856 48.5745L270.856 16.5745" stroke="white" stroke-width="2" stroke-linecap="round" stroke-linejoin="round"/>
<path d="M338.692 -28.1518C338.303 -29.905 338.363 -31.7282 338.866 -33.4522C339.369 -35.1762 340.3 -36.7453 341.571 -38.0139C342.842 -39.2825 344.413 -40.2095 346.138 -40.7091C347.863 -41.2087 349.686 -41.2647 351.439 -40.8718C352.403 -42.3803 353.732 -43.6218 355.303 -44.4817C356.873 -45.3416 358.635 -45.7924 360.426 -45.7924C362.216 -45.7924 363.978 -45.3416 365.548 -44.4817C367.119 -43.6218 368.448 -42.3803 369.412 -40.8718C371.167 -41.2664 372.994 -41.2107 374.722 -40.7099C376.449 -40.2091 378.022 -39.2794 379.294 -38.0074C380.567 -36.7353 381.496 -35.1623 381.997 -33.4344C382.498 -31.7066 382.553 -29.8802 382.159 -28.1251C383.667 -27.1606 384.909 -25.8318 385.769 -24.2612C386.629 -22.6907 387.079 -20.929 387.079 -19.1385C387.079 -17.3479 386.629 -15.5862 385.769 -14.0157C384.909 -12.4451 383.667 -11.1163 382.159 -10.1518C382.552 -8.39934 382.496 -6.57606 381.996 -4.851C381.497 -3.12594 380.57 -1.55496 379.301 -0.283699C378.032 0.987556 376.463 1.91792 374.739 2.42113C373.015 2.92434 371.192 2.9841 369.439 2.59488C368.476 4.10919 367.146 5.35596 365.573 6.21973C363.999 7.08351 362.234 7.53636 360.439 7.53636C358.644 7.53636 356.878 7.08351 355.305 6.21973C353.732 5.35596 352.402 4.10919 351.439 2.59488C349.686 2.98777 347.863 2.93183 346.138 2.43223C344.413 1.93263 342.842 1.00556 341.571 -0.26304C340.3 -1.53164 339.369 -3.10068 338.866 -4.82469C338.363 -6.5487 338.303 -8.37185 338.692 -10.1251C337.172 -11.0871 335.92 -12.418 335.052 -13.9939C334.185 -15.5698 333.73 -17.3395 333.73 -19.1385C333.73 -20.9374 334.185 -22.7071 335.052 -24.283C335.92 -25.8589 337.172 -27.1898 338.692 -28.1518Z" stroke="white" stroke-width="2" stroke-linecap="round" stroke-linejoin="round"/>
<path d="M24.1283 254.412C23.739 252.659 23.7988 250.836 24.302 249.112C24.8052 247.388 25.7356 245.819 27.0068 244.55C28.2781 243.282 29.8491 242.355 31.5742 241.855C33.2992 241.355 35.1225 241.299 36.8749 241.692C37.8395 240.184 39.1683 238.942 40.7388 238.082C42.3093 237.222 44.0711 236.772 45.8616 236.772C47.6521 236.772 49.4139 237.222 50.9844 238.082C52.5549 238.942 53.8837 240.184 54.8483 241.692C56.6034 241.298 58.4298 241.353 60.1576 241.854C61.8854 242.355 63.4585 243.285 64.7305 244.557C66.0026 245.829 66.9322 247.402 67.433 249.13C67.9338 250.857 67.9895 252.684 67.5949 254.439C69.1035 255.404 70.3449 256.732 71.2048 258.303C72.0648 259.873 72.5155 261.635 72.5155 263.426C72.5155 265.216 72.0648 266.978 71.2048 268.548C70.3449 270.119 69.1035 271.448 67.5949 272.412C67.9878 274.165 67.9319 275.988 67.4323 277.713C66.9327 279.438 66.0056 281.009 64.737 282.28C63.4684 283.552 61.8994 284.482 60.1754 284.985C58.4514 285.488 56.6282 285.548 54.8749 285.159C53.9116 286.673 52.5818 287.92 51.0086 288.784C49.4354 289.648 47.6697 290.1 45.8749 290.1C44.0802 290.1 42.3145 289.648 40.7413 288.784C39.1681 287.92 37.8382 286.673 36.8749 285.159C35.1225 285.552 33.2992 285.496 31.5741 284.996C29.8491 284.497 28.2781 283.57 27.0068 282.301C25.7356 281.032 24.8052 279.463 24.302 277.739C23.7988 276.015 23.739 274.192 24.1283 272.439C22.6081 271.477 21.356 270.146 20.4884 268.57C19.6208 266.994 19.1658 265.225 19.1658 263.426C19.1658 261.627 19.6208 259.857 20.4884 258.281C21.356 256.705 22.6081 255.374 24.1283 254.412Z" stroke="white" stroke-width="2" stroke-linecap="round" stroke-linejoin="round"/>
<path d="M56.5282 252.759L40.5282 252.759C39.1137 252.759 37.7571 253.321 36.7569 254.321C35.7567 255.321 35.1948 256.678 35.1948 258.092C35.1948 259.507 35.7567 260.863 36.7569 261.864C37.7571 262.864 39.1137 263.426 40.5282 263.426L51.1948 263.426C52.6093 263.426 53.9659 263.988 54.9661 264.988C55.9663 265.988 56.5282 267.345 56.5282 268.759C56.5282 270.173 55.9663 271.53 54.9661 272.53C53.9659 273.53 52.6093 274.092 51.1948 274.092L35.1948 274.092M45.8615 279.426L45.8615 247.426" stroke="white" stroke-width="2" stroke-linecap="round" stroke-linejoin="round"/>
<path d="M113.697 202.7C113.308 200.946 113.368 199.123 113.871 197.399C114.374 195.675 115.305 194.106 116.576 192.837C117.847 191.569 119.418 190.642 121.143 190.142C122.868 189.643 124.692 189.587 126.444 189.98C127.409 188.471 128.737 187.23 130.308 186.37C131.878 185.51 133.64 185.059 135.431 185.059C137.221 185.059 138.983 185.51 140.553 186.37C142.124 187.23 143.453 188.471 144.417 189.98C146.172 189.585 147.999 189.641 149.727 190.141C151.454 190.642 153.028 191.572 154.3 192.844C155.572 194.116 156.501 195.689 157.002 197.417C157.503 199.145 157.559 200.971 157.164 202.726C158.673 203.691 159.914 205.02 160.774 206.59C161.634 208.161 162.085 209.922 162.085 211.713C162.085 213.503 161.634 215.265 160.774 216.836C159.914 218.406 158.673 219.735 157.164 220.7C157.557 222.452 157.501 224.275 157.001 226C156.502 227.725 155.575 229.296 154.306 230.568C153.038 231.839 151.468 232.769 149.744 233.272C148.02 233.776 146.197 233.835 144.444 233.446C143.481 234.961 142.151 236.207 140.578 237.071C139.004 237.935 137.239 238.388 135.444 238.388C133.649 238.388 131.884 237.935 130.31 237.071C128.737 236.207 127.407 234.961 126.444 233.446C124.692 233.839 122.868 233.783 121.143 233.284C119.418 232.784 117.847 231.857 116.576 230.588C115.305 229.32 114.374 227.751 113.871 226.027C113.368 224.303 113.308 222.479 113.697 220.726C112.177 219.764 110.925 218.433 110.057 216.857C109.19 215.282 108.735 213.512 108.735 211.713C108.735 209.914 109.19 208.144 110.057 206.568C110.925 204.992 112.177 203.662 113.697 202.7Z" stroke="white" stroke-width="2" stroke-linecap="round" stroke-linejoin="round"/>
<path d="M146.097 201.046L130.097 201.046C128.683 201.046 127.326 201.608 126.326 202.608C125.326 203.609 124.764 204.965 124.764 206.38C124.764 207.794 125.326 209.151 126.326 210.151C127.326 211.151 128.683 211.713 130.097 211.713L140.764 211.713C142.178 211.713 143.535 212.275 144.535 213.275C145.535 214.275 146.097 215.632 146.097 217.046C146.097 218.461 145.535 219.817 144.535 220.817C143.535 221.818 142.178 222.38 140.764 222.38L124.764 222.38M135.431 227.713L135.431 195.713" stroke="white" stroke-width="2" stroke-linecap="round" stroke-linejoin="round"/>
<path d="M203.267 150.987C202.877 149.233 202.937 147.41 203.44 145.686C203.944 143.962 204.874 142.393 206.145 141.125C207.417 139.856 208.988 138.929 210.713 138.429C212.438 137.93 214.261 137.874 216.013 138.267C216.978 136.758 218.307 135.517 219.877 134.657C221.448 133.797 223.209 133.346 225 133.346C226.791 133.346 228.552 133.797 230.123 134.657C231.693 135.517 233.022 136.758 233.987 138.267C235.742 137.872 237.568 137.928 239.296 138.429C241.024 138.929 242.597 139.859 243.869 141.131C245.141 142.403 246.071 143.976 246.571 145.704C247.072 147.432 247.128 149.258 246.733 151.013C248.242 151.978 249.483 153.307 250.343 154.877C251.203 156.448 251.654 158.209 251.654 160C251.654 161.791 251.203 163.552 250.343 165.123C249.483 166.693 248.242 168.022 246.733 168.987C247.126 170.739 247.07 172.562 246.571 174.287C246.071 176.012 245.144 177.583 243.875 178.855C242.607 180.126 241.038 181.056 239.314 181.56C237.59 182.063 235.767 182.123 234.013 181.733C233.05 183.248 231.72 184.494 230.147 185.358C228.574 186.222 226.808 186.675 225.013 186.675C223.219 186.675 221.453 186.222 219.88 185.358C218.306 184.494 216.977 183.248 216.013 181.733C214.261 182.126 212.438 182.07 210.713 181.571C208.988 181.071 207.417 180.144 206.145 178.875C204.874 177.607 203.944 176.038 203.44 174.314C202.937 172.59 202.877 170.767 203.267 169.013C201.747 168.051 200.494 166.72 199.627 165.145C198.759 163.569 198.304 161.799 198.304 160C198.304 158.201 198.759 156.431 199.627 154.855C200.494 153.28 201.747 151.949 203.267 150.987Z" stroke="white" stroke-width="2" stroke-linecap="round" stroke-linejoin="round"/>
<path d="M235.667 149.333L219.667 149.333C218.252 149.333 216.896 149.895 215.895 150.895C214.895 151.896 214.333 153.252 214.333 154.667C214.333 156.081 214.895 157.438 215.895 158.438C216.896 159.438 218.252 160 219.667 160L230.333 160C231.748 160 233.104 160.562 234.104 161.562C235.105 162.562 235.667 163.919 235.667 165.333C235.667 166.748 235.105 168.104 234.104 169.105C233.104 170.105 231.748 170.667 230.333 170.667L214.333 170.667M225 176L225 144" stroke="white" stroke-width="2" stroke-linecap="round" stroke-linejoin="round"/>
<path d="M292.836 99.2739C292.447 97.5206 292.506 95.6975 293.01 93.9734C293.513 92.2494 294.443 90.6804 295.714 89.4118C296.986 88.1432 298.557 87.2161 300.282 86.7165C302.007 86.2169 303.83 86.161 305.582 86.5539C306.547 85.0453 307.876 83.8039 309.446 82.944C311.017 82.084 312.779 81.6333 314.569 81.6333C316.36 81.6333 318.121 82.084 319.692 82.944C321.262 83.8039 322.591 85.0453 323.556 86.5539C325.311 86.1593 327.137 86.215 328.865 86.7158C330.593 87.2166 332.166 88.1462 333.438 89.4183C334.71 90.6903 335.64 92.2634 336.141 93.9912C336.641 95.719 336.697 97.5454 336.302 99.3005C337.811 100.265 339.052 101.594 339.912 103.164C340.772 104.735 341.223 106.497 341.223 108.287C341.223 110.078 340.772 111.839 339.912 113.41C339.052 114.981 337.811 116.309 336.302 117.274C336.695 119.026 336.639 120.85 336.14 122.575C335.64 124.3 334.713 125.871 333.445 127.142C332.176 128.413 330.607 129.344 328.883 129.847C327.159 130.35 325.336 130.41 323.582 130.021C322.619 131.535 321.289 132.782 319.716 133.645C318.143 134.509 316.377 134.962 314.582 134.962C312.788 134.962 311.022 134.509 309.449 133.645C307.876 132.782 306.546 131.535 305.582 130.021C303.83 130.413 302.007 130.357 300.282 129.858C298.557 129.358 296.986 128.431 295.714 127.163C294.443 125.894 293.513 124.325 293.01 122.601C292.506 120.877 292.447 119.054 292.836 117.301C291.316 116.339 290.064 115.008 289.196 113.432C288.328 111.856 287.873 110.086 287.873 108.287C287.873 106.488 288.328 104.719 289.196 103.143C290.064 101.567 291.316 100.236 292.836 99.2739Z" stroke="white" stroke-width="2" stroke-linecap="round" stroke-linejoin="round"/>
<path d="M325.236 97.6206L309.236 97.6206C307.821 97.6206 306.465 98.1825 305.464 99.1827C304.464 100.183 303.902 101.539 303.902 102.954C303.902 104.368 304.464 105.725 305.464 106.725C306.465 107.725 307.821 108.287 309.236 108.287L319.902 108.287C321.317 108.287 322.673 108.849 323.674 109.849C324.674 110.85 325.236 112.206 325.236 113.621C325.236 115.035 324.674 116.392 323.674 117.392C322.673 118.392 321.317 118.954 319.902 118.954L303.902 118.954M314.569 124.287L314.569 92.2872" stroke="white" stroke-width="2" stroke-linecap="round" stroke-linejoin="round"/>
<path d="M382.405 47.5611C382.016 45.8078 382.076 43.9847 382.579 42.2607C383.082 40.5367 384.012 38.9676 385.284 37.699C386.555 36.4304 388.126 35.5034 389.851 35.0038C391.576 34.5042 393.399 34.4482 395.152 34.8411C396.116 33.3326 397.445 32.0911 399.016 31.2312C400.586 30.3713 402.348 29.9205 404.138 29.9205C405.929 29.9205 407.691 30.3713 409.261 31.2312C410.832 32.0911 412.161 33.3326 413.125 34.8411C414.88 34.4465 416.707 34.5022 418.434 35.003C420.162 35.5038 421.735 36.4335 423.007 37.7055C424.279 38.9775 425.209 40.5506 425.71 42.2784C426.211 44.0063 426.266 45.8327 425.872 47.5878C427.38 48.5523 428.622 49.8811 429.482 51.4516C430.342 53.0222 430.792 54.7839 430.792 56.5744C430.792 58.365 430.342 60.1267 429.482 61.6972C428.622 63.2678 427.38 64.5965 425.872 65.5611C426.265 67.3136 426.209 69.1368 425.709 70.8619C425.21 72.5869 424.282 74.1579 423.014 75.4292C421.745 76.7004 420.176 77.6308 418.452 78.134C416.728 78.6372 414.905 78.697 413.152 78.3078C412.188 79.8221 410.859 81.0689 409.285 81.9326C407.712 82.7964 405.947 83.2492 404.152 83.2492C402.357 83.2492 400.591 82.7964 399.018 81.9326C397.445 81.0689 396.115 79.8221 395.152 78.3078C393.399 78.7007 391.576 78.6447 389.851 78.1451C388.126 77.6455 386.555 76.7184 385.284 75.4499C384.012 74.1813 383.082 72.6122 382.579 70.8882C382.076 69.1642 382.016 67.341 382.405 65.5878C380.885 64.6258 379.633 63.2949 378.765 61.719C377.898 60.1431 377.443 58.3734 377.443 56.5744C377.443 54.7755 377.898 53.0058 378.765 51.4299C379.633 49.854 380.885 48.5231 382.405 47.5611Z" stroke="white" stroke-width="2" stroke-linecap="round" stroke-linejoin="round"/>
<path d="M414.805 45.9078L398.805 45.9078C397.391 45.9078 396.034 46.4697 395.034 47.4699C394.034 48.4701 393.472 49.8266 393.472 51.2411C393.472 52.6556 394.034 54.0122 395.034 55.0124C396.034 56.0126 397.391 56.5745 398.805 56.5745L409.472 56.5745C410.886 56.5745 412.243 57.1364 413.243 58.1366C414.243 59.1368 414.805 60.4933 414.805 61.9078C414.805 63.3223 414.243 64.6788 413.243 65.679C412.243 66.6792 410.886 67.2411 409.472 67.2411L393.472 67.2411M404.138 72.5745L404.138 40.5745" stroke="white" stroke-width="2" stroke-linecap="round" stroke-linejoin="round"/>
<path d="M67.8409 330.125C67.4517 328.372 67.5115 326.549 68.0147 324.825C68.5179 323.101 69.4482 321.532 70.7195 320.263C71.9907 318.994 73.5617 318.067 75.2868 317.568C77.0119 317.068 78.8351 317.012 80.5876 317.405C81.5521 315.897 82.8809 314.655 84.4514 313.795C86.022 312.935 87.7837 312.484 89.5742 312.484C91.3648 312.484 93.1265 312.935 94.697 313.795C96.2676 314.655 97.5964 315.897 98.5609 317.405C100.316 317.01 102.142 317.066 103.87 317.567C105.598 318.068 107.171 318.997 108.443 320.269C109.715 321.542 110.645 323.115 111.146 324.842C111.646 326.57 111.702 328.397 111.308 330.152C112.816 331.116 114.058 332.445 114.917 334.016C115.777 335.586 116.228 337.348 116.228 339.138C116.228 340.929 115.777 342.691 114.917 344.261C114.058 345.832 112.816 347.161 111.308 348.125C111.7 349.878 111.645 351.701 111.145 353.426C110.645 355.151 109.718 356.722 108.45 357.993C107.181 359.264 105.612 360.195 103.888 360.698C102.164 361.201 100.341 361.261 98.5876 360.872C97.6243 362.386 96.2945 363.633 94.7212 364.497C93.148 365.36 91.3823 365.813 89.5876 365.813C87.7928 365.813 86.0271 365.36 84.4539 364.497C82.8807 363.633 81.5509 362.386 80.5876 360.872C78.8351 361.265 77.0119 361.209 75.2868 360.709C73.5617 360.209 71.9907 359.282 70.7195 358.014C69.4482 356.745 68.5179 355.176 68.0147 353.452C67.5115 351.728 67.4517 349.905 67.8409 348.152C66.3208 347.19 65.0687 345.859 64.201 344.283C63.3334 342.707 62.8784 340.937 62.8784 339.138C62.8784 337.339 63.3334 335.57 64.201 333.994C65.0687 332.418 66.3208 331.087 67.8409 330.125Z" stroke="white" stroke-width="2" stroke-linecap="round" stroke-linejoin="round"/>
<path d="M157.41 278.412C157.021 276.659 157.081 274.836 157.584 273.112C158.087 271.388 159.018 269.819 160.289 268.55C161.56 267.282 163.131 266.355 164.856 265.855C166.581 265.355 168.404 265.299 170.157 265.692C171.121 264.184 172.45 262.942 174.021 262.082C175.591 261.222 177.353 260.772 179.144 260.772C180.934 260.772 182.696 261.222 184.266 262.082C185.837 262.942 187.166 264.184 188.13 265.692C189.885 265.298 191.712 265.353 193.44 265.854C195.167 266.355 196.74 267.285 198.013 268.557C199.285 269.829 200.214 271.402 200.715 273.13C201.216 274.857 201.272 276.684 200.877 278.439C202.385 279.404 203.627 280.732 204.487 282.303C205.347 283.873 205.797 285.635 205.797 287.426C205.797 289.216 205.347 290.978 204.487 292.548C203.627 294.119 202.385 295.448 200.877 296.412C201.27 298.165 201.214 299.988 200.714 301.713C200.215 303.438 199.288 305.009 198.019 306.28C196.75 307.552 195.181 308.482 193.457 308.985C191.733 309.488 189.91 309.548 188.157 309.159C187.194 310.673 185.864 311.92 184.291 312.784C182.717 313.648 180.952 314.1 179.157 314.1C177.362 314.1 175.596 313.648 174.023 312.784C172.45 311.92 171.12 310.673 170.157 309.159C168.404 309.552 166.581 309.496 164.856 308.996C163.131 308.497 161.56 307.57 160.289 306.301C159.018 305.032 158.087 303.463 157.584 301.739C157.081 300.015 157.021 298.192 157.41 296.439C155.89 295.477 154.638 294.146 153.77 292.57C152.903 290.994 152.448 289.225 152.448 287.426C152.448 285.627 152.903 283.857 153.77 282.281C154.638 280.705 155.89 279.374 157.41 278.412Z" stroke="white" stroke-width="2" stroke-linecap="round" stroke-linejoin="round"/>
<path d="M189.81 276.759L173.81 276.759C172.396 276.759 171.039 277.321 170.039 278.321C169.039 279.321 168.477 280.678 168.477 282.092C168.477 283.507 169.039 284.863 170.039 285.864C171.039 286.864 172.396 287.426 173.81 287.426L184.477 287.426C185.891 287.426 187.248 287.988 188.248 288.988C189.248 289.988 189.81 291.345 189.81 292.759C189.81 294.173 189.248 295.53 188.248 296.53C187.248 297.53 185.891 298.092 184.477 298.092L168.477 298.092M179.143 303.426L179.143 271.426" stroke="white" stroke-width="2" stroke-linecap="round" stroke-linejoin="round"/>
<path d="M246.979 226.7C246.59 224.946 246.65 223.123 247.153 221.399C247.656 219.675 248.587 218.106 249.858 216.837C251.129 215.569 252.7 214.642 254.425 214.142C256.15 213.643 257.974 213.587 259.726 213.98C260.691 212.471 262.019 211.23 263.59 210.37C265.16 209.51 266.922 209.059 268.713 209.059C270.503 209.059 272.265 209.51 273.835 210.37C275.406 211.23 276.735 212.471 277.699 213.98C279.454 213.585 281.281 213.641 283.009 214.141C284.736 214.642 286.31 215.572 287.582 216.844C288.854 218.116 289.783 219.689 290.284 221.417C290.785 223.145 290.841 224.971 290.446 226.726C291.955 227.691 293.196 229.02 294.056 230.59C294.916 232.161 295.367 233.922 295.367 235.713C295.367 237.503 294.916 239.265 294.056 240.836C293.196 242.406 291.955 243.735 290.446 244.7C290.839 246.452 290.783 248.275 290.283 250C289.784 251.725 288.857 253.296 287.588 254.568C286.319 255.839 284.75 256.769 283.026 257.272C281.302 257.776 279.479 257.835 277.726 257.446C276.763 258.961 275.433 260.207 273.86 261.071C272.286 261.935 270.521 262.388 268.726 262.388C266.931 262.388 265.166 261.935 263.592 261.071C262.019 260.207 260.689 258.961 259.726 257.446C257.974 257.839 256.15 257.783 254.425 257.284C252.7 256.784 251.129 255.857 249.858 254.588C248.587 253.32 247.656 251.751 247.153 250.027C246.65 248.303 246.59 246.479 246.979 244.726C245.459 243.764 244.207 242.433 243.339 240.857C242.472 239.282 242.017 237.512 242.017 235.713C242.017 233.914 242.472 232.144 243.339 230.568C244.207 228.992 245.459 227.662 246.979 226.7Z" stroke="white" stroke-width="2" stroke-linecap="round" stroke-linejoin="round"/>
<path d="M279.379 225.046L263.379 225.046C261.965 225.046 260.608 225.608 259.608 226.608C258.608 227.609 258.046 228.965 258.046 230.38C258.046 231.794 258.608 233.151 259.608 234.151C260.608 235.151 261.965 235.713 263.379 235.713L274.046 235.713C275.46 235.713 276.817 236.275 277.817 237.275C278.817 238.275 279.379 239.632 279.379 241.046C279.379 242.461 278.817 243.817 277.817 244.817C276.817 245.818 275.46 246.38 274.046 246.38L258.046 246.38M268.713 251.713L268.713 219.713" stroke="white" stroke-width="2" stroke-linecap="round" stroke-linejoin="round"/>
<path d="M336.549 174.987C336.159 173.233 336.219 171.41 336.722 169.686C337.226 167.962 338.156 166.393 339.427 165.125C340.699 163.856 342.27 162.929 343.995 162.429C345.72 161.93 347.543 161.874 349.295 162.267C350.26 160.758 351.589 159.517 353.159 158.657C354.73 157.797 356.491 157.346 358.282 157.346C360.073 157.346 361.834 157.797 363.405 158.657C364.975 159.517 366.304 160.758 367.269 162.267C369.024 161.872 370.85 161.928 372.578 162.429C374.306 162.929 375.879 163.859 377.151 165.131C378.423 166.403 379.353 167.976 379.853 169.704C380.354 171.432 380.41 173.258 380.015 175.013C381.524 175.978 382.765 177.307 383.625 178.877C384.485 180.448 384.936 182.209 384.936 184C384.936 185.791 384.485 187.552 383.625 189.123C382.765 190.693 381.524 192.022 380.015 192.987C380.408 194.739 380.352 196.562 379.853 198.287C379.353 200.012 378.426 201.583 377.157 202.855C375.889 204.126 374.32 205.056 372.596 205.56C370.872 206.063 369.049 206.123 367.295 205.733C366.332 207.248 365.002 208.494 363.429 209.358C361.856 210.222 360.09 210.675 358.295 210.675C356.501 210.675 354.735 210.222 353.162 209.358C351.588 208.494 350.259 207.248 349.295 205.733C347.543 206.126 345.72 206.07 343.995 205.571C342.27 205.071 340.699 204.144 339.427 202.875C338.156 201.607 337.226 200.038 336.722 198.314C336.219 196.59 336.159 194.767 336.549 193.013C335.029 192.051 333.776 190.72 332.909 189.145C332.041 187.569 331.586 185.799 331.586 184C331.586 182.201 332.041 180.431 332.909 178.855C333.776 177.28 335.029 175.949 336.549 174.987Z" stroke="white" stroke-width="2" stroke-linecap="round" stroke-linejoin="round"/>
<path d="M368.949 173.333L352.949 173.333C351.534 173.333 350.178 173.895 349.177 174.895C348.177 175.896 347.615 177.252 347.615 178.667C347.615 180.081 348.177 181.438 349.177 182.438C350.178 183.438 351.534 184 352.949 184L363.615 184C365.03 184 366.386 184.562 367.386 185.562C368.387 186.562 368.949 187.919 368.949 189.333C368.949 190.748 368.387 192.104 367.386 193.105C366.386 194.105 365.03 194.667 363.615 194.667L347.615 194.667M358.282 200L358.282 168" stroke="white" stroke-width="2" stroke-linecap="round" stroke-linejoin="round"/>
<path d="M426.118 123.274C425.729 121.521 425.788 119.697 426.292 117.973C426.795 116.249 427.725 114.68 428.996 113.412C430.268 112.143 431.839 111.216 433.564 110.717C435.289 110.217 437.112 110.161 438.864 110.554C439.829 109.045 441.158 107.804 442.728 106.944C444.299 106.084 446.061 105.633 447.851 105.633C449.642 105.633 451.403 106.084 452.974 106.944C454.544 107.804 455.873 109.045 456.838 110.554C458.593 110.159 460.419 110.215 462.147 110.716C463.875 111.217 465.448 112.146 466.72 113.418C467.992 114.69 468.922 116.263 469.423 117.991C469.923 119.719 469.979 121.545 469.584 123.301C471.093 124.265 472.334 125.594 473.194 127.164C474.054 128.735 474.505 130.497 474.505 132.287C474.505 134.078 474.054 135.839 473.194 137.41C472.334 138.981 471.093 140.309 469.584 141.274C469.977 143.026 469.921 144.85 469.422 146.575C468.922 148.3 467.995 149.871 466.727 151.142C465.458 152.413 463.889 153.344 462.165 153.847C460.441 154.35 458.618 154.41 456.864 154.021C455.901 155.535 454.571 156.782 452.998 157.645C451.425 158.509 449.659 158.962 447.864 158.962C446.07 158.962 444.304 158.509 442.731 157.645C441.158 156.782 439.828 155.535 438.864 154.021C437.112 154.413 435.289 154.357 433.564 153.858C431.839 153.358 430.268 152.431 428.996 151.163C427.725 149.894 426.795 148.325 426.292 146.601C425.788 144.877 425.729 143.054 426.118 141.301C424.598 140.339 423.346 139.008 422.478 137.432C421.61 135.856 421.155 134.086 421.155 132.287C421.155 130.488 421.61 128.719 422.478 127.143C423.346 125.567 424.598 124.236 426.118 123.274Z" stroke="white" stroke-width="2" stroke-linecap="round" stroke-linejoin="round"/>
<path d="M458.518 121.621L442.518 121.621C441.103 121.621 439.747 122.182 438.746 123.183C437.746 124.183 437.184 125.539 437.184 126.954C437.184 128.368 437.746 129.725 438.746 130.725C439.747 131.725 441.103 132.287 442.518 132.287L453.184 132.287C454.599 132.287 455.955 132.849 456.956 133.849C457.956 134.85 458.518 136.206 458.518 137.621C458.518 139.035 457.956 140.392 456.956 141.392C455.955 142.392 454.599 142.954 453.184 142.954L437.184 142.954M447.851 148.287L447.851 116.287" stroke="white" stroke-width="2" stroke-linecap="round" stroke-linejoin="round"/>
<path d="M290.692 302.412C290.303 300.659 290.363 298.836 290.866 297.112C291.369 295.388 292.3 293.819 293.571 292.55C294.842 291.282 296.413 290.355 298.138 289.855C299.863 289.355 301.686 289.299 303.439 289.692C304.403 288.184 305.732 286.942 307.303 286.082C308.873 285.222 310.635 284.772 312.426 284.772C314.216 284.772 315.978 285.222 317.548 286.082C319.119 286.942 320.448 288.184 321.412 289.692C323.167 289.298 324.994 289.353 326.722 289.854C328.449 290.355 330.022 291.285 331.294 292.557C332.567 293.829 333.496 295.402 333.997 297.13C334.498 298.857 334.553 300.684 334.159 302.439C335.667 303.404 336.909 304.732 337.769 306.303C338.629 307.873 339.079 309.635 339.079 311.426C339.079 313.216 338.629 314.978 337.769 316.548C336.909 318.119 335.667 319.448 334.159 320.412C334.552 322.165 334.496 323.988 333.996 325.713C333.497 327.438 332.57 329.009 331.301 330.28C330.032 331.552 328.463 332.482 326.739 332.985C325.015 333.488 323.192 333.548 321.439 333.159C320.476 334.673 319.146 335.92 317.573 336.784C315.999 337.648 314.234 338.1 312.439 338.1C310.644 338.1 308.878 337.648 307.305 336.784C305.732 335.92 304.402 334.673 303.439 333.159C301.686 333.552 299.863 333.496 298.138 332.996C296.413 332.497 294.842 331.57 293.571 330.301C292.3 329.032 291.369 327.463 290.866 325.739C290.363 324.015 290.303 322.192 290.692 320.439C289.172 319.477 287.92 318.146 287.052 316.57C286.185 314.994 285.73 313.225 285.73 311.426C285.73 309.627 286.185 307.857 287.052 306.281C287.92 304.705 289.172 303.374 290.692 302.412Z" stroke="white" stroke-width="2" stroke-linecap="round" stroke-linejoin="round"/>
<path d="M323.092 300.759L307.092 300.759C305.678 300.759 304.321 301.321 303.321 302.321C302.321 303.321 301.759 304.678 301.759 306.092C301.759 307.507 302.321 308.863 303.321 309.864C304.321 310.864 305.678 311.426 307.092 311.426L317.759 311.426C319.173 311.426 320.53 311.988 321.53 312.988C322.53 313.988 323.092 315.345 323.092 316.759C323.092 318.173 322.53 319.53 321.53 320.53C320.53 321.53 319.173 322.092 317.759 322.092L301.759 322.092M312.425 327.426L312.425 295.426" stroke="white" stroke-width="2" stroke-linecap="round" stroke-linejoin="round"/>
<path d="M380.261 250.7C379.872 248.946 379.932 247.123 380.435 245.399C380.938 243.675 381.869 242.106 383.14 240.837C384.411 239.569 385.982 238.642 387.707 238.142C389.432 237.643 391.256 237.587 393.008 237.98C393.973 236.471 395.301 235.23 396.872 234.37C398.442 233.51 400.204 233.059 401.995 233.059C403.785 233.059 405.547 233.51 407.117 234.37C408.688 235.23 410.017 236.471 410.981 237.98C412.736 237.585 414.563 237.641 416.291 238.141C418.018 238.642 419.592 239.572 420.864 240.844C422.136 242.116 423.065 243.689 423.566 245.417C424.067 247.145 424.123 248.971 423.728 250.726C425.237 251.691 426.478 253.02 427.338 254.59C428.198 256.161 428.649 257.922 428.649 259.713C428.649 261.503 428.198 263.265 427.338 264.836C426.478 266.406 425.237 267.735 423.728 268.7C424.121 270.452 424.065 272.275 423.565 274C423.066 275.725 422.139 277.296 420.87 278.568C419.601 279.839 418.032 280.769 416.308 281.272C414.584 281.776 412.761 281.835 411.008 281.446C410.045 282.961 408.715 284.207 407.142 285.071C405.568 285.935 403.803 286.388 402.008 286.388C400.213 286.388 398.448 285.935 396.874 285.071C395.301 284.207 393.971 282.961 393.008 281.446C391.256 281.839 389.432 281.783 387.707 281.284C385.982 280.784 384.411 279.857 383.14 278.588C381.869 277.32 380.938 275.751 380.435 274.027C379.932 272.303 379.872 270.479 380.261 268.726C378.741 267.764 377.489 266.433 376.621 264.857C375.754 263.282 375.299 261.512 375.299 259.713C375.299 257.914 375.754 256.144 376.621 254.568C377.489 252.992 378.741 251.662 380.261 250.7Z" stroke="white" stroke-width="2" stroke-linecap="round" stroke-linejoin="round"/>
<path d="M412.661 249.046L396.661 249.046C395.247 249.046 393.89 249.608 392.89 250.608C391.89 251.609 391.328 252.965 391.328 254.38C391.328 255.794 391.89 257.151 392.89 258.151C393.89 259.151 395.247 259.713 396.661 259.713L407.328 259.713C408.742 259.713 410.099 260.275 411.099 261.275C412.099 262.275 412.661 263.632 412.661 265.046C412.661 266.461 412.099 267.817 411.099 268.817C410.099 269.818 408.742 270.38 407.328 270.38L391.328 270.38M401.995 275.713L401.995 243.713" stroke="white" stroke-width="2" stroke-linecap="round" stroke-linejoin="round"/>
</g>
<defs>
<clipPath id="clip0_2028_1324">
<rect width="450" height="320" fill="white"/>
</clipPath>
</defs>
</svg>
