<svg width="450" height="320" viewBox="0 0 450 320" fill="none" xmlns="http://www.w3.org/2000/svg">
<g clip-path="url(#clip0_2022_1039)">
<rect width="450" height="320" fill="#121212"/>
<path d="M69.3384 62.9539C69.3384 76.2872 60.0051 82.9539 48.9118 86.8205C48.3309 87.0174 47.6999 87.008 47.1251 86.7939C36.0051 82.9539 26.6718 76.2872 26.6718 62.9539L26.6718 44.2872C26.6718 43.5799 26.9527 42.9017 27.4528 42.4016C27.9529 41.9015 28.6312 41.6205 29.3384 41.6205C34.6718 41.6205 41.3384 38.4205 45.9784 34.3672C46.5434 33.8845 47.262 33.6193 48.0051 33.6193C48.7481 33.6193 49.4668 33.8845 50.0318 34.3672C54.6984 38.4472 61.3384 41.6205 66.6718 41.6205C67.379 41.6205 68.0573 41.9015 68.5574 42.4016C69.0575 42.9017 69.3384 43.5799 69.3384 44.2872L69.3384 62.9539Z" stroke="white" stroke-width="2" stroke-linecap="round" stroke-linejoin="round"/>
<path d="M40.2717 52.2872C40.9117 50.5236 42.1511 49.0409 43.7734 48.0985C45.3957 47.1561 47.2976 46.8138 49.1467 47.1315C50.9958 47.4492 52.6743 48.4067 53.889 49.8366C55.1037 51.2665 55.7772 53.0778 55.7917 54.9539C55.7917 60.2872 47.7917 62.9539 47.7917 62.9539M48.0051 73.6205L48.0317 73.6205" stroke="white" stroke-width="2" stroke-linecap="round" stroke-linejoin="round"/>
<path d="M137.574 21.9077L137.601 21.9077M145.574 -18.0923L121.574 -18.0923C120.16 -18.0923 118.803 -17.5304 117.803 -16.5302C116.803 -15.53 116.241 -14.1734 116.241 -12.759L116.241 29.9077C116.241 31.3222 116.803 32.6788 117.803 33.6789C118.803 34.6791 120.16 35.241 121.574 35.241L153.574 35.241C154.989 35.241 156.345 34.6791 157.346 33.6789C158.346 32.6788 158.908 31.3222 158.908 29.9077L158.908 -4.75895L145.574 -18.0923Z" stroke="white" stroke-width="2" stroke-linecap="round" stroke-linejoin="round"/>
<path d="M129.841 0.574385C130.481 -1.18927 131.72 -2.6719 133.343 -3.61434C134.965 -4.55677 136.867 -4.89906 138.716 -4.58135C140.565 -4.26364 142.244 -3.30615 143.458 -1.87626C144.673 -0.446377 145.346 1.36494 145.361 3.24105C145.361 8.57439 137.361 11.2411 137.361 11.2411" stroke="white" stroke-width="2" stroke-linecap="round" stroke-linejoin="round"/>
<path d="M2.14876 201.046L2.17543 201.046M10.1488 161.046L-13.8512 161.046C-15.2657 161.046 -16.6223 161.608 -17.6225 162.608C-18.6227 163.608 -19.1846 164.965 -19.1846 166.379L-19.1846 209.046C-19.1846 210.461 -18.6227 211.817 -17.6225 212.817C-16.6223 213.818 -15.2657 214.379 -13.8512 214.379L18.1488 214.379C19.5633 214.379 20.9198 213.818 21.92 212.817C22.9202 211.817 23.4821 210.461 23.4821 209.046L23.4821 174.379L10.1488 161.046Z" stroke="white" stroke-width="2" stroke-linecap="round" stroke-linejoin="round"/>
<path d="M-5.58459 179.713C-4.94465 177.949 -3.7052 176.467 -2.08291 175.524C-0.460623 174.582 1.44129 174.239 3.29036 174.557C5.13944 174.875 6.81802 175.832 8.0327 177.262C9.24737 178.692 9.92085 180.503 9.9354 182.379C9.9354 187.713 1.9354 190.379 1.9354 190.379" stroke="white" stroke-width="2" stroke-linecap="round" stroke-linejoin="round"/>
<path d="M80.7847 157.333C85.8743 159.944 91.729 160.651 97.2938 159.327C102.859 158.004 107.768 154.736 111.136 150.113C114.505 145.489 116.111 139.815 115.666 134.112C115.221 128.41 112.754 123.053 108.71 119.009C104.665 114.964 99.3084 112.497 93.6056 112.052C87.9028 111.607 82.2287 113.213 77.6056 116.582C72.9825 119.951 69.7146 124.86 68.3907 130.424C67.0667 135.989 67.7739 141.844 70.3847 146.933L65.0514 162.667L80.7847 157.333Z" stroke="white" stroke-width="2" stroke-linecap="round" stroke-linejoin="round"/>
<path d="M83.958 128C84.585 126.218 85.8224 124.715 87.4512 123.758C89.08 122.8 90.9951 122.451 92.8571 122.77C94.7192 123.089 96.4082 124.057 97.6249 125.503C98.8416 126.948 99.5075 128.777 99.5047 130.667C99.5047 136 91.5047 138.667 91.5047 138.667M91.718 149.333L91.7447 149.333" stroke="white" stroke-width="2" stroke-linecap="round" stroke-linejoin="round"/>
<path d="M202.621 86.9539C202.621 100.287 193.287 106.954 182.194 110.821C181.613 111.017 180.982 111.008 180.407 110.794C169.287 106.954 159.954 100.287 159.954 86.9539L159.954 68.2872C159.954 67.5799 160.235 66.9017 160.735 66.4016C161.235 65.9015 161.913 65.6205 162.621 65.6205C167.954 65.6205 174.621 62.4205 179.261 58.3672C179.825 57.8845 180.544 57.6193 181.287 57.6193C182.03 57.6193 182.749 57.8845 183.314 58.3672C187.981 62.4472 194.621 65.6205 199.954 65.6205C200.661 65.6205 201.339 65.9015 201.839 66.4016C202.34 66.9017 202.621 67.5799 202.621 68.2872L202.621 86.9539Z" stroke="white" stroke-width="2" stroke-linecap="round" stroke-linejoin="round"/>
<path d="M173.554 76.2872C174.194 74.5236 175.433 73.0409 177.056 72.0985C178.678 71.1561 180.58 70.8138 182.429 71.1315C184.278 71.4492 185.956 72.4067 187.171 73.8366C188.386 75.2665 189.059 77.0778 189.074 78.9539C189.074 84.2872 181.074 86.9539 181.074 86.9539M181.287 97.6205L181.314 97.6205" stroke="white" stroke-width="2" stroke-linecap="round" stroke-linejoin="round"/>
<path d="M270.857 45.9077L270.883 45.9077M278.857 5.90772L254.857 5.90771C253.442 5.90771 252.085 6.46962 251.085 7.46981C250.085 8.47001 249.523 9.82656 249.523 11.241L249.523 53.9077C249.523 55.3222 250.085 56.6788 251.085 57.6789C252.085 58.6791 253.442 59.241 254.857 59.241L286.857 59.241C288.271 59.241 289.628 58.6791 290.628 57.6789C291.628 56.6788 292.19 55.3222 292.19 53.9077L292.19 19.241L278.857 5.90772Z" stroke="white" stroke-width="2" stroke-linecap="round" stroke-linejoin="round"/>
<path d="M263.123 24.5744C263.763 22.8107 265.003 21.3281 266.625 20.3857C268.247 19.4432 270.149 19.1009 271.998 19.4187C273.847 19.7364 275.526 20.6939 276.741 22.1237C277.955 23.5536 278.629 25.3649 278.643 27.2411C278.643 32.5744 270.643 35.2411 270.643 35.2411" stroke="white" stroke-width="2" stroke-linecap="round" stroke-linejoin="round"/>
<path d="M349.492 2.1949C354.582 4.80572 360.436 5.51289 366.001 4.18897C371.566 2.86506 376.475 -0.402884 379.843 -5.02596C383.212 -9.64903 384.819 -15.3232 384.374 -21.026C383.929 -26.7288 381.462 -32.0852 377.417 -36.1299C373.372 -40.1747 368.016 -42.6418 362.313 -43.0867C356.61 -43.5316 350.936 -41.925 346.313 -38.5564C341.69 -35.1879 338.422 -30.2789 337.098 -24.7141C335.774 -19.1493 336.481 -13.2946 339.092 -8.2051L333.759 7.52823L349.492 2.1949Z" stroke="white" stroke-width="2" stroke-linecap="round" stroke-linejoin="round"/>
<path d="M67.1949 266.092C67.1949 279.426 57.8615 286.092 46.7682 289.959C46.1873 290.156 45.5563 290.146 44.9815 289.932C33.8615 286.092 24.5282 279.426 24.5282 266.092L24.5282 247.426C24.5282 246.718 24.8092 246.04 25.3092 245.54C25.8093 245.04 26.4876 244.759 27.1949 244.759C32.5282 244.759 39.1949 241.559 43.8349 237.506C44.3998 237.023 45.1185 236.758 45.8615 236.758C46.6046 236.758 47.3233 237.023 47.8882 237.506C52.5549 241.586 59.1949 244.759 64.5282 244.759C65.2354 244.759 65.9137 245.04 66.4138 245.54C66.9139 246.04 67.1949 246.718 67.1949 247.426L67.1949 266.092Z" stroke="white" stroke-width="2" stroke-linecap="round" stroke-linejoin="round"/>
<path d="M38.1282 255.426C38.7681 253.662 40.0076 252.179 41.6299 251.237C43.2521 250.294 45.1541 249.952 47.0031 250.27C48.8522 250.588 50.5308 251.545 51.7455 252.975C52.9601 254.405 53.6336 256.216 53.6482 258.092C53.6482 263.426 45.6482 266.092 45.6482 266.092M45.8615 276.759L45.8882 276.759" stroke="white" stroke-width="2" stroke-linecap="round" stroke-linejoin="round"/>
<path d="M135.431 225.046L135.457 225.046M143.431 185.046L119.431 185.046C118.016 185.046 116.66 185.608 115.66 186.608C114.659 187.608 114.097 188.965 114.097 190.379L114.097 233.046C114.097 234.461 114.659 235.817 115.66 236.817C116.66 237.818 118.016 238.379 119.431 238.379L151.431 238.379C152.845 238.379 154.202 237.818 155.202 236.817C156.202 235.817 156.764 234.461 156.764 233.046L156.764 198.379L143.431 185.046Z" stroke="white" stroke-width="2" stroke-linecap="round" stroke-linejoin="round"/>
<path d="M127.697 203.713C128.337 201.949 129.577 200.467 131.199 199.524C132.821 198.582 134.723 198.239 136.572 198.557C138.421 198.875 140.1 199.832 141.315 201.262C142.529 202.692 143.203 204.503 143.217 206.379C143.217 211.713 135.217 214.379 135.217 214.379" stroke="white" stroke-width="2" stroke-linecap="round" stroke-linejoin="round"/>
<path d="M214.067 181.333C219.156 183.944 225.011 184.651 230.576 183.327C236.14 182.004 241.049 178.736 244.418 174.113C247.786 169.489 249.393 163.815 248.948 158.112C248.503 152.41 246.036 147.053 241.991 143.009C237.947 138.964 232.59 136.497 226.887 136.052C221.185 135.607 215.511 137.213 210.887 140.582C206.264 143.951 202.996 148.86 201.673 154.424C200.349 159.989 201.056 165.844 203.667 170.933L198.333 186.667L214.067 181.333Z" stroke="white" stroke-width="2" stroke-linecap="round" stroke-linejoin="round"/>
<path d="M217.24 152C217.867 150.218 219.104 148.715 220.733 147.758C222.362 146.8 224.277 146.451 226.139 146.77C228.001 147.089 229.69 148.057 230.907 149.503C232.124 150.948 232.789 152.777 232.787 154.667C232.787 160 224.787 162.667 224.787 162.667M225 173.333L225.027 173.333" stroke="white" stroke-width="2" stroke-linecap="round" stroke-linejoin="round"/>
<path d="M335.903 110.954C335.903 124.287 326.569 130.954 315.476 134.821C314.895 135.017 314.264 135.008 313.689 134.794C302.569 130.954 293.236 124.287 293.236 110.954L293.236 92.2872C293.236 91.5799 293.517 90.9017 294.017 90.4016C294.517 89.9015 295.196 89.6205 295.903 89.6205C301.236 89.6205 307.903 86.4205 312.543 82.3672C313.108 81.8845 313.826 81.6193 314.569 81.6193C315.312 81.6193 316.031 81.8845 316.596 82.3672C321.263 86.4472 327.903 89.6205 333.236 89.6205C333.943 89.6205 334.622 89.9015 335.122 90.4016C335.622 90.9017 335.903 91.5799 335.903 92.2872L335.903 110.954Z" stroke="white" stroke-width="2" stroke-linecap="round" stroke-linejoin="round"/>
<path d="M306.836 100.287C307.476 98.5236 308.716 97.0409 310.338 96.0985C311.96 95.1561 313.862 94.8138 315.711 95.1315C317.56 95.4492 319.239 96.4067 320.453 97.8366C321.668 99.2665 322.342 101.078 322.356 102.954C322.356 108.287 314.356 110.954 314.356 110.954M314.57 121.621L314.596 121.621" stroke="white" stroke-width="2" stroke-linecap="round" stroke-linejoin="round"/>
<path d="M404.139 69.9077L404.165 69.9077M412.139 29.9077L388.139 29.9077C386.724 29.9077 385.367 30.4696 384.367 31.4698C383.367 32.47 382.805 33.8266 382.805 35.241L382.805 77.9077C382.805 79.3222 383.367 80.6788 384.367 81.6789C385.367 82.6791 386.724 83.241 388.139 83.241L420.139 83.241C421.553 83.241 422.91 82.6791 423.91 81.6789C424.91 80.6788 425.472 79.3222 425.472 77.9077L425.472 43.241L412.139 29.9077Z" stroke="white" stroke-width="2" stroke-linecap="round" stroke-linejoin="round"/>
<path d="M396.405 48.5744C397.045 46.8107 398.285 45.3281 399.907 44.3857C401.529 43.4432 403.431 43.1009 405.28 43.4187C407.129 43.7364 408.808 44.6939 410.023 46.1237C411.237 47.5536 411.911 49.3649 411.925 51.2411C411.925 56.5744 403.925 59.2411 403.925 59.2411" stroke="white" stroke-width="2" stroke-linecap="round" stroke-linejoin="round"/>
<path d="M78.641 360.472C83.7306 363.083 89.5853 363.79 95.1501 362.466C100.715 361.142 105.624 357.874 108.992 353.251C112.361 348.628 113.967 342.954 113.523 337.251C113.078 331.548 110.611 326.192 106.566 322.147C102.521 318.102 97.1647 315.635 91.462 315.19C85.7592 314.745 80.085 316.352 75.4619 319.72C70.8388 323.089 67.5709 327.998 66.247 333.563C64.9231 339.128 65.6302 344.982 68.241 350.072L62.9077 365.805L78.641 360.472Z" stroke="white" stroke-width="2" stroke-linecap="round" stroke-linejoin="round"/>
<path d="M200.477 290.092C200.477 303.426 191.144 310.092 180.05 313.959C179.469 314.156 178.838 314.146 178.264 313.932C167.144 310.092 157.81 303.426 157.81 290.092L157.81 271.426C157.81 270.718 158.091 270.04 158.591 269.54C159.091 269.04 159.77 268.759 160.477 268.759C165.81 268.759 172.477 265.559 177.117 261.506C177.682 261.023 178.4 260.758 179.144 260.758C179.887 260.758 180.605 261.023 181.17 261.506C185.837 265.586 192.477 268.759 197.81 268.759C198.517 268.759 199.196 269.04 199.696 269.54C200.196 270.04 200.477 270.718 200.477 271.426L200.477 290.092Z" stroke="white" stroke-width="2" stroke-linecap="round" stroke-linejoin="round"/>
<path d="M171.41 279.426C172.05 277.662 173.29 276.179 174.912 275.237C176.534 274.294 178.436 273.952 180.285 274.27C182.134 274.588 183.813 275.545 185.027 276.975C186.242 278.405 186.916 280.216 186.93 282.092C186.93 287.426 178.93 290.092 178.93 290.092M179.143 300.759L179.17 300.759" stroke="white" stroke-width="2" stroke-linecap="round" stroke-linejoin="round"/>
<path d="M268.713 249.046L268.74 249.046M276.713 209.046L252.713 209.046C251.298 209.046 249.942 209.608 248.942 210.608C247.942 211.608 247.38 212.965 247.38 214.379L247.38 257.046C247.38 258.461 247.942 259.817 248.942 260.817C249.942 261.818 251.298 262.379 252.713 262.379L284.713 262.379C286.127 262.379 287.484 261.818 288.484 260.817C289.484 259.817 290.046 258.461 290.046 257.046L290.046 222.379L276.713 209.046Z" stroke="white" stroke-width="2" stroke-linecap="round" stroke-linejoin="round"/>
<path d="M260.98 227.713C261.62 225.949 262.859 224.467 264.481 223.524C266.104 222.582 268.006 222.239 269.855 222.557C271.704 222.875 273.382 223.832 274.597 225.262C275.812 226.692 276.485 228.503 276.5 230.379C276.5 235.713 268.5 238.379 268.5 238.379" stroke="white" stroke-width="2" stroke-linecap="round" stroke-linejoin="round"/>
<path d="M347.349 205.333C352.438 207.944 358.293 208.651 363.858 207.327C369.422 206.004 374.331 202.736 377.7 198.113C381.068 193.489 382.675 187.815 382.23 182.112C381.785 176.41 379.318 171.053 375.273 167.009C371.229 162.964 365.872 160.497 360.169 160.052C354.467 159.607 348.792 161.213 344.169 164.582C339.546 167.951 336.278 172.86 334.954 178.424C333.631 183.989 334.338 189.844 336.949 194.933L331.615 210.667L347.349 205.333Z" stroke="white" stroke-width="2" stroke-linecap="round" stroke-linejoin="round"/>
<path d="M350.522 176C351.149 174.218 352.386 172.715 354.015 171.758C355.644 170.8 357.559 170.451 359.421 170.77C361.283 171.089 362.972 172.057 364.189 173.503C365.406 174.948 366.071 176.777 366.069 178.667C366.069 184 358.069 186.667 358.069 186.667M358.282 197.333L358.309 197.333" stroke="white" stroke-width="2" stroke-linecap="round" stroke-linejoin="round"/>
<path d="M469.185 134.954C469.185 148.287 459.851 154.954 448.758 158.821C448.177 159.017 447.546 159.008 446.971 158.794C435.851 154.954 426.518 148.287 426.518 134.954L426.518 116.287C426.518 115.58 426.799 114.902 427.299 114.402C427.799 113.901 428.477 113.621 429.185 113.621C434.518 113.621 441.185 110.421 445.825 106.367C446.39 105.885 447.108 105.619 447.851 105.619C448.594 105.619 449.313 105.885 449.878 106.367C454.545 110.447 461.185 113.621 466.518 113.621C467.225 113.621 467.904 113.901 468.404 114.402C468.904 114.902 469.185 115.58 469.185 116.287L469.185 134.954Z" stroke="white" stroke-width="2" stroke-linecap="round" stroke-linejoin="round"/>
<path d="M440.118 124.287C440.758 122.524 441.998 121.041 443.62 120.098C445.242 119.156 447.144 118.814 448.993 119.131C450.842 119.449 452.521 120.407 453.735 121.837C454.95 123.266 455.624 125.078 455.638 126.954C455.638 132.287 447.638 134.954 447.638 134.954M447.851 145.621L447.878 145.621" stroke="white" stroke-width="2" stroke-linecap="round" stroke-linejoin="round"/>
<path d="M256.708 358.615C261.797 361.226 267.652 361.933 273.217 360.609C278.782 359.285 283.691 356.018 287.059 351.394C290.428 346.771 292.034 341.097 291.589 335.394C291.144 329.692 288.677 324.335 284.633 320.291C280.588 316.246 275.231 313.779 269.529 313.334C263.826 312.889 258.152 314.495 253.529 317.864C248.905 321.233 245.638 326.142 244.314 331.706C242.99 337.271 243.697 343.126 246.308 348.215L240.974 363.949L256.708 358.615Z" stroke="white" stroke-width="2" stroke-linecap="round" stroke-linejoin="round"/>
<path d="M378.544 288.236C378.544 301.569 369.21 308.236 358.117 312.103C357.536 312.299 356.905 312.29 356.33 312.076C345.21 308.236 335.877 301.569 335.877 288.236L335.877 269.569C335.877 268.862 336.158 268.184 336.658 267.684C337.158 267.184 337.836 266.903 338.544 266.903C343.877 266.903 350.544 263.703 355.184 259.649C355.749 259.167 356.467 258.901 357.21 258.901C357.953 258.901 358.672 259.167 359.237 259.649C363.904 263.729 370.544 266.903 375.877 266.903C376.584 266.903 377.262 267.184 377.763 267.684C378.263 268.184 378.544 268.862 378.544 269.569L378.544 288.236Z" stroke="white" stroke-width="2" stroke-linecap="round" stroke-linejoin="round"/>
<path d="M349.477 277.569C350.117 275.806 351.356 274.323 352.979 273.381C354.601 272.438 356.503 272.096 358.352 272.414C360.201 272.731 361.88 273.689 363.094 275.119C364.309 276.548 364.982 278.36 364.997 280.236C364.997 285.569 356.997 288.236 356.997 288.236M357.21 298.903L357.237 298.903" stroke="white" stroke-width="2" stroke-linecap="round" stroke-linejoin="round"/>
<path d="M446.78 247.19L446.806 247.19M454.78 207.19L430.78 207.19C429.365 207.19 428.009 207.752 427.008 208.752C426.008 209.752 425.446 211.109 425.446 212.523L425.446 255.19C425.446 256.604 426.008 257.961 427.008 258.961C428.009 259.961 429.365 260.523 430.78 260.523L462.78 260.523C464.194 260.523 465.551 259.961 466.551 258.961C467.551 257.961 468.113 256.604 468.113 255.19L468.113 220.523L454.78 207.19Z" stroke="white" stroke-width="2" stroke-linecap="round" stroke-linejoin="round"/>
<path d="M439.046 225.856C439.686 224.093 440.926 222.61 442.548 221.668C444.17 220.725 446.072 220.383 447.921 220.701C449.77 221.018 451.449 221.976 452.664 223.406C453.878 224.836 454.552 226.647 454.566 228.523C454.566 233.856 446.566 236.523 446.566 236.523" stroke="white" stroke-width="2" stroke-linecap="round" stroke-linejoin="round"/>
</g>
<defs>
<clipPath id="clip0_2022_1039">
<rect width="450" height="320" fill="white"/>
</clipPath>
</defs>
</svg>
