<svg width="450" height="320" viewBox="0 0 450 320" fill="none" xmlns="http://www.w3.org/2000/svg">
<g clip-path="url(#clip0_2028_2845)">
<rect width="450" height="320" fill="#121212"/>
<path d="M64.0049 81.6209C64.0049 77.3774 62.3192 73.3077 59.3186 70.3071C56.318 67.3066 52.2483 65.6208 48.0049 65.6208C43.7614 65.6208 39.6918 67.3066 36.6912 70.3071C33.6906 73.3077 32.0049 77.3774 32.0049 81.6209" stroke="white" stroke-width="2" stroke-linecap="round" stroke-linejoin="round"/>
<path d="M48.005 65.6209C53.8961 65.6209 58.6717 60.8453 58.6717 54.9543C58.6717 49.0632 53.8961 44.2876 48.005 44.2876C42.114 44.2876 37.3384 49.0632 37.3384 54.9543C37.3384 60.8453 42.114 65.6209 48.005 65.6209Z" stroke="white" stroke-width="2" stroke-linecap="round" stroke-linejoin="round"/>
<path d="M48.005 86.9542C62.7326 86.9542 74.6717 75.0151 74.6717 60.2875C74.6717 45.5599 62.7326 33.6209 48.005 33.6209C33.2775 33.6208 21.3384 45.5599 21.3384 60.2875C21.3384 75.0151 33.2775 86.9542 48.005 86.9542Z" stroke="white" stroke-width="2" stroke-linecap="round" stroke-linejoin="round"/>
<path d="M153.574 29.908C153.574 25.6645 151.889 21.5948 148.888 18.5943C145.887 15.5937 141.818 13.908 137.574 13.908C133.331 13.908 129.261 15.5937 126.261 18.5943C123.26 21.5948 121.574 25.6645 121.574 29.908" stroke="white" stroke-width="2" stroke-linecap="round" stroke-linejoin="round"/>
<path d="M137.574 13.908C143.465 13.908 148.241 9.13241 148.241 3.24137C148.241 -2.64966 143.465 -7.42529 137.574 -7.42529C131.683 -7.42529 126.908 -2.64966 126.908 3.24137C126.908 9.13241 131.683 13.908 137.574 13.908Z" stroke="white" stroke-width="2" stroke-linecap="round" stroke-linejoin="round"/>
<path d="M137.574 35.2413C152.302 35.2413 164.241 23.3022 164.241 8.57462C164.241 -6.15297 152.302 -18.092 137.574 -18.092C122.847 -18.092 110.908 -6.15297 110.908 8.57462C110.908 23.3022 122.847 35.2413 137.574 35.2413Z" stroke="white" stroke-width="2" stroke-linecap="round" stroke-linejoin="round"/>
<path d="M18.1484 209.046C18.1484 204.803 16.4627 200.733 13.4621 197.733C10.4616 194.732 6.3919 193.046 2.14844 193.046C-2.09503 193.046 -6.16469 194.732 -9.16527 197.733C-12.1659 200.733 -13.8516 204.803 -13.8516 209.046" stroke="white" stroke-width="2" stroke-linecap="round" stroke-linejoin="round"/>
<path d="M2.1486 193.046C8.03964 193.046 12.8153 188.271 12.8153 182.38C12.8153 176.489 8.03964 171.713 2.1486 171.713C-3.74244 171.713 -8.51807 176.489 -8.51807 182.38C-8.51807 188.271 -3.74244 193.046 2.1486 193.046Z" stroke="white" stroke-width="2" stroke-linecap="round" stroke-linejoin="round"/>
<path d="M2.1486 214.38C16.8762 214.38 28.8153 202.441 28.8153 187.713C28.8153 172.985 16.8762 161.046 2.1486 161.046C-12.579 161.046 -24.5181 172.985 -24.5181 187.713C-24.5181 202.441 -12.579 214.38 2.1486 214.38Z" stroke="white" stroke-width="2" stroke-linecap="round" stroke-linejoin="round"/>
<path d="M107.718 157.333C107.718 153.09 106.032 149.02 103.031 146.02C100.031 143.019 95.9612 141.333 91.7178 141.333C87.4743 141.333 83.4046 143.019 80.4041 146.02C77.4035 149.02 75.7178 153.09 75.7178 157.333" stroke="white" stroke-width="2" stroke-linecap="round" stroke-linejoin="round"/>
<path d="M91.7179 141.334C97.609 141.334 102.385 136.558 102.385 130.667C102.385 124.776 97.609 120 91.7179 120C85.8269 120 81.0513 124.776 81.0513 130.667C81.0513 136.558 85.8269 141.334 91.7179 141.334Z" stroke="white" stroke-width="2" stroke-linecap="round" stroke-linejoin="round"/>
<path d="M91.7179 162.667C106.446 162.667 118.385 150.728 118.385 136C118.385 121.273 106.446 109.333 91.7179 109.333C76.9903 109.333 65.0513 121.273 65.0513 136C65.0513 150.728 76.9903 162.667 91.7179 162.667Z" stroke="white" stroke-width="2" stroke-linecap="round" stroke-linejoin="round"/>
<path d="M197.287 105.621C197.287 101.377 195.601 97.3077 192.6 94.3071C189.6 91.3066 185.53 89.6208 181.287 89.6208C177.043 89.6208 172.973 91.3066 169.973 94.3071C166.972 97.3077 165.287 101.377 165.287 105.621" stroke="white" stroke-width="2" stroke-linecap="round" stroke-linejoin="round"/>
<path d="M181.287 89.6209C187.178 89.6209 191.953 84.8453 191.953 78.9543C191.953 73.0632 187.178 68.2876 181.287 68.2876C175.396 68.2876 170.62 73.0632 170.62 78.9543C170.62 84.8453 175.396 89.6209 181.287 89.6209Z" stroke="white" stroke-width="2" stroke-linecap="round" stroke-linejoin="round"/>
<path d="M181.287 110.954C196.014 110.954 207.953 99.0151 207.953 84.2875C207.953 69.5599 196.014 57.6209 181.287 57.6209C166.559 57.6208 154.62 69.5599 154.62 84.2875C154.62 99.0151 166.559 110.954 181.287 110.954Z" stroke="white" stroke-width="2" stroke-linecap="round" stroke-linejoin="round"/>
<path d="M286.856 53.908C286.856 49.6645 285.17 45.5948 282.17 42.5943C279.169 39.5937 275.099 37.908 270.856 37.908C266.612 37.908 262.543 39.5937 259.542 42.5943C256.542 45.5948 254.856 49.6645 254.856 53.908" stroke="white" stroke-width="2" stroke-linecap="round" stroke-linejoin="round"/>
<path d="M270.856 37.908C276.747 37.908 281.523 33.1324 281.523 27.2414C281.523 21.3503 276.747 16.5747 270.856 16.5747C264.965 16.5747 260.189 21.3503 260.189 27.2414C260.189 33.1324 264.965 37.908 270.856 37.908Z" stroke="white" stroke-width="2" stroke-linecap="round" stroke-linejoin="round"/>
<path d="M270.856 59.2413C285.584 59.2413 297.523 47.3022 297.523 32.5746C297.523 17.847 285.584 5.90796 270.856 5.90796C256.129 5.90796 244.189 17.847 244.189 32.5746C244.189 47.3022 256.129 59.2413 270.856 59.2413Z" stroke="white" stroke-width="2" stroke-linecap="round" stroke-linejoin="round"/>
<path d="M376.425 2.19507C376.425 -2.04839 374.74 -6.11806 371.739 -9.11864C368.738 -12.1192 364.669 -13.8049 360.425 -13.8049C356.182 -13.8049 352.112 -12.1192 349.112 -9.11864C346.111 -6.11806 344.425 -2.0484 344.425 2.19507" stroke="white" stroke-width="2" stroke-linecap="round" stroke-linejoin="round"/>
<path d="M360.425 7.5284C375.153 7.5284 387.092 -4.41067 387.092 -19.1383C387.092 -33.8659 375.153 -45.8049 360.425 -45.8049C345.698 -45.8049 333.759 -33.8659 333.759 -19.1383C333.759 -4.41068 345.698 7.5284 360.425 7.5284Z" stroke="white" stroke-width="2" stroke-linecap="round" stroke-linejoin="round"/>
<path d="M61.8613 284.759C61.8613 280.516 60.1756 276.446 57.175 273.446C54.1745 270.445 50.1048 268.759 45.8613 268.759C41.6179 268.759 37.5482 270.445 34.5476 273.446C31.547 276.446 29.8613 280.516 29.8613 284.759" stroke="white" stroke-width="2" stroke-linecap="round" stroke-linejoin="round"/>
<path d="M45.8615 268.759C51.7525 268.759 56.5282 263.984 56.5282 258.093C56.5282 252.202 51.7525 247.426 45.8615 247.426C39.9705 247.426 35.1948 252.202 35.1948 258.093C35.1948 263.984 39.9705 268.759 45.8615 268.759Z" stroke="white" stroke-width="2" stroke-linecap="round" stroke-linejoin="round"/>
<path d="M45.8615 290.093C60.5891 290.093 72.5282 278.154 72.5282 263.426C72.5282 248.698 60.5891 236.759 45.8615 236.759C31.1339 236.759 19.1948 248.698 19.1948 263.426C19.1948 278.154 31.1339 290.093 45.8615 290.093Z" stroke="white" stroke-width="2" stroke-linecap="round" stroke-linejoin="round"/>
<path d="M151.431 233.046C151.431 228.803 149.745 224.733 146.744 221.733C143.744 218.732 139.674 217.046 135.431 217.046C131.187 217.046 127.118 218.732 124.117 221.733C121.116 224.733 119.431 228.803 119.431 233.046" stroke="white" stroke-width="2" stroke-linecap="round" stroke-linejoin="round"/>
<path d="M135.431 217.046C141.322 217.046 146.097 212.271 146.097 206.38C146.097 200.489 141.322 195.713 135.431 195.713C129.54 195.713 124.764 200.489 124.764 206.38C124.764 212.271 129.54 217.046 135.431 217.046Z" stroke="white" stroke-width="2" stroke-linecap="round" stroke-linejoin="round"/>
<path d="M135.431 238.38C150.158 238.38 162.097 226.441 162.097 211.713C162.097 196.985 150.158 185.046 135.431 185.046C120.703 185.046 108.764 196.985 108.764 211.713C108.764 226.441 120.703 238.38 135.431 238.38Z" stroke="white" stroke-width="2" stroke-linecap="round" stroke-linejoin="round"/>
<path d="M241 181.333C241 177.09 239.314 173.02 236.313 170.02C233.313 167.019 229.243 165.333 225 165.333C220.756 165.333 216.686 167.019 213.686 170.02C210.685 173.02 209 177.09 209 181.333" stroke="white" stroke-width="2" stroke-linecap="round" stroke-linejoin="round"/>
<path d="M225 165.334C230.891 165.334 235.666 160.558 235.666 154.667C235.666 148.776 230.891 144 225 144C219.109 144 214.333 148.776 214.333 154.667C214.333 160.558 219.109 165.334 225 165.334Z" stroke="white" stroke-width="2" stroke-linecap="round" stroke-linejoin="round"/>
<path d="M225 186.667C239.727 186.667 251.666 174.728 251.666 160C251.666 145.273 239.727 133.333 225 133.333C210.272 133.333 198.333 145.273 198.333 160C198.333 174.728 210.272 186.667 225 186.667Z" stroke="white" stroke-width="2" stroke-linecap="round" stroke-linejoin="round"/>
<path d="M330.569 129.621C330.569 125.377 328.883 121.308 325.883 118.307C322.882 115.307 318.812 113.621 314.569 113.621C310.325 113.621 306.256 115.307 303.255 118.307C300.255 121.308 298.569 125.377 298.569 129.621" stroke="white" stroke-width="2" stroke-linecap="round" stroke-linejoin="round"/>
<path d="M314.569 113.621C320.46 113.621 325.236 108.845 325.236 102.954C325.236 97.0632 320.46 92.2876 314.569 92.2876C308.678 92.2876 303.902 97.0632 303.902 102.954C303.902 108.845 308.678 113.621 314.569 113.621Z" stroke="white" stroke-width="2" stroke-linecap="round" stroke-linejoin="round"/>
<path d="M314.569 134.954C329.297 134.954 341.236 123.015 341.236 108.288C341.236 93.5599 329.297 81.6209 314.569 81.6209C299.841 81.6208 287.902 93.5599 287.902 108.288C287.902 123.015 299.841 134.954 314.569 134.954Z" stroke="white" stroke-width="2" stroke-linecap="round" stroke-linejoin="round"/>
<path d="M420.138 77.908C420.138 73.6645 418.452 69.5948 415.452 66.5943C412.451 63.5937 408.382 61.908 404.138 61.908C399.895 61.908 395.825 63.5937 392.824 66.5943C389.824 69.5948 388.138 73.6645 388.138 77.908" stroke="white" stroke-width="2" stroke-linecap="round" stroke-linejoin="round"/>
<path d="M404.138 61.908C410.029 61.908 414.805 57.1324 414.805 51.2414C414.805 45.3503 410.029 40.5747 404.138 40.5747C398.247 40.5747 393.472 45.3503 393.472 51.2414C393.472 57.1324 398.247 61.908 404.138 61.908Z" stroke="white" stroke-width="2" stroke-linecap="round" stroke-linejoin="round"/>
<path d="M404.138 83.2413C418.866 83.2413 430.805 71.3022 430.805 56.5746C430.805 41.847 418.866 29.908 404.138 29.908C389.411 29.908 377.472 41.847 377.472 56.5746C377.472 71.3022 389.411 83.2413 404.138 83.2413Z" stroke="white" stroke-width="2" stroke-linecap="round" stroke-linejoin="round"/>
<path d="M89.5744 365.805C104.302 365.805 116.241 353.866 116.241 339.139C116.241 324.411 104.302 312.472 89.5744 312.472C74.8468 312.472 62.9077 324.411 62.9077 339.139C62.9077 353.866 74.8468 365.805 89.5744 365.805Z" stroke="white" stroke-width="2" stroke-linecap="round" stroke-linejoin="round"/>
<path d="M195.143 308.759C195.143 304.516 193.457 300.446 190.457 297.446C187.456 294.445 183.387 292.759 179.143 292.759C174.9 292.759 170.83 294.445 167.829 297.446C164.829 300.446 163.143 304.516 163.143 308.759" stroke="white" stroke-width="2" stroke-linecap="round" stroke-linejoin="round"/>
<path d="M179.143 292.759C185.034 292.759 189.81 287.984 189.81 282.093C189.81 276.202 185.034 271.426 179.143 271.426C173.252 271.426 168.477 276.202 168.477 282.093C168.477 287.984 173.252 292.759 179.143 292.759Z" stroke="white" stroke-width="2" stroke-linecap="round" stroke-linejoin="round"/>
<path d="M179.143 314.093C193.871 314.093 205.81 302.154 205.81 287.426C205.81 272.698 193.871 260.759 179.143 260.759C164.416 260.759 152.477 272.698 152.477 287.426C152.477 302.154 164.416 314.093 179.143 314.093Z" stroke="white" stroke-width="2" stroke-linecap="round" stroke-linejoin="round"/>
<path d="M284.712 257.046C284.712 252.803 283.027 248.733 280.026 245.733C277.026 242.732 272.956 241.046 268.712 241.046C264.469 241.046 260.399 242.732 257.399 245.733C254.398 248.733 252.712 252.803 252.712 257.046" stroke="white" stroke-width="2" stroke-linecap="round" stroke-linejoin="round"/>
<path d="M268.713 241.046C274.604 241.046 279.379 236.271 279.379 230.38C279.379 224.489 274.604 219.713 268.713 219.713C262.822 219.713 258.046 224.489 258.046 230.38C258.046 236.271 262.822 241.046 268.713 241.046Z" stroke="white" stroke-width="2" stroke-linecap="round" stroke-linejoin="round"/>
<path d="M268.713 262.38C283.44 262.38 295.379 250.441 295.379 235.713C295.379 220.985 283.44 209.046 268.713 209.046C253.985 209.046 242.046 220.985 242.046 235.713C242.046 250.441 253.985 262.38 268.713 262.38Z" stroke="white" stroke-width="2" stroke-linecap="round" stroke-linejoin="round"/>
<path d="M374.282 205.333C374.282 201.09 372.596 197.02 369.595 194.02C366.595 191.019 362.525 189.333 358.282 189.333C354.038 189.333 349.969 191.019 346.968 194.02C343.967 197.02 342.282 201.09 342.282 205.333" stroke="white" stroke-width="2" stroke-linecap="round" stroke-linejoin="round"/>
<path d="M358.282 189.334C364.173 189.334 368.949 184.558 368.949 178.667C368.949 172.776 364.173 168 358.282 168C352.391 168 347.615 172.776 347.615 178.667C347.615 184.558 352.391 189.334 358.282 189.334Z" stroke="white" stroke-width="2" stroke-linecap="round" stroke-linejoin="round"/>
<path d="M358.282 210.667C373.009 210.667 384.949 198.728 384.949 184C384.949 169.273 373.009 157.333 358.282 157.333C343.554 157.333 331.615 169.273 331.615 184C331.615 198.728 343.554 210.667 358.282 210.667Z" stroke="white" stroke-width="2" stroke-linecap="round" stroke-linejoin="round"/>
<path d="M463.851 153.621C463.851 149.377 462.165 145.308 459.165 142.307C456.164 139.307 452.095 137.621 447.851 137.621C443.608 137.621 439.538 139.307 436.537 142.307C433.537 145.308 431.851 149.377 431.851 153.621" stroke="white" stroke-width="2" stroke-linecap="round" stroke-linejoin="round"/>
<path d="M447.851 137.621C453.742 137.621 458.518 132.845 458.518 126.954C458.518 121.063 453.742 116.288 447.851 116.288C441.96 116.288 437.185 121.063 437.185 126.954C437.185 132.845 441.96 137.621 447.851 137.621Z" stroke="white" stroke-width="2" stroke-linecap="round" stroke-linejoin="round"/>
<path d="M447.851 158.954C462.579 158.954 474.518 147.015 474.518 132.288C474.518 117.56 462.579 105.621 447.851 105.621C433.124 105.621 421.185 117.56 421.185 132.288C421.185 147.015 433.124 158.954 447.851 158.954Z" stroke="white" stroke-width="2" stroke-linecap="round" stroke-linejoin="round"/>
<path d="M267.641 363.949C282.368 363.949 294.307 352.01 294.307 337.282C294.307 322.555 282.368 310.615 267.641 310.615C252.913 310.615 240.974 322.555 240.974 337.282C240.974 352.01 252.913 363.949 267.641 363.949Z" stroke="white" stroke-width="2" stroke-linecap="round" stroke-linejoin="round"/>
<path d="M373.21 306.903C373.21 302.659 371.524 298.59 368.524 295.589C365.523 292.589 361.453 290.903 357.21 290.903C352.966 290.903 348.897 292.589 345.896 295.589C342.896 298.59 341.21 302.659 341.21 306.903" stroke="white" stroke-width="2" stroke-linecap="round" stroke-linejoin="round"/>
<path d="M357.21 290.903C363.101 290.903 367.877 286.127 367.877 280.236C367.877 274.345 363.101 269.57 357.21 269.57C351.319 269.57 346.543 274.345 346.543 280.236C346.543 286.127 351.319 290.903 357.21 290.903Z" stroke="white" stroke-width="2" stroke-linecap="round" stroke-linejoin="round"/>
<path d="M357.21 312.236C371.938 312.236 383.877 300.297 383.877 285.569C383.877 270.842 371.938 258.903 357.21 258.903C342.483 258.903 330.543 270.842 330.543 285.569C330.543 300.297 342.483 312.236 357.21 312.236Z" stroke="white" stroke-width="2" stroke-linecap="round" stroke-linejoin="round"/>
<path d="M462.779 255.19C462.779 250.946 461.094 246.877 458.093 243.876C455.092 240.876 451.023 239.19 446.779 239.19C442.536 239.19 438.466 240.876 435.466 243.876C432.465 246.877 430.779 250.946 430.779 255.19" stroke="white" stroke-width="2" stroke-linecap="round" stroke-linejoin="round"/>
<path d="M446.779 239.19C452.67 239.19 457.446 234.414 457.446 228.523C457.446 222.632 452.67 217.857 446.779 217.857C440.888 217.857 436.113 222.632 436.113 228.523C436.113 234.414 440.888 239.19 446.779 239.19Z" stroke="white" stroke-width="2" stroke-linecap="round" stroke-linejoin="round"/>
<path d="M446.779 260.523C461.507 260.523 473.446 248.584 473.446 233.857C473.446 219.129 461.507 207.19 446.779 207.19C432.052 207.19 420.113 219.129 420.113 233.857C420.113 248.584 432.052 260.523 446.779 260.523Z" stroke="white" stroke-width="2" stroke-linecap="round" stroke-linejoin="round"/>
</g>
<defs>
<clipPath id="clip0_2028_2845">
<rect width="450" height="320" fill="white"/>
</clipPath>
</defs>
</svg>
