<svg width="450" height="320" viewBox="0 0 450 320" fill="none" xmlns="http://www.w3.org/2000/svg">
<g clip-path="url(#clip0_2028_3023)">
<rect width="450" height="320" fill="#121212"/>
<path d="M48.0055 86.9539C62.7331 86.9539 74.6722 75.0149 74.6722 60.2873C74.6722 45.5597 62.7331 33.6206 48.0055 33.6206C33.2779 33.6206 21.3389 45.5597 21.3389 60.2873C21.3389 75.0149 33.2779 86.9539 48.0055 86.9539Z" stroke="white" stroke-width="2" stroke-linecap="round" stroke-linejoin="round"/>
<path d="M48.0054 70.9539L48.0054 60.2873M48.0054 49.6206L48.032 49.6206" stroke="white" stroke-width="2" stroke-linecap="round" stroke-linejoin="round"/>
<path d="M137.575 35.241C152.302 35.241 164.242 23.302 164.242 8.57438C164.242 -6.15321 152.302 -18.0923 137.575 -18.0923C122.847 -18.0923 110.908 -6.15321 110.908 8.57438C110.908 23.302 122.847 35.241 137.575 35.241Z" stroke="white" stroke-width="2" stroke-linecap="round" stroke-linejoin="round"/>
<path d="M137.575 19.241L137.575 8.57438M137.575 -2.09229L137.601 -2.09229" stroke="white" stroke-width="2" stroke-linecap="round" stroke-linejoin="round"/>
<path d="M2.14909 214.379C16.8767 214.379 28.8157 202.44 28.8157 187.713C28.8157 172.985 16.8767 161.046 2.14909 161.046C-12.5785 161.046 -24.5176 172.985 -24.5176 187.713C-24.5176 202.44 -12.5785 214.379 2.14909 214.379Z" stroke="white" stroke-width="2" stroke-linecap="round" stroke-linejoin="round"/>
<path d="M2.14893 198.379L2.14893 187.713M2.14893 177.046L2.17559 177.046" stroke="white" stroke-width="2" stroke-linecap="round" stroke-linejoin="round"/>
<path d="M91.7184 162.667C106.446 162.667 118.385 150.728 118.385 136C118.385 121.272 106.446 109.333 91.7184 109.333C76.9908 109.333 65.0518 121.272 65.0518 136C65.0518 150.728 76.9908 162.667 91.7184 162.667Z" stroke="white" stroke-width="2" stroke-linecap="round" stroke-linejoin="round"/>
<path d="M91.7183 146.667L91.7183 136M91.7183 125.333L91.7449 125.333" stroke="white" stroke-width="2" stroke-linecap="round" stroke-linejoin="round"/>
<path d="M181.287 110.954C196.015 110.954 207.954 99.0149 207.954 84.2873C207.954 69.5597 196.015 57.6206 181.287 57.6206C166.56 57.6206 154.621 69.5597 154.621 84.2873C154.621 99.0149 166.56 110.954 181.287 110.954Z" stroke="white" stroke-width="2" stroke-linecap="round" stroke-linejoin="round"/>
<path d="M181.287 94.9539L181.287 84.2873M181.287 73.6206L181.314 73.6206" stroke="white" stroke-width="2" stroke-linecap="round" stroke-linejoin="round"/>
<path d="M270.857 59.241C285.584 59.241 297.523 47.302 297.523 32.5744C297.523 17.8468 285.584 5.90772 270.857 5.90772C256.129 5.90772 244.19 17.8468 244.19 32.5744C244.19 47.302 256.129 59.241 270.857 59.241Z" stroke="white" stroke-width="2" stroke-linecap="round" stroke-linejoin="round"/>
<path d="M270.856 43.241L270.856 32.5744M270.856 21.9077L270.883 21.9077" stroke="white" stroke-width="2" stroke-linecap="round" stroke-linejoin="round"/>
<path d="M360.426 7.52815C375.154 7.52815 387.093 -4.41092 387.093 -19.1385C387.093 -33.8661 375.154 -45.8052 360.426 -45.8052C345.698 -45.8052 333.759 -33.8661 333.759 -19.1385C333.759 -4.41092 345.698 7.52815 360.426 7.52815Z" stroke="white" stroke-width="2" stroke-linecap="round" stroke-linejoin="round"/>
<path d="M45.862 290.092C60.5896 290.092 72.5286 278.153 72.5286 263.426C72.5286 248.698 60.5896 236.759 45.862 236.759C31.1344 236.759 19.1953 248.698 19.1953 263.426C19.1953 278.153 31.1344 290.092 45.862 290.092Z" stroke="white" stroke-width="2" stroke-linecap="round" stroke-linejoin="round"/>
<path d="M45.8618 274.092L45.8618 263.426M45.8618 252.759L45.8885 252.759" stroke="white" stroke-width="2" stroke-linecap="round" stroke-linejoin="round"/>
<path d="M135.431 238.379C150.159 238.379 162.098 226.44 162.098 211.713C162.098 196.985 150.159 185.046 135.431 185.046C120.704 185.046 108.765 196.985 108.765 211.713C108.765 226.44 120.704 238.379 135.431 238.379Z" stroke="white" stroke-width="2" stroke-linecap="round" stroke-linejoin="round"/>
<path d="M135.431 222.379L135.431 211.713M135.431 201.046L135.458 201.046" stroke="white" stroke-width="2" stroke-linecap="round" stroke-linejoin="round"/>
<path d="M225 186.667C239.728 186.667 251.667 174.728 251.667 160C251.667 145.272 239.728 133.333 225 133.333C210.273 133.333 198.333 145.272 198.333 160C198.333 174.728 210.273 186.667 225 186.667Z" stroke="white" stroke-width="2" stroke-linecap="round" stroke-linejoin="round"/>
<path d="M225 170.667L225 160M225 149.333L225.027 149.333" stroke="white" stroke-width="2" stroke-linecap="round" stroke-linejoin="round"/>
<path d="M314.569 134.954C329.297 134.954 341.236 123.015 341.236 108.287C341.236 93.5597 329.297 81.6206 314.569 81.6206C299.842 81.6206 287.903 93.5597 287.903 108.287C287.903 123.015 299.842 134.954 314.569 134.954Z" stroke="white" stroke-width="2" stroke-linecap="round" stroke-linejoin="round"/>
<path d="M314.569 118.954L314.569 108.287M314.569 97.6206L314.596 97.6206" stroke="white" stroke-width="2" stroke-linecap="round" stroke-linejoin="round"/>
<path d="M404.139 83.241C418.866 83.241 430.805 71.302 430.805 56.5744C430.805 41.8468 418.866 29.9077 404.139 29.9077C389.411 29.9077 377.472 41.8468 377.472 56.5744C377.472 71.302 389.411 83.241 404.139 83.241Z" stroke="white" stroke-width="2" stroke-linecap="round" stroke-linejoin="round"/>
<path d="M404.139 67.241L404.139 56.5744M404.139 45.9077L404.165 45.9077" stroke="white" stroke-width="2" stroke-linecap="round" stroke-linejoin="round"/>
<path d="M89.5749 365.805C104.302 365.805 116.242 353.866 116.242 339.138C116.242 324.411 104.302 312.472 89.5749 312.472C74.8473 312.472 62.9082 324.411 62.9082 339.138C62.9082 353.866 74.8473 365.805 89.5749 365.805Z" stroke="white" stroke-width="2" stroke-linecap="round" stroke-linejoin="round"/>
<path d="M179.144 314.092C193.871 314.092 205.81 302.153 205.81 287.426C205.81 272.698 193.871 260.759 179.144 260.759C164.416 260.759 152.477 272.698 152.477 287.426C152.477 302.153 164.416 314.092 179.144 314.092Z" stroke="white" stroke-width="2" stroke-linecap="round" stroke-linejoin="round"/>
<path d="M179.144 298.092L179.144 287.426M179.144 276.759L179.17 276.759" stroke="white" stroke-width="2" stroke-linecap="round" stroke-linejoin="round"/>
<path d="M268.713 262.379C283.441 262.379 295.38 250.44 295.38 235.713C295.38 220.985 283.441 209.046 268.713 209.046C253.985 209.046 242.046 220.985 242.046 235.713C242.046 250.44 253.985 262.379 268.713 262.379Z" stroke="white" stroke-width="2" stroke-linecap="round" stroke-linejoin="round"/>
<path d="M268.713 246.379L268.713 235.713M268.713 225.046L268.74 225.046" stroke="white" stroke-width="2" stroke-linecap="round" stroke-linejoin="round"/>
<path d="M358.282 210.667C373.01 210.667 384.949 198.728 384.949 184C384.949 169.272 373.01 157.333 358.282 157.333C343.555 157.333 331.616 169.272 331.616 184C331.616 198.728 343.555 210.667 358.282 210.667Z" stroke="white" stroke-width="2" stroke-linecap="round" stroke-linejoin="round"/>
<path d="M358.282 194.667L358.282 184M358.282 173.333L358.309 173.333" stroke="white" stroke-width="2" stroke-linecap="round" stroke-linejoin="round"/>
<path d="M447.852 158.954C462.579 158.954 474.518 147.015 474.518 132.287C474.518 117.56 462.579 105.621 447.852 105.621C433.124 105.621 421.185 117.56 421.185 132.287C421.185 147.015 433.124 158.954 447.852 158.954Z" stroke="white" stroke-width="2" stroke-linecap="round" stroke-linejoin="round"/>
<path d="M447.852 142.954L447.852 132.287M447.852 121.621L447.878 121.621" stroke="white" stroke-width="2" stroke-linecap="round" stroke-linejoin="round"/>
<path d="M267.641 363.949C282.369 363.949 294.308 352.009 294.308 337.282C294.308 322.554 282.369 310.615 267.641 310.615C252.914 310.615 240.975 322.554 240.975 337.282C240.975 352.009 252.914 363.949 267.641 363.949Z" stroke="white" stroke-width="2" stroke-linecap="round" stroke-linejoin="round"/>
<path d="M357.211 312.236C371.938 312.236 383.877 300.297 383.877 285.569C383.877 270.842 371.938 258.903 357.211 258.903C342.483 258.903 330.544 270.842 330.544 285.569C330.544 300.297 342.483 312.236 357.211 312.236Z" stroke="white" stroke-width="2" stroke-linecap="round" stroke-linejoin="round"/>
<path d="M357.21 296.236L357.21 285.569M357.21 274.903L357.237 274.903" stroke="white" stroke-width="2" stroke-linecap="round" stroke-linejoin="round"/>
</g>
<defs>
<clipPath id="clip0_2028_3023">
<rect width="450" height="320" fill="white"/>
</clipPath>
</defs>
</svg>
