<svg width="450" height="320" viewBox="0 0 450 320" fill="none" xmlns="http://www.w3.org/2000/svg">
<g clip-path="url(#clip0_2028_3201)">
<rect width="450" height="320" fill="#121212"/>
<path d="M42.6719 44.2874L72.0052 44.2874M42.6719 60.2874L72.0052 60.2874M42.6719 76.2874L72.0052 76.2874M26.6719 44.2874L29.3385 44.2874L29.3385 54.954M26.6719 54.954L32.0052 54.954M32.0052 76.2874L26.6719 76.2874C26.6719 73.6207 32.0052 70.954 32.0052 68.2874C32.0052 65.6207 29.3385 64.2874 26.6719 65.6207" stroke="white" stroke-width="2" stroke-linecap="round" stroke-linejoin="round"/>
<path d="M132.241 -7.42554L161.575 -7.42554M132.241 8.57446L161.575 8.57446M132.241 24.5745L161.575 24.5745M116.241 -7.42554L118.908 -7.42554L118.908 3.24113M116.241 3.24113L121.575 3.24113M121.575 24.5745L116.241 24.5745C116.241 21.9078 121.575 19.2411 121.575 16.5745C121.575 13.9078 118.908 12.5745 116.241 13.9078" stroke="white" stroke-width="2" stroke-linecap="round" stroke-linejoin="round"/>
<path d="M-3.18457 171.713L26.1488 171.713M-3.18457 187.713L26.1488 187.713M-3.18457 203.713L26.1488 203.713M-19.1846 171.713L-16.5179 171.713L-16.5179 182.38M-19.1846 182.38L-13.8512 182.38M-13.8512 203.713L-19.1846 203.713C-19.1846 201.046 -13.8512 198.38 -13.8512 195.713C-13.8512 193.046 -16.5179 191.713 -19.1846 193.046" stroke="white" stroke-width="2" stroke-linecap="round" stroke-linejoin="round"/>
<path d="M86.3848 120L115.718 120M86.3848 136L115.718 136M86.3848 152L115.718 152M70.3848 120L73.0514 120L73.0514 130.667M70.3848 130.667L75.7181 130.667M75.7181 152L70.3848 152C70.3848 149.333 75.7181 146.667 75.7181 144C75.7181 141.333 73.0514 140 70.3848 141.333" stroke="white" stroke-width="2" stroke-linecap="round" stroke-linejoin="round"/>
<path d="M175.954 68.2874L205.287 68.2874M175.954 84.2874L205.287 84.2874M175.954 100.287L205.287 100.287M159.954 68.2874L162.62 68.2874L162.62 78.954M159.954 78.954L165.287 78.954M165.287 100.287L159.954 100.287C159.954 97.6207 165.287 94.954 165.287 92.2874C165.287 89.6207 162.62 88.2874 159.954 89.6207" stroke="white" stroke-width="2" stroke-linecap="round" stroke-linejoin="round"/>
<path d="M265.523 16.5745L294.856 16.5745M265.523 32.5745L294.856 32.5745M265.523 48.5745L294.856 48.5745M249.523 16.5745L252.19 16.5745L252.19 27.2411M249.523 27.2411L254.856 27.2411M254.856 48.5745L249.523 48.5745C249.523 45.9078 254.856 43.2411 254.856 40.5745C254.856 37.9078 252.19 36.5745 249.523 37.9078" stroke="white" stroke-width="2" stroke-linecap="round" stroke-linejoin="round"/>
<path d="M40.5283 247.426L69.8617 247.426M40.5283 263.426L69.8617 263.426M40.5283 279.426L69.8617 279.426M24.5283 247.426L27.195 247.426L27.195 258.092M24.5283 258.092L29.8617 258.092M29.8617 279.426L24.5283 279.426C24.5283 276.759 29.8617 274.092 29.8617 271.426C29.8617 268.759 27.195 267.426 24.5283 268.759" stroke="white" stroke-width="2" stroke-linecap="round" stroke-linejoin="round"/>
<path d="M130.098 195.713L159.431 195.713M130.098 211.713L159.431 211.713M130.098 227.713L159.431 227.713M114.098 195.713L116.764 195.713L116.764 206.38M114.098 206.38L119.431 206.38M119.431 227.713L114.098 227.713C114.098 225.046 119.431 222.38 119.431 219.713C119.431 217.046 116.764 215.713 114.098 217.046" stroke="white" stroke-width="2" stroke-linecap="round" stroke-linejoin="round"/>
<path d="M219.667 144L249 144M219.667 160L249 160M219.667 176L249 176M203.667 144L206.333 144L206.333 154.667M203.667 154.667L209 154.667M209 176L203.667 176C203.667 173.333 209 170.667 209 168C209 165.333 206.333 164 203.667 165.333" stroke="white" stroke-width="2" stroke-linecap="round" stroke-linejoin="round"/>
<path d="M309.236 92.2874L338.569 92.2874M309.236 108.287L338.569 108.287M309.236 124.287L338.569 124.287M293.236 92.2874L295.903 92.2874L295.903 102.954M293.236 102.954L298.569 102.954M298.569 124.287L293.236 124.287C293.236 121.621 298.569 118.954 298.569 116.287C298.569 113.621 295.903 112.287 293.236 113.621" stroke="white" stroke-width="2" stroke-linecap="round" stroke-linejoin="round"/>
<path d="M398.805 40.5745L428.139 40.5745M398.805 56.5745L428.139 56.5745M398.805 72.5745L428.139 72.5745M382.805 40.5745L385.472 40.5745L385.472 51.2411M382.805 51.2411L388.139 51.2411M388.139 72.5745L382.805 72.5745C382.805 69.9078 388.139 67.2411 388.139 64.5745C388.139 61.9078 385.472 60.5745 382.805 61.9078" stroke="white" stroke-width="2" stroke-linecap="round" stroke-linejoin="round"/>
<path d="M173.81 271.426L203.143 271.426M173.81 287.426L203.143 287.426M173.81 303.426L203.143 303.426M157.81 271.426L160.477 271.426L160.477 282.092M157.81 282.092L163.143 282.092M163.143 303.426L157.81 303.426C157.81 300.759 163.143 298.092 163.143 295.426C163.143 292.759 160.477 291.426 157.81 292.759" stroke="white" stroke-width="2" stroke-linecap="round" stroke-linejoin="round"/>
<path d="M263.379 219.713L292.713 219.713M263.379 235.713L292.713 235.713M263.379 251.713L292.713 251.713M247.379 219.713L250.046 219.713L250.046 230.38M247.379 230.38L252.713 230.38M252.713 251.713L247.379 251.713C247.379 249.046 252.713 246.38 252.713 243.713C252.713 241.046 250.046 239.713 247.379 241.046" stroke="white" stroke-width="2" stroke-linecap="round" stroke-linejoin="round"/>
<path d="M352.949 168L382.282 168M352.949 184L382.282 184M352.949 200L382.282 200M336.949 168L339.615 168L339.615 178.667M336.949 178.667L342.282 178.667M342.282 200L336.949 200C336.949 197.333 342.282 194.667 342.282 192C342.282 189.333 339.615 188 336.949 189.333" stroke="white" stroke-width="2" stroke-linecap="round" stroke-linejoin="round"/>
<path d="M442.518 116.287L471.851 116.287M442.518 132.287L471.851 132.287M442.518 148.287L471.851 148.287M426.518 116.287L429.185 116.287L429.185 126.954M426.518 126.954L431.851 126.954M431.851 148.287L426.518 148.287C426.518 145.621 431.851 142.954 431.851 140.287C431.851 137.621 429.185 136.287 426.518 137.621" stroke="white" stroke-width="2" stroke-linecap="round" stroke-linejoin="round"/>
<path d="M351.877 269.569L381.21 269.569M351.877 285.569L381.21 285.569M351.877 301.569L381.21 301.569M335.877 269.569L338.544 269.569L338.544 280.236M335.877 280.236L341.21 280.236M341.21 301.569L335.877 301.569C335.877 298.903 341.21 296.236 341.21 293.569C341.21 290.903 338.544 289.569 335.877 290.903" stroke="white" stroke-width="2" stroke-linecap="round" stroke-linejoin="round"/>
<path d="M441.446 217.856L470.78 217.856M441.446 233.856L470.78 233.856M441.446 249.856L470.78 249.856M425.446 217.856L428.113 217.856L428.113 228.523M425.446 228.523L430.78 228.523M430.78 249.856L425.446 249.856C425.446 247.19 430.78 244.523 430.78 241.856C430.78 239.19 428.113 237.856 425.446 239.19" stroke="white" stroke-width="2" stroke-linecap="round" stroke-linejoin="round"/>
</g>
<defs>
<clipPath id="clip0_2028_3201">
<rect width="450" height="320" fill="white"/>
</clipPath>
</defs>
</svg>
