<svg width="450" height="320" viewBox="0 0 450 320" fill="none" xmlns="http://www.w3.org/2000/svg">
<g clip-path="url(#clip0_2028_2045)">
<rect width="450" height="320" fill="#121212"/>
<path d="M29.3384 38.9541L32.005 38.9541C34.1268 38.9541 36.1616 39.797 37.6619 41.2972C39.1622 42.7975 40.005 44.8324 40.005 46.9541M40.005 46.9541C40.005 44.8324 40.8479 42.7975 42.3482 41.2972C43.8485 39.797 45.8833 38.9541 48.005 38.9541L50.6717 38.9541M40.005 46.9541L40.005 73.6208M50.6717 81.6208L48.005 81.6208C45.8833 81.6208 43.8485 80.7779 42.3482 79.2776C40.8479 77.7773 40.005 75.7425 40.005 73.6208M40.005 73.6208C40.005 75.7425 39.1622 77.7773 37.6619 79.2776C36.1616 80.7779 34.1268 81.6208 32.005 81.6208L29.3384 81.6208M29.3384 70.9541L26.6717 70.9541C25.2572 70.9541 23.9007 70.3922 22.9005 69.392C21.9003 68.3918 21.3384 67.0353 21.3384 65.6208L21.3384 54.9541C21.3384 53.5396 21.9003 52.1831 22.9005 51.1829C23.9007 50.1827 25.2572 49.6208 26.6717 49.6208L29.3384 49.6208M50.6717 49.6208L69.3384 49.6208C70.7529 49.6208 72.1094 50.1827 73.1096 51.1829C74.1098 52.1831 74.6717 53.5396 74.6717 54.9541L74.6717 65.6208C74.6717 67.0353 74.1098 68.3918 73.1096 69.392C72.1094 70.3922 70.7529 70.9541 69.3384 70.9541L50.6717 70.9541" stroke="white" stroke-width="2" stroke-linecap="round" stroke-linejoin="round"/>
<path d="M118.907 -12.7588L121.574 -12.7588C123.696 -12.7588 125.731 -11.9159 127.231 -10.4156C128.731 -8.91535 129.574 -6.88052 129.574 -4.75879M129.574 -4.75879C129.574 -6.88052 130.417 -8.91535 131.917 -10.4156C133.418 -11.9159 135.452 -12.7588 137.574 -12.7588L140.241 -12.7588M129.574 -4.75879L129.574 21.9079M140.241 29.9079L137.574 29.9079C135.452 29.9079 133.418 29.065 131.917 27.5647C130.417 26.0644 129.574 24.0296 129.574 21.9079M129.574 21.9079C129.574 24.0296 128.731 26.0644 127.231 27.5647C125.731 29.065 123.696 29.9079 121.574 29.9079L118.907 29.9079M118.907 19.2412L116.241 19.2412C114.826 19.2412 113.47 18.6793 112.47 17.6791C111.469 16.6789 110.907 15.3224 110.907 13.9079L110.907 3.24121C110.907 1.82672 111.469 0.47017 112.47 -0.530024C113.47 -1.53022 114.826 -2.09212 116.241 -2.09212L118.907 -2.09212M140.241 -2.09212L158.907 -2.09212C160.322 -2.09212 161.679 -1.53022 162.679 -0.530023C163.679 0.470171 164.241 1.82672 164.241 3.24121L164.241 13.9079C164.241 15.3224 163.679 16.6789 162.679 17.6791C161.679 18.6793 160.322 19.2412 158.907 19.2412L140.241 19.2412" stroke="white" stroke-width="2" stroke-linecap="round" stroke-linejoin="round"/>
<path d="M-16.5181 166.38L-13.8514 166.38C-11.7297 166.38 -9.69484 167.222 -8.19455 168.723C-6.69425 170.223 -5.8514 172.258 -5.8514 174.38M-5.8514 174.38C-5.8514 172.258 -5.00855 170.223 -3.50826 168.723C-2.00797 167.222 0.0268669 166.38 2.1486 166.38L4.81527 166.38M-5.8514 174.38L-5.8514 201.046M4.81526 209.046L2.1486 209.046C0.0268661 209.046 -2.00797 208.203 -3.50826 206.703C-5.00855 205.203 -5.8514 203.168 -5.8514 201.046M-5.8514 201.046C-5.8514 203.168 -6.69426 205.203 -8.19455 206.703C-9.69484 208.203 -11.7297 209.046 -13.8514 209.046L-16.5181 209.046M-16.5181 198.38L-19.1847 198.38C-20.5992 198.38 -21.9558 197.818 -22.956 196.818C-23.9562 195.817 -24.5181 194.461 -24.5181 193.046L-24.5181 182.38C-24.5181 180.965 -23.9562 179.609 -22.956 178.608C-21.9558 177.608 -20.5992 177.046 -19.1847 177.046L-16.5181 177.046M4.81526 177.046L23.4819 177.046C24.8964 177.046 26.253 177.608 27.2532 178.608C28.2534 179.609 28.8153 180.965 28.8153 182.38L28.8153 193.046C28.8153 194.461 28.2534 195.817 27.2532 196.818C26.253 197.818 24.8964 198.38 23.4819 198.38L4.81526 198.38" stroke="white" stroke-width="2" stroke-linecap="round" stroke-linejoin="round"/>
<path d="M73.051 114.667L75.7177 114.667C77.8394 114.667 79.8743 115.51 81.3745 117.01C82.8748 118.51 83.7177 120.545 83.7177 122.667M83.7177 122.667C83.7177 120.545 84.5605 118.51 86.0608 117.01C87.5611 115.51 89.596 114.667 91.7177 114.667L94.3844 114.667M83.7177 122.667L83.7177 149.333M94.3844 157.333L91.7177 157.333C89.596 157.333 87.5611 156.491 86.0608 154.99C84.5605 153.49 83.7177 151.455 83.7177 149.333M83.7177 149.333C83.7177 151.455 82.8748 153.49 81.3745 154.99C79.8743 156.491 77.8394 157.333 75.7177 157.333L73.051 157.333M73.051 146.667L70.3844 146.667C68.9699 146.667 67.6133 146.105 66.6131 145.105C65.6129 144.104 65.051 142.748 65.051 141.333L65.051 130.667C65.051 129.252 65.6129 127.896 66.6131 126.896C67.6133 125.895 68.9699 125.333 70.3844 125.333L73.051 125.333M94.3844 125.333L113.051 125.333C114.466 125.333 115.822 125.895 116.822 126.896C117.822 127.896 118.384 129.252 118.384 130.667L118.384 141.333C118.384 142.748 117.822 144.104 116.822 145.105C115.822 146.105 114.466 146.667 113.051 146.667L94.3844 146.667" stroke="white" stroke-width="2" stroke-linecap="round" stroke-linejoin="round"/>
<path d="M162.62 62.9541L165.287 62.9541C167.409 62.9541 169.444 63.797 170.944 65.2972C172.444 66.7975 173.287 68.8324 173.287 70.9541M173.287 70.9541C173.287 68.8324 174.13 66.7975 175.63 65.2972C177.13 63.797 179.165 62.9541 181.287 62.9541L183.954 62.9541M173.287 70.9541L173.287 97.6208M183.954 105.621L181.287 105.621C179.165 105.621 177.13 104.778 175.63 103.278C174.13 101.777 173.287 99.7425 173.287 97.6208M173.287 97.6208C173.287 99.7425 172.444 101.777 170.944 103.278C169.444 104.778 167.409 105.621 165.287 105.621L162.62 105.621M162.62 94.9541L159.954 94.9541C158.539 94.9541 157.183 94.3922 156.182 93.392C155.182 92.3918 154.62 91.0353 154.62 89.6208L154.62 78.9541C154.62 77.5396 155.182 76.1831 156.182 75.1829C157.183 74.1827 158.539 73.6208 159.954 73.6208L162.62 73.6208M183.954 73.6208L202.62 73.6208C204.035 73.6208 205.391 74.1827 206.392 75.1829C207.392 76.1831 207.954 77.5396 207.954 78.9541L207.954 89.6208C207.954 91.0353 207.392 92.3918 206.392 93.392C205.391 94.3922 204.035 94.9541 202.62 94.9541L183.954 94.9541" stroke="white" stroke-width="2" stroke-linecap="round" stroke-linejoin="round"/>
<path d="M252.189 11.2412L254.856 11.2412C256.978 11.2412 259.013 12.0841 260.513 13.5844C262.013 15.0846 262.856 17.1195 262.856 19.2412M262.856 19.2412C262.856 17.1195 263.699 15.0846 265.199 13.5844C266.7 12.0841 268.734 11.2412 270.856 11.2412L273.523 11.2412M262.856 19.2412L262.856 45.9079M273.523 53.9079L270.856 53.9079C268.734 53.9079 266.7 53.065 265.199 51.5647C263.699 50.0644 262.856 48.0296 262.856 45.9079M262.856 45.9079C262.856 48.0296 262.013 50.0644 260.513 51.5647C259.013 53.065 256.978 53.9079 254.856 53.9079L252.189 53.9079M252.189 43.2412L249.523 43.2412C248.108 43.2412 246.752 42.6793 245.752 41.6791C244.751 40.6789 244.189 39.3224 244.189 37.9079L244.189 27.2412C244.189 25.8267 244.751 24.4702 245.752 23.47C246.752 22.4698 248.108 21.9079 249.523 21.9079L252.189 21.9079M273.523 21.9079L292.189 21.9079C293.604 21.9079 294.96 22.4698 295.961 23.47C296.961 24.4702 297.523 25.8267 297.523 27.2412L297.523 37.9079C297.523 39.3224 296.961 40.6789 295.961 41.6791C294.96 42.6793 293.604 43.2412 292.189 43.2412L273.523 43.2412" stroke="white" stroke-width="2" stroke-linecap="round" stroke-linejoin="round"/>
<path d="M341.759 -40.4717L344.425 -40.4717C346.547 -40.4717 348.582 -39.6288 350.082 -38.1285C351.583 -36.6282 352.425 -34.5934 352.425 -32.4717M352.425 -32.4717C352.425 -34.5934 353.268 -36.6282 354.769 -38.1285C356.269 -39.6288 358.304 -40.4717 360.425 -40.4717L363.092 -40.4717M352.425 -32.4717L352.425 -5.80501M363.092 2.19499L360.425 2.19499C358.304 2.19499 356.269 1.35213 354.769 -0.148156C353.268 -1.64845 352.425 -3.68328 352.425 -5.80501M352.425 -5.80501C352.425 -3.68328 351.583 -1.64845 350.082 -0.148156C348.582 1.35213 346.547 2.19499 344.425 2.19499L341.759 2.19499M341.759 -8.47168L339.092 -8.47168C337.678 -8.47168 336.321 -9.03358 335.321 -10.0338C334.321 -11.034 333.759 -12.3905 333.759 -13.805L333.759 -24.4717C333.759 -25.8862 334.321 -27.2427 335.321 -28.2429C336.321 -29.2431 337.678 -29.805 339.092 -29.805L341.759 -29.805M363.092 -29.805L381.759 -29.805C383.173 -29.805 384.53 -29.2431 385.53 -28.2429C386.53 -27.2427 387.092 -25.8862 387.092 -24.4717L387.092 -13.805C387.092 -12.3905 386.53 -11.034 385.53 -10.0338C384.53 -9.03358 383.173 -8.47168 381.759 -8.47168L363.092 -8.47168" stroke="white" stroke-width="2" stroke-linecap="round" stroke-linejoin="round"/>
<path d="M27.1948 242.093L29.8615 242.093C31.9832 242.093 34.0181 242.935 35.5183 244.436C37.0186 245.936 37.8615 247.971 37.8615 250.093M37.8615 250.093C37.8615 247.971 38.7043 245.936 40.2046 244.436C41.7049 242.935 43.7398 242.093 45.8615 242.093L48.5282 242.093M37.8615 250.093L37.8615 276.759M48.5282 284.759L45.8615 284.759C43.7398 284.759 41.7049 283.916 40.2046 282.416C38.7043 280.916 37.8615 278.881 37.8615 276.759M37.8615 276.759C37.8615 278.881 37.0186 280.916 35.5183 282.416C34.0181 283.916 31.9832 284.759 29.8615 284.759L27.1948 284.759M27.1948 274.093L24.5282 274.093C23.1137 274.093 21.7571 273.531 20.7569 272.53C19.7567 271.53 19.1948 270.174 19.1948 268.759L19.1948 258.093C19.1948 256.678 19.7567 255.321 20.7569 254.321C21.7571 253.321 23.1137 252.759 24.5282 252.759L27.1948 252.759M48.5282 252.759L67.1948 252.759C68.6093 252.759 69.9659 253.321 70.9661 254.321C71.9662 255.321 72.5282 256.678 72.5282 258.093L72.5282 268.759C72.5282 270.174 71.9662 271.53 70.9661 272.53C69.9659 273.531 68.6093 274.093 67.1948 274.093L48.5282 274.093" stroke="white" stroke-width="2" stroke-linecap="round" stroke-linejoin="round"/>
<path d="M116.764 190.38L119.431 190.38C121.552 190.38 123.587 191.222 125.087 192.723C126.588 194.223 127.431 196.258 127.431 198.38M127.431 198.38C127.431 196.258 128.273 194.223 129.774 192.723C131.274 191.222 133.309 190.38 135.431 190.38L138.097 190.38M127.431 198.38L127.431 225.046M138.097 233.046L135.431 233.046C133.309 233.046 131.274 232.203 129.774 230.703C128.273 229.203 127.431 227.168 127.431 225.046M127.431 225.046C127.431 227.168 126.588 229.203 125.087 230.703C123.587 232.203 121.552 233.046 119.431 233.046L116.764 233.046M116.764 222.38L114.097 222.38C112.683 222.38 111.326 221.818 110.326 220.818C109.326 219.817 108.764 218.461 108.764 217.046L108.764 206.38C108.764 204.965 109.326 203.609 110.326 202.608C111.326 201.608 112.683 201.046 114.097 201.046L116.764 201.046M138.097 201.046L156.764 201.046C158.178 201.046 159.535 201.608 160.535 202.608C161.535 203.609 162.097 204.965 162.097 206.38L162.097 217.046C162.097 218.461 161.535 219.817 160.535 220.818C159.535 221.818 158.178 222.38 156.764 222.38L138.097 222.38" stroke="white" stroke-width="2" stroke-linecap="round" stroke-linejoin="round"/>
<path d="M206.333 138.667L209 138.667C211.122 138.667 213.156 139.51 214.657 141.01C216.157 142.51 217 144.545 217 146.667M217 146.667C217 144.545 217.843 142.51 219.343 141.01C220.843 139.51 222.878 138.667 225 138.667L227.667 138.667M217 146.667L217 173.333M227.667 181.333L225 181.333C222.878 181.333 220.843 180.491 219.343 178.99C217.843 177.49 217 175.455 217 173.333M217 173.333C217 175.455 216.157 177.49 214.657 178.99C213.156 180.491 211.122 181.333 209 181.333L206.333 181.333M206.333 170.667L203.667 170.667C202.252 170.667 200.896 170.105 199.895 169.105C198.895 168.104 198.333 166.748 198.333 165.333L198.333 154.667C198.333 153.252 198.895 151.896 199.895 150.896C200.896 149.895 202.252 149.333 203.667 149.333L206.333 149.333M227.667 149.333L246.333 149.333C247.748 149.333 249.104 149.895 250.104 150.896C251.105 151.896 251.667 153.252 251.667 154.667L251.667 165.333C251.667 166.748 251.105 168.104 250.104 169.105C249.104 170.105 247.748 170.667 246.333 170.667L227.667 170.667" stroke="white" stroke-width="2" stroke-linecap="round" stroke-linejoin="round"/>
<path d="M295.902 86.9541L298.569 86.9541C300.691 86.9541 302.726 87.797 304.226 89.2972C305.726 90.7975 306.569 92.8324 306.569 94.9541M306.569 94.9541C306.569 92.8324 307.412 90.7975 308.912 89.2972C310.412 87.797 312.447 86.9541 314.569 86.9541L317.236 86.9541M306.569 94.9541L306.569 121.621M317.236 129.621L314.569 129.621C312.447 129.621 310.412 128.778 308.912 127.278C307.412 125.777 306.569 123.743 306.569 121.621M306.569 121.621C306.569 123.743 305.726 125.777 304.226 127.278C302.726 128.778 300.691 129.621 298.569 129.621L295.902 129.621M295.902 118.954L293.236 118.954C291.821 118.954 290.465 118.392 289.464 117.392C288.464 116.392 287.902 115.035 287.902 113.621L287.902 102.954C287.902 101.54 288.464 100.183 289.464 99.1829C290.465 98.1827 291.821 97.6208 293.236 97.6208L295.902 97.6208M317.236 97.6208L335.902 97.6208C337.317 97.6208 338.673 98.1827 339.674 99.1829C340.674 100.183 341.236 101.54 341.236 102.954L341.236 113.621C341.236 115.035 340.674 116.392 339.674 117.392C338.673 118.392 337.317 118.954 335.902 118.954L317.236 118.954" stroke="white" stroke-width="2" stroke-linecap="round" stroke-linejoin="round"/>
<path d="M385.472 35.2412L388.138 35.2412C390.26 35.2412 392.295 36.0841 393.795 37.5844C395.295 39.0846 396.138 41.1195 396.138 43.2412M396.138 43.2412C396.138 41.1195 396.981 39.0846 398.481 37.5844C399.982 36.0841 402.017 35.2412 404.138 35.2412L406.805 35.2412M396.138 43.2412L396.138 69.9079M406.805 77.9079L404.138 77.9079C402.017 77.9079 399.982 77.065 398.481 75.5647C396.981 74.0644 396.138 72.0296 396.138 69.9079M396.138 69.9079C396.138 72.0296 395.295 74.0644 393.795 75.5647C392.295 77.065 390.26 77.9079 388.138 77.9079L385.472 77.9079M385.472 67.2412L382.805 67.2412C381.391 67.2412 380.034 66.6793 379.034 65.6791C378.034 64.6789 377.472 63.3224 377.472 61.9079L377.472 51.2412C377.472 49.8267 378.034 48.4702 379.034 47.47C380.034 46.4698 381.391 45.9079 382.805 45.9079L385.472 45.9079M406.805 45.9079L425.472 45.9079C426.886 45.9079 428.243 46.4698 429.243 47.47C430.243 48.4702 430.805 49.8267 430.805 51.2412L430.805 61.9079C430.805 63.3224 430.243 64.6789 429.243 65.6791C428.243 66.6793 426.886 67.2412 425.472 67.2412L406.805 67.2412" stroke="white" stroke-width="2" stroke-linecap="round" stroke-linejoin="round"/>
<path d="M70.9075 317.805L73.5741 317.805C75.6959 317.805 77.7307 318.648 79.231 320.148C80.7313 321.649 81.5741 323.683 81.5741 325.805M81.5741 325.805C81.5741 323.683 82.417 321.649 83.9173 320.148C85.4176 318.648 87.4524 317.805 89.5741 317.805L92.2408 317.805M81.5741 325.805L81.5741 352.472M92.2408 360.472L89.5741 360.472C87.4524 360.472 85.4176 359.629 83.9173 358.129C82.417 356.628 81.5741 354.594 81.5741 352.472M81.5741 352.472C81.5741 354.594 80.7313 356.628 79.231 358.129C77.7307 359.629 75.6959 360.472 73.5741 360.472L70.9075 360.472M70.9075 349.805L68.2408 349.805C66.8263 349.805 65.4698 349.243 64.4696 348.243C63.4694 347.243 62.9075 345.886 62.9075 344.472L62.9075 333.805C62.9075 332.391 63.4694 331.034 64.4696 330.034C65.4698 329.034 66.8263 328.472 68.2408 328.472L70.9075 328.472M92.2408 328.472L110.907 328.472C112.322 328.472 113.679 329.034 114.679 330.034C115.679 331.034 116.241 332.391 116.241 333.805L116.241 344.472C116.241 345.886 115.679 347.243 114.679 348.243C113.679 349.243 112.322 349.805 110.907 349.805L92.2408 349.805" stroke="white" stroke-width="2" stroke-linecap="round" stroke-linejoin="round"/>
<path d="M160.477 266.093L163.143 266.093C165.265 266.093 167.3 266.935 168.8 268.436C170.301 269.936 171.143 271.971 171.143 274.093M171.143 274.093C171.143 271.971 171.986 269.936 173.487 268.436C174.987 266.935 177.022 266.093 179.143 266.093L181.81 266.093M171.143 274.093L171.143 300.759M181.81 308.759L179.143 308.759C177.022 308.759 174.987 307.916 173.487 306.416C171.986 304.916 171.143 302.881 171.143 300.759M171.143 300.759C171.143 302.881 170.301 304.916 168.8 306.416C167.3 307.916 165.265 308.759 163.143 308.759L160.477 308.759M160.477 298.093L157.81 298.093C156.396 298.093 155.039 297.531 154.039 296.53C153.039 295.53 152.477 294.174 152.477 292.759L152.477 282.093C152.477 280.678 153.039 279.321 154.039 278.321C155.039 277.321 156.396 276.759 157.81 276.759L160.477 276.759M181.81 276.759L200.477 276.759C201.891 276.759 203.248 277.321 204.248 278.321C205.248 279.321 205.81 280.678 205.81 282.093L205.81 292.759C205.81 294.174 205.248 295.53 204.248 296.53C203.248 297.531 201.891 298.093 200.477 298.093L181.81 298.093" stroke="white" stroke-width="2" stroke-linecap="round" stroke-linejoin="round"/>
<path d="M250.046 214.38L252.713 214.38C254.834 214.38 256.869 215.222 258.369 216.723C259.87 218.223 260.713 220.258 260.713 222.38M260.713 222.38C260.713 220.258 261.555 218.223 263.056 216.723C264.556 215.222 266.591 214.38 268.713 214.38L271.379 214.38M260.713 222.38L260.713 249.046M271.379 257.046L268.713 257.046C266.591 257.046 264.556 256.203 263.056 254.703C261.555 253.203 260.713 251.168 260.713 249.046M260.713 249.046C260.713 251.168 259.87 253.203 258.369 254.703C256.869 256.203 254.834 257.046 252.713 257.046L250.046 257.046M250.046 246.38L247.379 246.38C245.965 246.38 244.608 245.818 243.608 244.818C242.608 243.817 242.046 242.461 242.046 241.046L242.046 230.38C242.046 228.965 242.608 227.609 243.608 226.608C244.608 225.608 245.965 225.046 247.379 225.046L250.046 225.046M271.379 225.046L290.046 225.046C291.46 225.046 292.817 225.608 293.817 226.608C294.817 227.609 295.379 228.965 295.379 230.38L295.379 241.046C295.379 242.461 294.817 243.817 293.817 244.818C292.817 245.818 291.46 246.38 290.046 246.38L271.379 246.38" stroke="white" stroke-width="2" stroke-linecap="round" stroke-linejoin="round"/>
<path d="M339.615 162.667L342.282 162.667C344.404 162.667 346.438 163.51 347.939 165.01C349.439 166.51 350.282 168.545 350.282 170.667M350.282 170.667C350.282 168.545 351.125 166.51 352.625 165.01C354.125 163.51 356.16 162.667 358.282 162.667L360.949 162.667M350.282 170.667L350.282 197.333M360.949 205.333L358.282 205.333C356.16 205.333 354.125 204.491 352.625 202.99C351.125 201.49 350.282 199.455 350.282 197.333M350.282 197.333C350.282 199.455 349.439 201.49 347.939 202.99C346.438 204.491 344.404 205.333 342.282 205.333L339.615 205.333M339.615 194.667L336.949 194.667C335.534 194.667 334.178 194.105 333.177 193.105C332.177 192.104 331.615 190.748 331.615 189.333L331.615 178.667C331.615 177.252 332.177 175.896 333.177 174.896C334.178 173.895 335.534 173.333 336.949 173.333L339.615 173.333M360.949 173.333L379.615 173.333C381.03 173.333 382.386 173.895 383.386 174.896C384.387 175.896 384.949 177.252 384.949 178.667L384.949 189.333C384.949 190.748 384.387 192.104 383.386 193.105C382.386 194.105 381.03 194.667 379.615 194.667L360.949 194.667" stroke="white" stroke-width="2" stroke-linecap="round" stroke-linejoin="round"/>
<path d="M429.184 110.954L431.851 110.954C433.973 110.954 436.008 111.797 437.508 113.297C439.008 114.798 439.851 116.832 439.851 118.954M439.851 118.954C439.851 116.832 440.694 114.798 442.194 113.297C443.694 111.797 445.729 110.954 447.851 110.954L450.518 110.954M439.851 118.954L439.851 145.621M450.518 153.621L447.851 153.621C445.729 153.621 443.694 152.778 442.194 151.278C440.694 149.777 439.851 147.743 439.851 145.621M439.851 145.621C439.851 147.743 439.008 149.777 437.508 151.278C436.008 152.778 433.973 153.621 431.851 153.621L429.184 153.621M429.184 142.954L426.518 142.954C425.103 142.954 423.747 142.392 422.746 141.392C421.746 140.392 421.184 139.035 421.184 137.621L421.184 126.954C421.184 125.54 421.746 124.183 422.746 123.183C423.747 122.183 425.103 121.621 426.518 121.621L429.184 121.621M450.518 121.621L469.184 121.621C470.599 121.621 471.955 122.183 472.956 123.183C473.956 124.183 474.518 125.54 474.518 126.954L474.518 137.621C474.518 139.035 473.956 140.392 472.956 141.392C471.955 142.392 470.599 142.954 469.184 142.954L450.518 142.954" stroke="white" stroke-width="2" stroke-linecap="round" stroke-linejoin="round"/>
<path d="M293.759 290.093L296.425 290.093C298.547 290.093 300.582 290.935 302.082 292.436C303.583 293.936 304.425 295.971 304.425 298.093M304.425 298.093C304.425 295.971 305.268 293.936 306.769 292.436C308.269 290.935 310.304 290.093 312.425 290.093L315.092 290.093M304.425 298.093L304.425 324.759M315.092 332.759L312.425 332.759C310.304 332.759 308.269 331.916 306.769 330.416C305.268 328.916 304.425 326.881 304.425 324.759M304.425 324.759C304.425 326.881 303.583 328.916 302.082 330.416C300.582 331.916 298.547 332.759 296.425 332.759L293.759 332.759M293.759 322.093L291.092 322.093C289.678 322.093 288.321 321.531 287.321 320.53C286.321 319.53 285.759 318.174 285.759 316.759L285.759 306.093C285.759 304.678 286.321 303.321 287.321 302.321C288.321 301.321 289.678 300.759 291.092 300.759L293.759 300.759M315.092 300.759L333.759 300.759C335.173 300.759 336.53 301.321 337.53 302.321C338.53 303.321 339.092 304.678 339.092 306.093L339.092 316.759C339.092 318.174 338.53 319.53 337.53 320.53C336.53 321.531 335.173 322.093 333.759 322.093L315.092 322.093" stroke="white" stroke-width="2" stroke-linecap="round" stroke-linejoin="round"/>
<path d="M383.328 238.38L385.995 238.38C388.116 238.38 390.151 239.222 391.651 240.723C393.152 242.223 393.995 244.258 393.995 246.38M393.995 246.38C393.995 244.258 394.837 242.223 396.338 240.723C397.838 239.222 399.873 238.38 401.995 238.38L404.661 238.38M393.995 246.38L393.995 273.046M404.661 281.046L401.995 281.046C399.873 281.046 397.838 280.203 396.338 278.703C394.837 277.203 393.995 275.168 393.995 273.046M393.995 273.046C393.995 275.168 393.152 277.203 391.651 278.703C390.151 280.203 388.116 281.046 385.995 281.046L383.328 281.046M383.328 270.38L380.661 270.38C379.247 270.38 377.89 269.818 376.89 268.818C375.89 267.817 375.328 266.461 375.328 265.046L375.328 254.38C375.328 252.965 375.89 251.609 376.89 250.608C377.89 249.608 379.247 249.046 380.661 249.046L383.328 249.046M404.661 249.046L423.328 249.046C424.742 249.046 426.099 249.608 427.099 250.608C428.099 251.609 428.661 252.965 428.661 254.38L428.661 265.046C428.661 266.461 428.099 267.817 427.099 268.818C426.099 269.818 424.742 270.38 423.328 270.38L404.661 270.38" stroke="white" stroke-width="2" stroke-linecap="round" stroke-linejoin="round"/>
</g>
<defs>
<clipPath id="clip0_2028_2045">
<rect width="450" height="320" fill="white"/>
</clipPath>
</defs>
</svg>
