<svg width="450" height="320" viewBox="0 0 450 320" fill="none" xmlns="http://www.w3.org/2000/svg">
<g clip-path="url(#clip0_2028_1855)">
<rect width="450" height="320" fill="#121212"/>
<path d="M66.6718 36.2874L29.3385 36.2874C26.3929 36.2874 24.0051 38.6752 24.0051 41.6207L24.0051 78.954C24.0051 81.8995 26.3929 84.2874 29.3385 84.2874L66.6718 84.2874C69.6173 84.2874 72.0051 81.8995 72.0051 78.954L72.0051 41.6207C72.0051 38.6752 69.6173 36.2874 66.6718 36.2874Z" stroke="white" stroke-width="2" stroke-linecap="round" stroke-linejoin="round"/>
<path d="M24.0051 52.2874L72.0051 52.2874M56.0051 65.6207L48.0051 73.6207L40.0051 65.6207" stroke="white" stroke-width="2" stroke-linecap="round" stroke-linejoin="round"/>
<path d="M156.241 -15.4255L118.908 -15.4255C115.962 -15.4255 113.574 -13.0377 113.574 -10.0922L113.574 27.2411C113.574 30.1866 115.962 32.5745 118.908 32.5745L156.241 32.5745C159.186 32.5745 161.574 30.1867 161.574 27.2411L161.574 -10.0922C161.574 -13.0377 159.186 -15.4255 156.241 -15.4255Z" stroke="white" stroke-width="2" stroke-linecap="round" stroke-linejoin="round"/>
<path d="M113.574 0.574463L161.574 0.574464M145.574 13.9078L137.574 21.9078L129.574 13.9078" stroke="white" stroke-width="2" stroke-linecap="round" stroke-linejoin="round"/>
<path d="M20.8153 163.713L-16.518 163.713C-19.4635 163.713 -21.8513 166.101 -21.8513 169.046L-21.8513 206.38C-21.8513 209.325 -19.4635 211.713 -16.518 211.713L20.8153 211.713C23.7609 211.713 26.1487 209.325 26.1487 206.38L26.1487 169.046C26.1487 166.101 23.7609 163.713 20.8153 163.713Z" stroke="white" stroke-width="2" stroke-linecap="round" stroke-linejoin="round"/>
<path d="M-21.8513 179.713L26.1487 179.713M10.1487 193.046L2.14868 201.046L-5.85132 193.046" stroke="white" stroke-width="2" stroke-linecap="round" stroke-linejoin="round"/>
<path d="M110.384 112L73.0511 112C70.1056 112 67.7178 114.388 67.7178 117.333L67.7178 154.667C67.7178 157.612 70.1056 160 73.0511 160L110.384 160C113.33 160 115.718 157.612 115.718 154.667L115.718 117.333C115.718 114.388 113.33 112 110.384 112Z" stroke="white" stroke-width="2" stroke-linecap="round" stroke-linejoin="round"/>
<path d="M67.7178 128L115.718 128M99.7178 141.333L91.7178 149.333L83.7178 141.333" stroke="white" stroke-width="2" stroke-linecap="round" stroke-linejoin="round"/>
<path d="M199.954 60.2874L162.62 60.2874C159.675 60.2874 157.287 62.6752 157.287 65.6207L157.287 102.954C157.287 105.9 159.675 108.287 162.62 108.287L199.954 108.287C202.899 108.287 205.287 105.9 205.287 102.954L205.287 65.6207C205.287 62.6752 202.899 60.2874 199.954 60.2874Z" stroke="white" stroke-width="2" stroke-linecap="round" stroke-linejoin="round"/>
<path d="M157.287 76.2874L205.287 76.2874M189.287 89.6207L181.287 97.6207L173.287 89.6207" stroke="white" stroke-width="2" stroke-linecap="round" stroke-linejoin="round"/>
<path d="M289.523 8.57446L252.19 8.57446C249.244 8.57446 246.856 10.9623 246.856 13.9078L246.856 51.2411C246.856 54.1866 249.244 56.5745 252.19 56.5745L289.523 56.5745C292.468 56.5745 294.856 54.1867 294.856 51.2411L294.856 13.9078C294.856 10.9623 292.468 8.57446 289.523 8.57446Z" stroke="white" stroke-width="2" stroke-linecap="round" stroke-linejoin="round"/>
<path d="M246.856 24.5745L294.856 24.5745M278.856 37.9078L270.856 45.9078L262.856 37.9078" stroke="white" stroke-width="2" stroke-linecap="round" stroke-linejoin="round"/>
<path d="M379.092 -43.1384L341.759 -43.1384C338.813 -43.1384 336.426 -40.7506 336.426 -37.8051L336.426 -0.47176C336.426 2.47376 338.813 4.86157 341.759 4.86157L379.092 4.86157C382.038 4.86157 384.426 2.47376 384.426 -0.471759L384.426 -37.8051C384.426 -40.7506 382.038 -43.1384 379.092 -43.1384Z" stroke="white" stroke-width="2" stroke-linecap="round" stroke-linejoin="round"/>
<path d="M64.5282 239.426L27.1949 239.426C24.2494 239.426 21.8616 241.814 21.8616 244.759L21.8616 282.092C21.8616 285.038 24.2494 287.426 27.1949 287.426L64.5282 287.426C67.4738 287.426 69.8616 285.038 69.8616 282.092L69.8616 244.759C69.8616 241.814 67.4738 239.426 64.5282 239.426Z" stroke="white" stroke-width="2" stroke-linecap="round" stroke-linejoin="round"/>
<path d="M21.8616 255.426L69.8616 255.426M53.8616 268.759L45.8616 276.759L37.8616 268.759" stroke="white" stroke-width="2" stroke-linecap="round" stroke-linejoin="round"/>
<path d="M154.097 187.713L116.764 187.713C113.818 187.713 111.431 190.101 111.431 193.046L111.431 230.38C111.431 233.325 113.818 235.713 116.764 235.713L154.097 235.713C157.043 235.713 159.431 233.325 159.431 230.38L159.431 193.046C159.431 190.101 157.043 187.713 154.097 187.713Z" stroke="white" stroke-width="2" stroke-linecap="round" stroke-linejoin="round"/>
<path d="M111.431 203.713L159.431 203.713M143.431 217.046L135.431 225.046L127.431 217.046" stroke="white" stroke-width="2" stroke-linecap="round" stroke-linejoin="round"/>
<path d="M243.667 136L206.333 136C203.388 136 201 138.388 201 141.333L201 178.667C201 181.612 203.388 184 206.333 184L243.667 184C246.612 184 249 181.612 249 178.667L249 141.333C249 138.388 246.612 136 243.667 136Z" stroke="white" stroke-width="2" stroke-linecap="round" stroke-linejoin="round"/>
<path d="M201 152L249 152M233 165.333L225 173.333L217 165.333" stroke="white" stroke-width="2" stroke-linecap="round" stroke-linejoin="round"/>
<path d="M333.236 84.2874L295.902 84.2874C292.957 84.2874 290.569 86.6752 290.569 89.6207L290.569 126.954C290.569 129.9 292.957 132.287 295.902 132.287L333.236 132.287C336.181 132.287 338.569 129.9 338.569 126.954L338.569 89.6207C338.569 86.6752 336.181 84.2874 333.236 84.2874Z" stroke="white" stroke-width="2" stroke-linecap="round" stroke-linejoin="round"/>
<path d="M290.569 100.287L338.569 100.287M322.569 113.621L314.569 121.621L306.569 113.621" stroke="white" stroke-width="2" stroke-linecap="round" stroke-linejoin="round"/>
<path d="M422.805 32.5745L385.472 32.5745C382.526 32.5745 380.138 34.9623 380.138 37.9078L380.138 75.2411C380.138 78.1866 382.526 80.5745 385.472 80.5745L422.805 80.5745C425.751 80.5745 428.138 78.1867 428.138 75.2411L428.138 37.9078C428.138 34.9623 425.751 32.5745 422.805 32.5745Z" stroke="white" stroke-width="2" stroke-linecap="round" stroke-linejoin="round"/>
<path d="M380.138 48.5745L428.138 48.5745M412.138 61.9078L404.138 69.9078L396.138 61.9078" stroke="white" stroke-width="2" stroke-linecap="round" stroke-linejoin="round"/>
<path d="M108.241 315.138L70.9076 315.138C67.962 315.138 65.5742 317.526 65.5742 320.472L65.5742 357.805C65.5742 360.751 67.962 363.138 70.9076 363.138L108.241 363.138C111.186 363.138 113.574 360.751 113.574 357.805L113.574 320.472C113.574 317.526 111.186 315.138 108.241 315.138Z" stroke="white" stroke-width="2" stroke-linecap="round" stroke-linejoin="round"/>
<path d="M197.81 263.426L160.477 263.426C157.531 263.426 155.144 265.814 155.144 268.759L155.144 306.092C155.144 309.038 157.531 311.426 160.477 311.426L197.81 311.426C200.756 311.426 203.144 309.038 203.144 306.092L203.144 268.759C203.144 265.814 200.756 263.426 197.81 263.426Z" stroke="white" stroke-width="2" stroke-linecap="round" stroke-linejoin="round"/>
<path d="M155.144 279.426L203.144 279.426M187.144 292.759L179.144 300.759L171.144 292.759" stroke="white" stroke-width="2" stroke-linecap="round" stroke-linejoin="round"/>
<path d="M287.379 211.713L250.046 211.713C247.1 211.713 244.713 214.101 244.713 217.046L244.713 254.38C244.713 257.325 247.1 259.713 250.046 259.713L287.379 259.713C290.325 259.713 292.713 257.325 292.713 254.38L292.713 217.046C292.713 214.101 290.325 211.713 287.379 211.713Z" stroke="white" stroke-width="2" stroke-linecap="round" stroke-linejoin="round"/>
<path d="M244.713 227.713L292.713 227.713M276.713 241.046L268.713 249.046L260.713 241.046" stroke="white" stroke-width="2" stroke-linecap="round" stroke-linejoin="round"/>
<path d="M376.949 160L339.615 160C336.67 160 334.282 162.388 334.282 165.333L334.282 202.667C334.282 205.612 336.67 208 339.615 208L376.949 208C379.894 208 382.282 205.612 382.282 202.667L382.282 165.333C382.282 162.388 379.894 160 376.949 160Z" stroke="white" stroke-width="2" stroke-linecap="round" stroke-linejoin="round"/>
<path d="M334.282 176L382.282 176M366.282 189.333L358.282 197.333L350.282 189.333" stroke="white" stroke-width="2" stroke-linecap="round" stroke-linejoin="round"/>
<path d="M466.518 108.287L429.184 108.287C426.239 108.287 423.851 110.675 423.851 113.621L423.851 150.954C423.851 153.9 426.239 156.287 429.184 156.287L466.518 156.287C469.463 156.287 471.851 153.9 471.851 150.954L471.851 113.621C471.851 110.675 469.463 108.287 466.518 108.287Z" stroke="white" stroke-width="2" stroke-linecap="round" stroke-linejoin="round"/>
<path d="M423.851 124.287L471.851 124.287M455.851 137.621L447.851 145.621L439.851 137.621" stroke="white" stroke-width="2" stroke-linecap="round" stroke-linejoin="round"/>
<path d="M286.308 313.282L248.974 313.282C246.029 313.282 243.641 315.67 243.641 318.615L243.641 355.949C243.641 358.894 246.029 361.282 248.974 361.282L286.308 361.282C289.253 361.282 291.641 358.894 291.641 355.949L291.641 318.615C291.641 315.67 289.253 313.282 286.308 313.282Z" stroke="white" stroke-width="2" stroke-linecap="round" stroke-linejoin="round"/>
<path d="M375.877 261.569L338.544 261.569C335.598 261.569 333.21 263.957 333.21 266.903L333.21 304.236C333.21 307.182 335.598 309.569 338.544 309.569L375.877 309.569C378.822 309.569 381.21 307.182 381.21 304.236L381.21 266.903C381.21 263.957 378.822 261.569 375.877 261.569Z" stroke="white" stroke-width="2" stroke-linecap="round" stroke-linejoin="round"/>
<path d="M333.21 277.569L381.21 277.569M365.21 290.903L357.21 298.903L349.21 290.903" stroke="white" stroke-width="2" stroke-linecap="round" stroke-linejoin="round"/>
<path d="M465.446 209.856L428.113 209.856C425.167 209.856 422.779 212.244 422.779 215.19L422.779 252.523C422.779 255.469 425.167 257.856 428.113 257.856L465.446 257.856C468.391 257.856 470.779 255.469 470.779 252.523L470.779 215.19C470.779 212.244 468.391 209.856 465.446 209.856Z" stroke="white" stroke-width="2" stroke-linecap="round" stroke-linejoin="round"/>
<path d="M422.779 225.856L470.779 225.856M454.779 239.19L446.779 247.19L438.779 239.19" stroke="white" stroke-width="2" stroke-linecap="round" stroke-linejoin="round"/>
</g>
<defs>
<clipPath id="clip0_2028_1855">
<rect width="450" height="320" fill="white"/>
</clipPath>
</defs>
</svg>
