<svg width="450" height="320" viewBox="0 0 450 320" fill="none" xmlns="http://www.w3.org/2000/svg">
<g clip-path="url(#clip0_2028_1500)">
<rect width="450" height="320" fill="#121212"/>
<path d="M48.0051 92.2872C65.6782 92.2872 80.0051 77.9603 80.0051 60.2872C80.0051 42.6141 65.6782 28.2872 48.0051 28.2872C30.332 28.2872 16.0051 42.6141 16.0051 60.2872C16.0051 77.9603 30.332 92.2872 48.0051 92.2872Z" stroke="white" stroke-width="2" stroke-linecap="round" stroke-linejoin="round"/>
<path d="M35.2051 60.2872L60.8051 60.2872M60.8051 60.2872L48.0051 73.0872M60.8051 60.2872L48.0051 47.4872" stroke="white" stroke-width="2" stroke-linecap="round" stroke-linejoin="round"/>
<path d="M137.574 40.5745C155.247 40.5745 169.574 26.2476 169.574 8.57446C169.574 -9.09865 155.247 -23.4255 137.574 -23.4255C119.901 -23.4255 105.574 -9.09865 105.574 8.57446C105.574 26.2476 119.901 40.5745 137.574 40.5745Z" stroke="white" stroke-width="2" stroke-linecap="round" stroke-linejoin="round"/>
<path d="M124.774 8.57441L150.374 8.57441M150.374 8.57441L137.574 21.3744M150.374 8.57441L137.574 -4.22559" stroke="white" stroke-width="2" stroke-linecap="round" stroke-linejoin="round"/>
<path d="M2.14868 219.713C19.8218 219.713 34.1487 205.386 34.1487 187.713C34.1487 170.04 19.8218 155.713 2.14868 155.713C-15.5244 155.713 -29.8513 170.04 -29.8513 187.713C-29.8513 205.386 -15.5244 219.713 2.14868 219.713Z" stroke="white" stroke-width="2" stroke-linecap="round" stroke-linejoin="round"/>
<path d="M-10.6514 187.713L14.9486 187.713M14.9486 187.713L2.14863 200.513M14.9486 187.713L2.14863 174.913" stroke="white" stroke-width="2" stroke-linecap="round" stroke-linejoin="round"/>
<path d="M91.7178 168C109.391 168 123.718 153.673 123.718 136C123.718 118.327 109.391 104 91.7178 104C74.0447 104 59.7178 118.327 59.7178 136C59.7178 153.673 74.0447 168 91.7178 168Z" stroke="white" stroke-width="2" stroke-linecap="round" stroke-linejoin="round"/>
<path d="M78.9177 136L104.518 136M104.518 136L91.7177 148.8M104.518 136L91.7177 123.2" stroke="white" stroke-width="2" stroke-linecap="round" stroke-linejoin="round"/>
<path d="M181.287 116.287C198.96 116.287 213.287 101.96 213.287 84.2872C213.287 66.6141 198.96 52.2872 181.287 52.2872C163.614 52.2872 149.287 66.6141 149.287 84.2872C149.287 101.96 163.614 116.287 181.287 116.287Z" stroke="white" stroke-width="2" stroke-linecap="round" stroke-linejoin="round"/>
<path d="M168.487 84.2872L194.087 84.2872M194.087 84.2872L181.287 97.0872M194.087 84.2872L181.287 71.4872" stroke="white" stroke-width="2" stroke-linecap="round" stroke-linejoin="round"/>
<path d="M270.856 64.5745C288.529 64.5745 302.856 50.2476 302.856 32.5745C302.856 14.9014 288.529 0.574464 270.856 0.574463C253.183 0.574463 238.856 14.9014 238.856 32.5745C238.856 50.2476 253.183 64.5745 270.856 64.5745Z" stroke="white" stroke-width="2" stroke-linecap="round" stroke-linejoin="round"/>
<path d="M258.056 32.5744L283.656 32.5744M283.656 32.5744L270.856 45.3744M283.656 32.5744L270.856 19.7744" stroke="white" stroke-width="2" stroke-linecap="round" stroke-linejoin="round"/>
<path d="M360.426 12.8616C378.099 12.8616 392.426 -1.46531 392.426 -19.1384C392.426 -36.8115 378.099 -51.1384 360.426 -51.1384C342.752 -51.1384 328.426 -36.8115 328.426 -19.1384C328.426 -1.46531 342.752 12.8616 360.426 12.8616Z" stroke="white" stroke-width="2" stroke-linecap="round" stroke-linejoin="round"/>
<path d="M45.8616 295.426C63.5347 295.426 77.8616 281.099 77.8616 263.426C77.8616 245.753 63.5347 231.426 45.8616 231.426C28.1885 231.426 13.8616 245.753 13.8616 263.426C13.8616 281.099 28.1885 295.426 45.8616 295.426Z" stroke="white" stroke-width="2" stroke-linecap="round" stroke-linejoin="round"/>
<path d="M33.0615 263.426L58.6615 263.426M58.6615 263.426L45.8615 276.226M58.6615 263.426L45.8615 250.626" stroke="white" stroke-width="2" stroke-linecap="round" stroke-linejoin="round"/>
<path d="M135.431 243.713C153.104 243.713 167.431 229.386 167.431 211.713C167.431 194.04 153.104 179.713 135.431 179.713C117.758 179.713 103.431 194.04 103.431 211.713C103.431 229.386 117.758 243.713 135.431 243.713Z" stroke="white" stroke-width="2" stroke-linecap="round" stroke-linejoin="round"/>
<path d="M122.631 211.713L148.231 211.713M148.231 211.713L135.431 224.513M148.231 211.713L135.431 198.913" stroke="white" stroke-width="2" stroke-linecap="round" stroke-linejoin="round"/>
<path d="M225 192C242.673 192 257 177.673 257 160C257 142.327 242.673 128 225 128C207.327 128 193 142.327 193 160C193 177.673 207.327 192 225 192Z" stroke="white" stroke-width="2" stroke-linecap="round" stroke-linejoin="round"/>
<path d="M212.2 160L237.8 160M237.8 160L225 172.8M237.8 160L225 147.2" stroke="white" stroke-width="2" stroke-linecap="round" stroke-linejoin="round"/>
<path d="M314.569 140.287C332.242 140.287 346.569 125.96 346.569 108.287C346.569 90.6141 332.242 76.2872 314.569 76.2872C296.896 76.2872 282.569 90.6141 282.569 108.287C282.569 125.96 296.896 140.287 314.569 140.287Z" stroke="white" stroke-width="2" stroke-linecap="round" stroke-linejoin="round"/>
<path d="M301.769 108.287L327.369 108.287M327.369 108.287L314.569 121.087M327.369 108.287L314.569 95.4872" stroke="white" stroke-width="2" stroke-linecap="round" stroke-linejoin="round"/>
<path d="M404.138 88.5745C421.812 88.5745 436.138 74.2476 436.138 56.5745C436.138 38.9014 421.812 24.5745 404.138 24.5745C386.465 24.5745 372.138 38.9014 372.138 56.5745C372.138 74.2476 386.465 88.5745 404.138 88.5745Z" stroke="white" stroke-width="2" stroke-linecap="round" stroke-linejoin="round"/>
<path d="M391.338 56.5744L416.938 56.5744M416.938 56.5744L404.138 69.3744M416.938 56.5744L404.138 43.7744" stroke="white" stroke-width="2" stroke-linecap="round" stroke-linejoin="round"/>
<path d="M89.5742 371.138C107.247 371.138 121.574 356.812 121.574 339.138C121.574 321.465 107.247 307.138 89.5742 307.138C71.9011 307.138 57.5742 321.465 57.5742 339.138C57.5742 356.812 71.9011 371.138 89.5742 371.138Z" stroke="white" stroke-width="2" stroke-linecap="round" stroke-linejoin="round"/>
<path d="M179.144 319.426C196.817 319.426 211.144 305.099 211.144 287.426C211.144 269.753 196.817 255.426 179.144 255.426C161.47 255.426 147.144 269.753 147.144 287.426C147.144 305.099 161.47 319.426 179.144 319.426Z" stroke="white" stroke-width="2" stroke-linecap="round" stroke-linejoin="round"/>
<path d="M166.344 287.426L191.944 287.426M191.944 287.426L179.144 300.226M191.944 287.426L179.144 274.626" stroke="white" stroke-width="2" stroke-linecap="round" stroke-linejoin="round"/>
<path d="M268.713 267.713C286.386 267.713 300.713 253.386 300.713 235.713C300.713 218.04 286.386 203.713 268.713 203.713C251.04 203.713 236.713 218.04 236.713 235.713C236.713 253.386 251.04 267.713 268.713 267.713Z" stroke="white" stroke-width="2" stroke-linecap="round" stroke-linejoin="round"/>
<path d="M255.913 235.713L281.513 235.713M281.513 235.713L268.713 248.513M281.513 235.713L268.713 222.913" stroke="white" stroke-width="2" stroke-linecap="round" stroke-linejoin="round"/>
<path d="M358.282 216C375.955 216 390.282 201.673 390.282 184C390.282 166.327 375.955 152 358.282 152C340.609 152 326.282 166.327 326.282 184C326.282 201.673 340.609 216 358.282 216Z" stroke="white" stroke-width="2" stroke-linecap="round" stroke-linejoin="round"/>
<path d="M345.482 184L371.082 184M371.082 184L358.282 196.8M371.082 184L358.282 171.2" stroke="white" stroke-width="2" stroke-linecap="round" stroke-linejoin="round"/>
<path d="M447.851 164.287C465.524 164.287 479.851 149.96 479.851 132.287C479.851 114.614 465.524 100.287 447.851 100.287C430.178 100.287 415.851 114.614 415.851 132.287C415.851 149.96 430.178 164.287 447.851 164.287Z" stroke="white" stroke-width="2" stroke-linecap="round" stroke-linejoin="round"/>
<path d="M435.051 132.287L460.651 132.287M460.651 132.287L447.851 145.087M460.651 132.287L447.851 119.487" stroke="white" stroke-width="2" stroke-linecap="round" stroke-linejoin="round"/>
<path d="M312.426 343.426C330.099 343.426 344.426 329.099 344.426 311.426C344.426 293.753 330.099 279.426 312.426 279.426C294.752 279.426 280.426 293.753 280.426 311.426C280.426 329.099 294.752 343.426 312.426 343.426Z" stroke="white" stroke-width="2" stroke-linecap="round" stroke-linejoin="round"/>
<path d="M299.625 311.426L325.225 311.426M325.225 311.426L312.425 324.226M325.225 311.426L312.425 298.626" stroke="white" stroke-width="2" stroke-linecap="round" stroke-linejoin="round"/>
<path d="M401.995 291.713C419.668 291.713 433.995 277.386 433.995 259.713C433.995 242.04 419.668 227.713 401.995 227.713C384.322 227.713 369.995 242.04 369.995 259.713C369.995 277.386 384.322 291.713 401.995 291.713Z" stroke="white" stroke-width="2" stroke-linecap="round" stroke-linejoin="round"/>
<path d="M389.195 259.713L414.795 259.713M414.795 259.713L401.995 272.513M414.795 259.713L401.995 246.913" stroke="white" stroke-width="2" stroke-linecap="round" stroke-linejoin="round"/>
</g>
<defs>
<clipPath id="clip0_2028_1500">
<rect width="450" height="320" fill="white"/>
</clipPath>
</defs>
</svg>
