<svg width="35" height="15" viewBox="0 0 35 15" fill="none" xmlns="http://www.w3.org/2000/svg">
<circle cx="34.5" cy="14.5" r="0.25" transform="rotate(-180 34.5 14.5)" fill="#FF7A00"/>
<circle cx="24.875" cy="14.5" r="0.375" transform="rotate(-180 24.875 14.5)" fill="#7E7F81"/>
<circle cx="15.125" cy="14.5" r="0.375" transform="rotate(-180 15.125 14.5)" fill="#7E7F81"/>
<circle cx="5.25" cy="14.5" r="0.5" transform="rotate(-180 5.25 14.5)" fill="#FF7A00"/>
<circle cx="34.5" cy="0.5" r="0.25" transform="rotate(-180 34.5 0.5)" fill="#7E7F81"/>
<circle cx="24.875" cy="0.5" r="0.375" transform="rotate(-180 24.875 0.5)" fill="#FF7A00"/>
<circle cx="15.125" cy="0.5" r="0.375" transform="rotate(-180 15.125 0.5)" fill="#7E7F81"/>
<circle cx="5.25" cy="0.5" r="0.5" transform="rotate(-180 5.25 0.5)" fill="#7E7F81"/>
<circle cx="22.375" cy="7.5" r="0.375" transform="rotate(-180 22.375 7.5)" fill="#FF7A00"/>
<circle cx="12.5" cy="7.5" r="0.5" transform="rotate(-180 12.5 7.5)" fill="#FF7A00"/>
<circle cx="2.5" cy="7.5" r="0.5" transform="rotate(-180 2.5 7.5)" fill="#7E7F81"/>
</svg>
