<svg width="450" height="320" viewBox="0 0 450 320" fill="none" xmlns="http://www.w3.org/2000/svg">
<g clip-path="url(#clip0_2016_1059)">
<rect width="450" height="320" fill="#121212"/>
<path d="M36.8153 46.4308L36.8153 41.0974C36.8153 38.2685 35.6915 35.5554 33.6911 33.555C31.6907 31.5546 28.9776 30.4308 26.1486 30.4308L10.1486 30.4308C7.31962 30.4308 4.60652 31.5546 2.60613 33.555C0.60574 35.5554 -0.518067 38.2685 -0.518067 41.0974L-0.518067 46.4308" stroke="white" stroke-width="2" stroke-linecap="round" stroke-linejoin="round"/>
<path d="M18.1486 19.7641C24.0396 19.7641 28.8153 14.9885 28.8153 9.09744C28.8153 3.2064 24.0396 -1.56923 18.1486 -1.56923C12.2576 -1.56923 7.48193 3.2064 7.48193 9.09744C7.48193 14.9885 12.2576 19.7641 18.1486 19.7641Z" stroke="white" stroke-width="2" stroke-linecap="round" stroke-linejoin="round"/>
<path d="M52.8152 46.4308L52.8152 41.0974C52.8134 38.734 52.0268 36.4382 50.5788 34.5703C49.1309 32.7024 47.1035 31.3683 44.8152 30.7774M36.8152 -1.22256C39.1096 -0.635095 41.1433 0.699305 42.5956 2.57026C44.0478 4.44122 44.8361 6.74231 44.8361 9.11077C44.8361 11.4792 44.0478 13.7803 42.5956 15.6513C41.1433 17.5222 39.1096 18.8566 36.8152 19.4441" stroke="white" stroke-width="2" stroke-linecap="round" stroke-linejoin="round"/>
<path d="M6.95874 173.856L6.95874 168.523C6.95698 166.16 6.17036 163.864 4.72238 161.996C3.27441 160.128 1.24709 158.794 -1.04126 158.203M-9.04126 126.203C-6.74682 126.791 -4.71316 128.125 -3.26089 129.996C-1.80862 131.867 -1.02034 134.168 -1.02034 136.536C-1.02035 138.905 -1.80862 141.206 -3.26089 143.077C-4.71316 144.948 -6.74682 146.282 -9.04126 146.87" stroke="white" stroke-width="2" stroke-linecap="round" stroke-linejoin="round"/>
<path d="M80.5279 122.144L80.5279 116.81C80.5279 113.981 79.4041 111.268 77.4037 109.268C75.4033 107.267 72.6902 106.144 69.8612 106.144L53.8612 106.144C51.0323 106.144 48.3192 107.267 46.3188 109.268C44.3184 111.268 43.1946 113.981 43.1946 116.81L43.1946 122.144" stroke="white" stroke-width="2" stroke-linecap="round" stroke-linejoin="round"/>
<path d="M61.8612 95.4769C67.7523 95.4769 72.5279 90.7013 72.5279 84.8102C72.5279 78.9192 67.7523 74.1436 61.8612 74.1436C55.9702 74.1436 51.1946 78.9192 51.1946 84.8102C51.1946 90.7013 55.9702 95.4769 61.8612 95.4769Z" stroke="white" stroke-width="2" stroke-linecap="round" stroke-linejoin="round"/>
<path d="M96.5278 122.144L96.5278 116.81C96.5261 114.447 95.7394 112.151 94.2915 110.283C92.8435 108.415 90.8162 107.081 88.5278 106.49M80.5278 74.4902C82.8223 75.0777 84.8559 76.4121 86.3082 78.2831C87.7605 80.154 88.5487 82.4551 88.5487 84.8236C88.5487 87.192 87.7605 89.4931 86.3082 91.3641C84.8559 93.235 82.8223 94.5694 80.5278 95.1569" stroke="white" stroke-width="2" stroke-linecap="round" stroke-linejoin="round"/>
<path d="M170.097 70.4308L170.097 65.0974C170.097 62.2685 168.973 59.5553 166.973 57.555C164.973 55.5546 162.26 54.4308 159.431 54.4308L143.431 54.4308C140.602 54.4308 137.888 55.5546 135.888 57.555C133.888 59.5553 132.764 62.2685 132.764 65.0974L132.764 70.4308" stroke="white" stroke-width="2" stroke-linecap="round" stroke-linejoin="round"/>
<path d="M151.431 43.7641C157.322 43.7641 162.097 38.9885 162.097 33.0974C162.097 27.2064 157.322 22.4308 151.431 22.4308C145.54 22.4308 140.764 27.2064 140.764 33.0974C140.764 38.9885 145.54 43.7641 151.431 43.7641Z" stroke="white" stroke-width="2" stroke-linecap="round" stroke-linejoin="round"/>
<path d="M186.097 70.4308L186.097 65.0974C186.095 62.734 185.309 60.4382 183.861 58.5703C182.413 56.7024 180.386 55.3683 178.097 54.7774M170.097 22.7774C172.392 23.3649 174.425 24.6993 175.878 26.5703C177.33 28.4412 178.118 30.7423 178.118 33.1108C178.118 35.4792 177.33 37.7803 175.878 39.6513C174.425 41.5222 172.392 42.8566 170.097 43.4441" stroke="white" stroke-width="2" stroke-linecap="round" stroke-linejoin="round"/>
<path d="M259.666 18.718L259.666 13.3846C259.666 10.5556 258.543 7.84254 256.542 5.84215C254.542 3.84177 251.829 2.71796 249 2.71796L233 2.71796C230.171 2.71796 227.458 3.84177 225.457 5.84215C223.457 7.84254 222.333 10.5556 222.333 13.3846L222.333 18.718" stroke="white" stroke-width="2" stroke-linecap="round" stroke-linejoin="round"/>
<path d="M275.666 18.718L275.666 13.3846C275.664 11.0212 274.878 8.72535 273.43 6.85746C271.982 4.98958 269.955 3.65547 267.666 3.06462M259.666 -28.9354C261.961 -28.3479 263.994 -27.0135 265.447 -25.1426C266.899 -23.2716 267.687 -20.9705 267.687 -18.602C267.687 -16.2336 266.899 -13.9325 265.447 -12.0615C263.994 -10.1906 261.961 -8.85618 259.666 -8.26871" stroke="white" stroke-width="2" stroke-linecap="round" stroke-linejoin="round"/>
<path d="M34.6717 249.569L34.6717 244.236C34.6717 241.407 33.5479 238.694 31.5475 236.693C29.5471 234.693 26.834 233.569 24.005 233.569L8.00504 233.569C5.17607 233.569 2.46296 234.693 0.462573 236.693C-1.53781 238.694 -2.66162 241.407 -2.66162 244.236L-2.66162 249.569" stroke="white" stroke-width="2" stroke-linecap="round" stroke-linejoin="round"/>
<path d="M16.005 222.903C21.8961 222.903 26.6717 218.127 26.6717 212.236C26.6717 206.345 21.8961 201.569 16.005 201.569C10.114 201.569 5.33838 206.345 5.33838 212.236C5.33838 218.127 10.114 222.903 16.005 222.903Z" stroke="white" stroke-width="2" stroke-linecap="round" stroke-linejoin="round"/>
<path d="M50.6716 249.569L50.6716 244.236C50.6699 241.872 49.8832 239.577 48.4353 237.709C46.9873 235.841 44.96 234.507 42.6716 233.916M34.6716 201.916C36.9661 202.503 38.9997 203.838 40.452 205.709C41.9043 207.58 42.6925 209.881 42.6925 212.249C42.6925 214.618 41.9043 216.919 40.452 218.79C38.9997 220.661 36.9661 221.995 34.6716 222.583" stroke="white" stroke-width="2" stroke-linecap="round" stroke-linejoin="round"/>
<path d="M124.241 197.856L124.241 192.523C124.241 189.694 123.117 186.981 121.117 184.981C119.116 182.98 116.403 181.856 113.574 181.856L97.5741 181.856C94.7452 181.856 92.0321 182.98 90.0317 184.981C88.0313 186.981 86.9075 189.694 86.9075 192.523L86.9075 197.856" stroke="white" stroke-width="2" stroke-linecap="round" stroke-linejoin="round"/>
<path d="M105.574 171.19C111.465 171.19 116.241 166.414 116.241 160.523C116.241 154.632 111.465 149.856 105.574 149.856C99.6831 149.856 94.9075 154.632 94.9075 160.523C94.9075 166.414 99.6831 171.19 105.574 171.19Z" stroke="white" stroke-width="2" stroke-linecap="round" stroke-linejoin="round"/>
<path d="M140.241 197.856L140.241 192.523C140.239 190.16 139.452 187.864 138.004 185.996C136.556 184.128 134.529 182.794 132.241 182.203M124.241 150.203C126.535 150.791 128.569 152.125 130.021 153.996C131.473 155.867 132.262 158.168 132.262 160.536C132.262 162.905 131.473 165.206 130.021 167.077C128.569 168.948 126.535 170.282 124.241 170.87" stroke="white" stroke-width="2" stroke-linecap="round" stroke-linejoin="round"/>
<path d="M213.81 146.144L213.81 140.81C213.81 137.981 212.686 135.268 210.686 133.268C208.686 131.267 205.972 130.144 203.143 130.144L187.143 130.144C184.314 130.144 181.601 131.267 179.601 133.268C177.601 135.268 176.477 137.981 176.477 140.81L176.477 146.144" stroke="white" stroke-width="2" stroke-linecap="round" stroke-linejoin="round"/>
<path d="M195.143 119.477C201.035 119.477 205.81 114.701 205.81 108.81C205.81 102.919 201.035 98.1436 195.143 98.1436C189.252 98.1436 184.477 102.919 184.477 108.81C184.477 114.701 189.252 119.477 195.143 119.477Z" stroke="white" stroke-width="2" stroke-linecap="round" stroke-linejoin="round"/>
<path d="M229.81 146.144L229.81 140.81C229.808 138.447 229.022 136.151 227.574 134.283C226.126 132.415 224.098 131.081 221.81 130.49M213.81 98.4902C216.104 99.0777 218.138 100.412 219.59 102.283C221.043 104.154 221.831 106.455 221.831 108.824C221.831 111.192 221.043 113.493 219.59 115.364C218.138 117.235 216.104 118.569 213.81 119.157" stroke="white" stroke-width="2" stroke-linecap="round" stroke-linejoin="round"/>
<path d="M303.379 94.4308L303.379 89.0974C303.379 86.2685 302.255 83.5553 300.255 81.555C298.255 79.5546 295.542 78.4308 292.713 78.4308L276.713 78.4308C273.884 78.4308 271.17 79.5546 269.17 81.555C267.17 83.5553 266.046 86.2685 266.046 89.0974L266.046 94.4308" stroke="white" stroke-width="2" stroke-linecap="round" stroke-linejoin="round"/>
<path d="M284.713 67.7641C290.604 67.7641 295.379 62.9885 295.379 57.0974C295.379 51.2064 290.604 46.4308 284.713 46.4308C278.822 46.4308 274.046 51.2064 274.046 57.0974C274.046 62.9885 278.822 67.7641 284.713 67.7641Z" stroke="white" stroke-width="2" stroke-linecap="round" stroke-linejoin="round"/>
<path d="M319.379 94.4308L319.379 89.0974C319.377 86.734 318.591 84.4382 317.143 82.5703C315.695 80.7024 313.667 79.3683 311.379 78.7774M303.379 46.7774C305.674 47.3649 307.707 48.6993 309.16 50.5703C310.612 52.4412 311.4 54.7423 311.4 57.1108C311.4 59.4792 310.612 61.7803 309.16 63.6513C307.707 65.5222 305.674 66.8566 303.379 67.4441" stroke="white" stroke-width="2" stroke-linecap="round" stroke-linejoin="round"/>
<path d="M392.949 42.718L392.949 37.3846C392.949 34.5556 391.825 31.8425 389.824 29.8422C387.824 27.8418 385.111 26.718 382.282 26.718L366.282 26.718C363.453 26.718 360.74 27.8418 358.739 29.8422C356.739 31.8425 355.615 34.5556 355.615 37.3846L355.615 42.718" stroke="white" stroke-width="2" stroke-linecap="round" stroke-linejoin="round"/>
<path d="M374.282 16.0513C380.173 16.0513 384.949 11.2757 384.949 5.38462C384.949 -0.506414 380.173 -5.28204 374.282 -5.28204C368.391 -5.28204 363.615 -0.506414 363.615 5.38462C363.615 11.2757 368.391 16.0513 374.282 16.0513Z" stroke="white" stroke-width="2" stroke-linecap="round" stroke-linejoin="round"/>
<path d="M408.948 42.718L408.948 37.3846C408.947 35.0212 408.16 32.7253 406.712 30.8575C405.264 28.9896 403.237 27.6555 400.948 27.0646M392.948 -4.93538C395.243 -4.34791 397.277 -3.01351 398.729 -1.14255C400.181 0.728407 400.969 3.0295 400.969 5.39795C400.969 7.76641 400.181 10.0675 398.729 11.9385C397.277 13.8094 395.243 15.1438 392.948 15.7313" stroke="white" stroke-width="2" stroke-linecap="round" stroke-linejoin="round"/>
<path d="M78.3844 325.282L78.3844 319.949C78.3844 317.12 77.2606 314.407 75.2602 312.406C73.2598 310.406 70.5467 309.282 67.7177 309.282L51.7177 309.282C48.8887 309.282 46.1756 310.406 44.1752 312.406C42.1748 314.407 41.051 317.12 41.051 319.949L41.051 325.282" stroke="white" stroke-width="2" stroke-linecap="round" stroke-linejoin="round"/>
<path d="M59.7177 298.615C65.6087 298.615 70.3844 293.84 70.3844 287.949C70.3844 282.058 65.6087 277.282 59.7177 277.282C53.8267 277.282 49.051 282.058 49.051 287.949C49.051 293.84 53.8267 298.615 59.7177 298.615Z" stroke="white" stroke-width="2" stroke-linecap="round" stroke-linejoin="round"/>
<path d="M94.3843 325.282L94.3843 319.949C94.3825 317.585 93.5959 315.289 92.1479 313.422C90.6999 311.554 88.6726 310.22 86.3843 309.629M78.3843 277.629C80.6787 278.216 82.7124 279.551 84.1646 281.421C85.6169 283.292 86.4052 285.594 86.4052 287.962C86.4052 290.33 85.6169 292.632 84.1646 294.503C82.7124 296.373 80.6787 297.708 78.3843 298.295" stroke="white" stroke-width="2" stroke-linecap="round" stroke-linejoin="round"/>
<path d="M167.954 273.569L167.954 268.236C167.954 265.407 166.83 262.694 164.829 260.693C162.829 258.693 160.116 257.569 157.287 257.569L141.287 257.569C138.458 257.569 135.745 258.693 133.745 260.693C131.744 262.694 130.62 265.407 130.62 268.236L130.62 273.569" stroke="white" stroke-width="2" stroke-linecap="round" stroke-linejoin="round"/>
<path d="M149.287 246.903C155.178 246.903 159.954 242.127 159.954 236.236C159.954 230.345 155.178 225.569 149.287 225.569C143.396 225.569 138.62 230.345 138.62 236.236C138.62 242.127 143.396 246.903 149.287 246.903Z" stroke="white" stroke-width="2" stroke-linecap="round" stroke-linejoin="round"/>
<path d="M183.954 273.569L183.954 268.236C183.952 265.872 183.165 263.577 181.717 261.709C180.269 259.841 178.242 258.507 175.954 257.916M167.954 225.916C170.248 226.503 172.282 227.838 173.734 229.709C175.186 231.58 175.975 233.881 175.975 236.249C175.975 238.618 175.186 240.919 173.734 242.79C172.282 244.661 170.248 245.995 167.954 246.583" stroke="white" stroke-width="2" stroke-linecap="round" stroke-linejoin="round"/>
<path d="M257.523 221.856L257.523 216.523C257.523 213.694 256.399 210.981 254.399 208.981C252.398 206.98 249.685 205.856 246.856 205.856L230.856 205.856C228.027 205.856 225.314 206.98 223.314 208.981C221.313 210.981 220.189 213.694 220.189 216.523L220.189 221.856" stroke="white" stroke-width="2" stroke-linecap="round" stroke-linejoin="round"/>
<path d="M238.856 195.19C244.747 195.19 249.523 190.414 249.523 184.523C249.523 178.632 244.747 173.856 238.856 173.856C232.965 173.856 228.189 178.632 228.189 184.523C228.189 190.414 232.965 195.19 238.856 195.19Z" stroke="white" stroke-width="2" stroke-linecap="round" stroke-linejoin="round"/>
<path d="M273.523 221.856L273.523 216.523C273.521 214.16 272.734 211.864 271.286 209.996C269.838 208.128 267.811 206.794 265.523 206.203M257.523 174.203C259.817 174.791 261.851 176.125 263.303 177.996C264.755 179.867 265.544 182.168 265.544 184.536C265.544 186.905 264.755 189.206 263.303 191.077C261.851 192.948 259.817 194.282 257.523 194.87" stroke="white" stroke-width="2" stroke-linecap="round" stroke-linejoin="round"/>
<path d="M347.092 170.144L347.092 164.81C347.092 161.981 345.968 159.268 343.968 157.268C341.968 155.267 339.254 154.144 336.425 154.144L320.425 154.144C317.596 154.144 314.883 155.267 312.883 157.268C310.883 159.268 309.759 161.981 309.759 164.81L309.759 170.144" stroke="white" stroke-width="2" stroke-linecap="round" stroke-linejoin="round"/>
<path d="M328.425 143.477C334.316 143.477 339.092 138.701 339.092 132.81C339.092 126.919 334.316 122.144 328.425 122.144C322.534 122.144 317.759 126.919 317.759 132.81C317.759 138.701 322.534 143.477 328.425 143.477Z" stroke="white" stroke-width="2" stroke-linecap="round" stroke-linejoin="round"/>
<path d="M363.092 170.144L363.092 164.81C363.09 162.447 362.304 160.151 360.856 158.283C359.408 156.415 357.38 155.081 355.092 154.49M347.092 122.49C349.386 123.078 351.42 124.412 352.872 126.283C354.325 128.154 355.113 130.455 355.113 132.824C355.113 135.192 354.325 137.493 352.872 139.364C351.42 141.235 349.386 142.569 347.092 143.157" stroke="white" stroke-width="2" stroke-linecap="round" stroke-linejoin="round"/>
<path d="M436.661 118.431L436.661 113.097C436.661 110.268 435.537 107.555 433.537 105.555C431.537 103.555 428.824 102.431 425.995 102.431L409.995 102.431C407.166 102.431 404.452 103.555 402.452 105.555C400.452 107.555 399.328 110.268 399.328 113.097L399.328 118.431" stroke="white" stroke-width="2" stroke-linecap="round" stroke-linejoin="round"/>
<path d="M417.995 91.7641C423.886 91.7641 428.661 86.9885 428.661 81.0974C428.661 75.2064 423.886 70.4308 417.995 70.4308C412.104 70.4308 407.328 75.2064 407.328 81.0974C407.328 86.9885 412.104 91.7641 417.995 91.7641Z" stroke="white" stroke-width="2" stroke-linecap="round" stroke-linejoin="round"/>
<path d="M452.661 118.431L452.661 113.097C452.659 110.734 451.873 108.438 450.425 106.57C448.977 104.702 446.949 103.368 444.661 102.777M436.661 70.7774C438.956 71.3649 440.989 72.6993 442.442 74.5703C443.894 76.4412 444.682 78.7423 444.682 81.1108C444.682 83.4792 443.894 85.7803 442.442 87.6513C440.989 89.5222 438.956 90.8566 436.661 91.4441" stroke="white" stroke-width="2" stroke-linecap="round" stroke-linejoin="round"/>
<path d="M193 322.615C198.891 322.615 203.666 317.84 203.666 311.949C203.666 306.058 198.891 301.282 193 301.282C187.109 301.282 182.333 306.058 182.333 311.949C182.333 317.84 187.109 322.615 193 322.615Z" stroke="white" stroke-width="2" stroke-linecap="round" stroke-linejoin="round"/>
<path d="M227.666 349.282L227.666 343.949C227.664 341.585 226.878 339.289 225.43 337.422C223.982 335.554 221.955 334.22 219.666 333.629M211.666 301.629C213.961 302.216 215.994 303.551 217.447 305.421C218.899 307.292 219.687 309.594 219.687 311.962C219.687 314.33 218.899 316.632 217.447 318.503C215.994 320.373 213.961 321.708 211.666 322.295" stroke="white" stroke-width="2" stroke-linecap="round" stroke-linejoin="round"/>
<path d="M301.236 297.569L301.236 292.236C301.236 289.407 300.112 286.694 298.111 284.693C296.111 282.693 293.398 281.569 290.569 281.569L274.569 281.569C271.74 281.569 269.027 282.693 267.027 284.693C265.026 286.694 263.902 289.407 263.902 292.236L263.902 297.569" stroke="white" stroke-width="2" stroke-linecap="round" stroke-linejoin="round"/>
<path d="M282.569 270.903C288.46 270.903 293.236 266.127 293.236 260.236C293.236 254.345 288.46 249.569 282.569 249.569C276.678 249.569 271.902 254.345 271.902 260.236C271.902 266.127 276.678 270.903 282.569 270.903Z" stroke="white" stroke-width="2" stroke-linecap="round" stroke-linejoin="round"/>
<path d="M317.236 297.569L317.236 292.236C317.234 289.872 316.447 287.577 314.999 285.709C313.551 283.841 311.524 282.507 309.236 281.916M301.236 249.916C303.53 250.503 305.564 251.838 307.016 253.709C308.468 255.58 309.257 257.881 309.257 260.249C309.257 262.618 308.468 264.919 307.016 266.79C305.564 268.661 303.53 269.995 301.236 270.583" stroke="white" stroke-width="2" stroke-linecap="round" stroke-linejoin="round"/>
<path d="M390.805 245.856L390.805 240.523C390.805 237.694 389.681 234.981 387.681 232.981C385.68 230.98 382.967 229.856 380.138 229.856L364.138 229.856C361.309 229.856 358.596 230.98 356.596 232.981C354.595 234.981 353.471 237.694 353.471 240.523L353.471 245.856" stroke="white" stroke-width="2" stroke-linecap="round" stroke-linejoin="round"/>
<path d="M372.138 219.19C378.029 219.19 382.805 214.414 382.805 208.523C382.805 202.632 378.029 197.856 372.138 197.856C366.247 197.856 361.471 202.632 361.471 208.523C361.471 214.414 366.247 219.19 372.138 219.19Z" stroke="white" stroke-width="2" stroke-linecap="round" stroke-linejoin="round"/>
<path d="M406.805 245.856L406.805 240.523C406.803 238.16 406.016 235.864 404.568 233.996C403.12 232.128 401.093 230.794 398.805 230.203M390.805 198.203C393.099 198.791 395.133 200.125 396.585 201.996C398.037 203.867 398.826 206.168 398.826 208.536C398.826 210.905 398.037 213.206 396.585 215.077C395.133 216.948 393.099 218.282 390.805 218.87" stroke="white" stroke-width="2" stroke-linecap="round" stroke-linejoin="round"/>
<path d="M480.374 194.144L480.374 188.81C480.374 185.981 479.25 183.268 477.25 181.268C475.25 179.267 472.536 178.144 469.707 178.144L453.707 178.144C450.878 178.144 448.165 179.267 446.165 181.268C444.165 183.268 443.041 185.981 443.041 188.81L443.041 194.144" stroke="white" stroke-width="2" stroke-linecap="round" stroke-linejoin="round"/>
<path d="M434.518 321.569L434.518 316.236C434.518 313.407 433.394 310.694 431.393 308.693C429.393 306.693 426.68 305.569 423.851 305.569L407.851 305.569C405.022 305.569 402.309 306.693 400.309 308.693C398.308 310.694 397.184 313.407 397.184 316.236L397.184 321.569" stroke="white" stroke-width="2" stroke-linecap="round" stroke-linejoin="round"/>
<path d="M415.851 294.903C421.742 294.903 426.518 290.127 426.518 284.236C426.518 278.345 421.742 273.569 415.851 273.569C409.96 273.569 405.184 278.345 405.184 284.236C405.184 290.127 409.96 294.903 415.851 294.903Z" stroke="white" stroke-width="2" stroke-linecap="round" stroke-linejoin="round"/>
<path d="M450.518 321.569L450.518 316.236C450.516 313.872 449.729 311.577 448.281 309.709C446.833 307.841 444.806 306.507 442.518 305.916M434.518 273.916C436.812 274.503 438.846 275.838 440.298 277.709C441.75 279.58 442.538 281.881 442.538 284.249C442.538 286.618 441.75 288.919 440.298 290.79C438.846 292.661 436.812 293.995 434.518 294.583" stroke="white" stroke-width="2" stroke-linecap="round" stroke-linejoin="round"/>
</g>
<defs>
<clipPath id="clip0_2016_1059">
<rect width="450" height="320" fill="white"/>
</clipPath>
</defs>
</svg>
