<svg width="450" height="320" viewBox="0 0 450 320" fill="none" xmlns="http://www.w3.org/2000/svg">
<g clip-path="url(#clip0_2016_1882)">
<rect width="450" height="320" fill="#121212"/>
<path d="M20.8153 -1.56923L4.81535 -1.56923C3.34259 -1.56923 2.14868 -0.375322 2.14868 1.09744L2.14868 43.7641C2.14868 45.2369 3.34259 46.4308 4.81535 46.4308L20.8153 46.4308C22.2881 46.4308 23.482 45.2369 23.482 43.7641L23.482 1.09744C23.482 -0.375321 22.2881 -1.56923 20.8153 -1.56923Z" stroke="white" stroke-width="2" stroke-linecap="round" stroke-linejoin="round"/>
<path d="M12.8154 -1.56923L12.8154 46.4308M48.5488 40.8308C49.0821 42.1641 48.2821 43.7641 46.9488 44.2974L41.8821 46.1641C40.5488 46.6974 38.9488 45.8974 38.4154 44.5641L23.7488 4.03077C23.2154 2.69744 24.0154 1.09744 25.3488 0.564104L30.4154 -1.30256C31.7488 -1.8359 33.3488 -1.0359 33.8821 0.297438L48.5488 40.8308Z" stroke="white" stroke-width="2" stroke-linecap="round" stroke-linejoin="round"/>
<path d="M-33.041 125.856L-33.041 173.856M2.69231 168.256C3.22565 169.59 2.42565 171.19 1.09231 171.723L-3.97435 173.59C-5.30769 174.123 -6.90768 173.323 -7.44102 171.99L-22.1077 131.456C-22.641 130.123 -21.841 128.523 -20.5077 127.99L-15.441 126.123C-14.1077 125.59 -12.5077 126.39 -11.9744 127.723L2.69231 168.256Z" stroke="white" stroke-width="2" stroke-linecap="round" stroke-linejoin="round"/>
<path d="M64.528 74.1436L48.528 74.1436C47.0552 74.1436 45.8613 75.3375 45.8613 76.8103L45.8613 119.477C45.8613 120.95 47.0552 122.144 48.528 122.144L64.528 122.144C66.0008 122.144 67.1947 120.95 67.1947 119.477L67.1947 76.8103C67.1947 75.3375 66.0008 74.1436 64.528 74.1436Z" stroke="white" stroke-width="2" stroke-linecap="round" stroke-linejoin="round"/>
<path d="M56.5281 74.1436L56.5281 122.144M92.2614 116.544C92.7947 117.877 91.9947 119.477 90.6614 120.01L85.5947 121.877C84.2614 122.41 82.6614 121.61 82.1281 120.277L67.4614 79.7436C66.9281 78.4103 67.7281 76.8103 69.0614 76.2769L74.1281 74.4103C75.4614 73.8769 77.0614 74.6769 77.5947 76.0103L92.2614 116.544Z" stroke="white" stroke-width="2" stroke-linecap="round" stroke-linejoin="round"/>
<path d="M154.097 22.4308L138.097 22.4308C136.625 22.4308 135.431 23.6247 135.431 25.0974L135.431 67.7641C135.431 69.2369 136.625 70.4308 138.097 70.4308L154.097 70.4308C155.57 70.4308 156.764 69.2369 156.764 67.7641L156.764 25.0974C156.764 23.6247 155.57 22.4308 154.097 22.4308Z" stroke="white" stroke-width="2" stroke-linecap="round" stroke-linejoin="round"/>
<path d="M146.097 22.4308L146.097 70.4308M181.831 64.8308C182.364 66.1641 181.564 67.7641 180.231 68.2974L175.164 70.1641C173.831 70.6974 172.231 69.8974 171.697 68.5641L157.031 28.0308C156.497 26.6974 157.297 25.0974 158.631 24.5641L163.697 22.6974C165.031 22.1641 166.631 22.9641 167.164 24.2974L181.831 64.8308Z" stroke="white" stroke-width="2" stroke-linecap="round" stroke-linejoin="round"/>
<path d="M243.666 -29.282L227.666 -29.282C226.194 -29.282 225 -28.0881 225 -26.6154L225 16.0513C225 17.5241 226.194 18.718 227.666 18.718L243.666 18.718C245.139 18.718 246.333 17.5241 246.333 16.0513L246.333 -26.6154C246.333 -28.0881 245.139 -29.282 243.666 -29.282Z" stroke="white" stroke-width="2" stroke-linecap="round" stroke-linejoin="round"/>
<path d="M235.667 -29.282L235.667 18.718M271.4 13.118C271.933 14.4513 271.133 16.0513 269.8 16.5846L264.733 18.4513C263.4 18.9846 261.8 18.1846 261.267 16.8513L246.6 -23.682C246.067 -25.0154 246.867 -26.6154 248.2 -27.1487L253.267 -29.0154C254.6 -29.5487 256.2 -28.7487 256.733 -27.4154L271.4 13.118Z" stroke="white" stroke-width="2" stroke-linecap="round" stroke-linejoin="round"/>
<path d="M18.6718 201.569L2.67179 201.569C1.19903 201.569 0.00512693 202.763 0.00512691 204.236L0.00512615 246.903C0.00512612 248.375 1.19903 249.569 2.67179 249.569L18.6718 249.569C20.1446 249.569 21.3385 248.375 21.3385 246.903L21.3385 204.236C21.3385 202.763 20.1446 201.569 18.6718 201.569Z" stroke="white" stroke-width="2" stroke-linecap="round" stroke-linejoin="round"/>
<path d="M10.6719 201.569L10.6719 249.569M46.4052 243.969C46.9385 245.303 46.1385 246.903 44.8052 247.436L39.7385 249.303C38.4052 249.836 36.8052 249.036 36.2719 247.703L21.6052 207.169C21.0719 205.836 21.8719 204.236 23.2052 203.703L28.2719 201.836C29.6052 201.303 31.2052 202.103 31.7385 203.436L46.4052 243.969Z" stroke="white" stroke-width="2" stroke-linecap="round" stroke-linejoin="round"/>
<path d="M108.241 149.856L92.2409 149.856C90.7681 149.856 89.5742 151.05 89.5742 152.523L89.5742 195.19C89.5742 196.662 90.7681 197.856 92.2409 197.856L108.241 197.856C109.714 197.856 110.908 196.662 110.908 195.19L110.908 152.523C110.908 151.05 109.714 149.856 108.241 149.856Z" stroke="white" stroke-width="2" stroke-linecap="round" stroke-linejoin="round"/>
<path d="M100.241 149.856L100.241 197.856M135.974 192.256C136.508 193.59 135.708 195.19 134.374 195.723L129.308 197.59C127.974 198.123 126.374 197.323 125.841 195.99L111.174 155.456C110.641 154.123 111.441 152.523 112.774 151.99L117.841 150.123C119.174 149.59 120.774 150.39 121.308 151.723L135.974 192.256Z" stroke="white" stroke-width="2" stroke-linecap="round" stroke-linejoin="round"/>
<path d="M197.81 98.1436L181.81 98.1436C180.337 98.1436 179.144 99.3375 179.144 100.81L179.144 143.477C179.144 144.95 180.337 146.144 181.81 146.144L197.81 146.144C199.283 146.144 200.477 144.95 200.477 143.477L200.477 100.81C200.477 99.3375 199.283 98.1436 197.81 98.1436Z" stroke="white" stroke-width="2" stroke-linecap="round" stroke-linejoin="round"/>
<path d="M189.81 98.1436L189.81 146.144M225.544 140.544C226.077 141.877 225.277 143.477 223.944 144.01L218.877 145.877C217.544 146.41 215.944 145.61 215.41 144.277L200.744 103.744C200.21 102.41 201.01 100.81 202.344 100.277L207.41 98.4103C208.744 97.8769 210.344 98.6769 210.877 100.01L225.544 140.544Z" stroke="white" stroke-width="2" stroke-linecap="round" stroke-linejoin="round"/>
<path d="M287.379 46.4308L271.379 46.4308C269.907 46.4308 268.713 47.6247 268.713 49.0974L268.713 91.7641C268.713 93.2369 269.907 94.4308 271.379 94.4308L287.379 94.4308C288.852 94.4308 290.046 93.2369 290.046 91.7641L290.046 49.0974C290.046 47.6247 288.852 46.4308 287.379 46.4308Z" stroke="white" stroke-width="2" stroke-linecap="round" stroke-linejoin="round"/>
<path d="M279.379 46.4308L279.379 94.4308M315.113 88.8308C315.646 90.1641 314.846 91.7641 313.513 92.2974L308.446 94.1641C307.113 94.6974 305.513 93.8974 304.979 92.5641L290.313 52.0308C289.779 50.6974 290.579 49.0974 291.913 48.5641L296.979 46.6974C298.313 46.1641 299.913 46.9641 300.446 48.2974L315.113 88.8308Z" stroke="white" stroke-width="2" stroke-linecap="round" stroke-linejoin="round"/>
<path d="M376.949 -5.28203L360.949 -5.28203C359.476 -5.28203 358.282 -4.08812 358.282 -2.61536L358.282 40.0513C358.282 41.5241 359.476 42.718 360.949 42.718L376.949 42.718C378.421 42.718 379.615 41.5241 379.615 40.0513L379.615 -2.61536C379.615 -4.08812 378.421 -5.28203 376.949 -5.28203Z" stroke="white" stroke-width="2" stroke-linecap="round" stroke-linejoin="round"/>
<path d="M368.949 -5.28203L368.949 42.718M404.682 37.118C405.215 38.4513 404.415 40.0513 403.082 40.5846L398.015 42.4513C396.682 42.9846 395.082 42.1846 394.549 40.8513L379.882 0.317972C379.349 -1.01536 380.149 -2.61536 381.482 -3.14869L386.549 -5.01536C387.882 -5.54869 389.482 -4.74869 390.015 -3.41536L404.682 37.118Z" stroke="white" stroke-width="2" stroke-linecap="round" stroke-linejoin="round"/>
<path d="M62.3844 277.282L46.3844 277.282C44.9117 277.282 43.7178 278.476 43.7178 279.949L43.7178 322.615C43.7178 324.088 44.9117 325.282 46.3844 325.282L62.3844 325.282C63.8572 325.282 65.0511 324.088 65.0511 322.615L65.0511 279.949C65.0511 278.476 63.8572 277.282 62.3844 277.282Z" stroke="white" stroke-width="2" stroke-linecap="round" stroke-linejoin="round"/>
<path d="M54.3845 277.282L54.3845 325.282M90.1179 319.682C90.6512 321.015 89.8512 322.615 88.5178 323.149L83.4512 325.015C82.1179 325.549 80.5179 324.749 79.9845 323.415L65.3179 282.882C64.7845 281.549 65.5845 279.949 66.9179 279.415L71.9845 277.549C73.3179 277.015 74.9179 277.815 75.4512 279.149L90.1179 319.682Z" stroke="white" stroke-width="2" stroke-linecap="round" stroke-linejoin="round"/>
<path d="M151.954 225.569L135.954 225.569C134.481 225.569 133.287 226.763 133.287 228.236L133.287 270.903C133.287 272.375 134.481 273.569 135.954 273.569L151.954 273.569C153.427 273.569 154.62 272.375 154.62 270.903L154.62 228.236C154.62 226.763 153.427 225.569 151.954 225.569Z" stroke="white" stroke-width="2" stroke-linecap="round" stroke-linejoin="round"/>
<path d="M143.954 225.569L143.954 273.569M179.687 267.969C180.221 269.303 179.421 270.903 178.087 271.436L173.021 273.303C171.687 273.836 170.087 273.036 169.554 271.703L154.887 231.169C154.354 229.836 155.154 228.236 156.487 227.703L161.554 225.836C162.887 225.303 164.487 226.103 165.021 227.436L179.687 267.969Z" stroke="white" stroke-width="2" stroke-linecap="round" stroke-linejoin="round"/>
<path d="M241.523 173.856L225.523 173.856C224.05 173.856 222.856 175.05 222.856 176.523L222.856 219.19C222.856 220.662 224.05 221.856 225.523 221.856L241.523 221.856C242.996 221.856 244.19 220.662 244.19 219.19L244.19 176.523C244.19 175.05 242.996 173.856 241.523 173.856Z" stroke="white" stroke-width="2" stroke-linecap="round" stroke-linejoin="round"/>
<path d="M233.523 173.856L233.523 221.856M269.256 216.256C269.79 217.59 268.99 219.19 267.656 219.723L262.59 221.59C261.256 222.123 259.656 221.323 259.123 219.99L244.456 179.456C243.923 178.123 244.723 176.523 246.056 175.99L251.123 174.123C252.456 173.59 254.056 174.39 254.59 175.723L269.256 216.256Z" stroke="white" stroke-width="2" stroke-linecap="round" stroke-linejoin="round"/>
<path d="M331.092 122.144L315.092 122.144C313.619 122.144 312.426 123.337 312.426 124.81L312.426 167.477C312.426 168.95 313.619 170.144 315.092 170.144L331.092 170.144C332.565 170.144 333.759 168.95 333.759 167.477L333.759 124.81C333.759 123.337 332.565 122.144 331.092 122.144Z" stroke="white" stroke-width="2" stroke-linecap="round" stroke-linejoin="round"/>
<path d="M323.092 122.144L323.092 170.144M358.826 164.544C359.359 165.877 358.559 167.477 357.226 168.01L352.159 169.877C350.826 170.41 349.226 169.61 348.692 168.277L334.026 127.744C333.492 126.41 334.292 124.81 335.626 124.277L340.692 122.41C342.026 121.877 343.626 122.677 344.159 124.01L358.826 164.544Z" stroke="white" stroke-width="2" stroke-linecap="round" stroke-linejoin="round"/>
<path d="M420.661 70.4308L404.661 70.4308C403.189 70.4308 401.995 71.6247 401.995 73.0974L401.995 115.764C401.995 117.237 403.189 118.431 404.661 118.431L420.661 118.431C422.134 118.431 423.328 117.237 423.328 115.764L423.328 73.0974C423.328 71.6247 422.134 70.4308 420.661 70.4308Z" stroke="white" stroke-width="2" stroke-linecap="round" stroke-linejoin="round"/>
<path d="M412.661 70.4308L412.661 118.431M448.395 112.831C448.928 114.164 448.128 115.764 446.795 116.297L441.728 118.164C440.395 118.697 438.795 117.897 438.261 116.564L423.595 76.0308C423.061 74.6974 423.861 73.0974 425.195 72.5641L430.261 70.6974C431.595 70.1641 433.195 70.9641 433.728 72.2974L448.395 112.831Z" stroke="white" stroke-width="2" stroke-linecap="round" stroke-linejoin="round"/>
<path d="M195.666 301.282L179.666 301.282C178.194 301.282 177 302.476 177 303.949L177 346.615C177 348.088 178.194 349.282 179.666 349.282L195.666 349.282C197.139 349.282 198.333 348.088 198.333 346.615L198.333 303.949C198.333 302.476 197.139 301.282 195.666 301.282Z" stroke="white" stroke-width="2" stroke-linecap="round" stroke-linejoin="round"/>
<path d="M187.667 301.282L187.667 349.282M223.4 343.682C223.933 345.015 223.133 346.615 221.8 347.149L216.733 349.015C215.4 349.549 213.8 348.749 213.267 347.415L198.6 306.882C198.067 305.549 198.867 303.949 200.2 303.415L205.267 301.549C206.6 301.015 208.2 301.815 208.733 303.149L223.4 343.682Z" stroke="white" stroke-width="2" stroke-linecap="round" stroke-linejoin="round"/>
<path d="M285.236 249.569L269.236 249.569C267.763 249.569 266.569 250.763 266.569 252.236L266.569 294.903C266.569 296.375 267.763 297.569 269.236 297.569L285.236 297.569C286.709 297.569 287.902 296.375 287.902 294.903L287.902 252.236C287.902 250.763 286.709 249.569 285.236 249.569Z" stroke="white" stroke-width="2" stroke-linecap="round" stroke-linejoin="round"/>
<path d="M277.236 249.569L277.236 297.569M312.969 291.969C313.503 293.303 312.703 294.903 311.369 295.436L306.303 297.303C304.969 297.836 303.369 297.036 302.836 295.703L288.169 255.169C287.636 253.836 288.436 252.236 289.769 251.703L294.836 249.836C296.169 249.303 297.769 250.103 298.303 251.436L312.969 291.969Z" stroke="white" stroke-width="2" stroke-linecap="round" stroke-linejoin="round"/>
<path d="M374.805 197.856L358.805 197.856C357.332 197.856 356.138 199.05 356.138 200.523L356.138 243.19C356.138 244.662 357.332 245.856 358.805 245.856L374.805 245.856C376.278 245.856 377.472 244.662 377.472 243.19L377.472 200.523C377.472 199.05 376.278 197.856 374.805 197.856Z" stroke="white" stroke-width="2" stroke-linecap="round" stroke-linejoin="round"/>
<path d="M366.805 197.856L366.805 245.856M402.538 240.256C403.072 241.59 402.272 243.19 400.938 243.723L395.872 245.59C394.538 246.123 392.938 245.323 392.405 243.99L377.738 203.456C377.205 202.123 378.005 200.523 379.338 199.99L384.405 198.123C385.738 197.59 387.338 198.39 387.872 199.723L402.538 240.256Z" stroke="white" stroke-width="2" stroke-linecap="round" stroke-linejoin="round"/>
<path d="M464.374 146.144L448.374 146.144C446.901 146.144 445.708 147.337 445.708 148.81L445.708 191.477C445.708 192.95 446.901 194.144 448.374 194.144L464.374 194.144C465.847 194.144 467.041 192.95 467.041 191.477L467.041 148.81C467.041 147.337 465.847 146.144 464.374 146.144Z" stroke="white" stroke-width="2" stroke-linecap="round" stroke-linejoin="round"/>
<path d="M373.733 299.426L357.733 299.426C356.26 299.426 355.066 300.62 355.066 302.092L355.066 344.759C355.066 346.232 356.26 347.426 357.733 347.426L373.733 347.426C375.206 347.426 376.4 346.232 376.4 344.759L376.4 302.092C376.4 300.62 375.206 299.426 373.733 299.426Z" stroke="white" stroke-width="2" stroke-linecap="round" stroke-linejoin="round"/>
<path d="M365.733 299.426L365.733 347.426M401.466 341.826C402 343.159 401.2 344.759 399.866 345.292L394.8 347.159C393.466 347.692 391.866 346.892 391.333 345.559L376.666 305.026C376.133 303.692 376.933 302.092 378.266 301.559L383.333 299.692C384.666 299.159 386.266 299.959 386.8 301.292L401.466 341.826Z" stroke="white" stroke-width="2" stroke-linecap="round" stroke-linejoin="round"/>
</g>
<defs>
<clipPath id="clip0_2016_1882">
<rect width="450" height="320" fill="white"/>
</clipPath>
</defs>
</svg>
