<svg width="450" height="320" viewBox="0 0 450 320" fill="none" xmlns="http://www.w3.org/2000/svg">
<g clip-path="url(#clip0_2013_1363)">
<rect width="450" height="320" fill="#121212"/>
<path d="M69.3386 36.2872L56.0053 36.2872C54.5325 36.2872 53.3386 37.4811 53.3386 38.9538L53.3386 52.2872C53.3386 53.7599 54.5325 54.9538 56.0053 54.9538L69.3386 54.9538C70.8114 54.9538 72.0053 53.7599 72.0053 52.2872L72.0053 38.9538C72.0053 37.4811 70.8114 36.2872 69.3386 36.2872Z" stroke="white" stroke-width="2" stroke-linecap="round" stroke-linejoin="round"/>
<path d="M42.6719 84.2872L42.6719 49.6205C42.6719 48.9132 42.391 48.235 41.8909 47.7349C41.3908 47.2348 40.7125 46.9538 40.0052 46.9538L26.6719 46.9538C25.9647 46.9538 25.2864 47.2348 24.7863 47.7349C24.2862 48.235 24.0052 48.9132 24.0052 49.6205L24.0052 81.6205C24.0052 82.3277 24.2862 83.006 24.7863 83.5061C25.2864 84.0062 25.9647 84.2872 26.6719 84.2872L58.6719 84.2872C59.3792 84.2872 60.0574 84.0062 60.5575 83.5061C61.0576 83.006 61.3386 82.3277 61.3386 81.6205L61.3386 68.2872C61.3386 67.5799 61.0576 66.9016 60.5575 66.4015C60.0574 65.9014 59.3792 65.6205 58.6719 65.6205L24.0052 65.6205" stroke="white" stroke-width="2" stroke-linecap="round" stroke-linejoin="round"/>
<path d="M158.908 -15.4257L145.575 -15.4257C144.102 -15.4257 142.908 -14.2318 142.908 -12.759L142.908 0.574338C142.908 2.0471 144.102 3.241 145.575 3.241L158.908 3.241C160.381 3.241 161.575 2.0471 161.575 0.574338L161.575 -12.759C161.575 -14.2318 160.381 -15.4257 158.908 -15.4257Z" stroke="white" stroke-width="2" stroke-linecap="round" stroke-linejoin="round"/>
<path d="M132.241 32.5743L132.241 -2.09232C132.241 -2.79957 131.96 -3.47784 131.46 -3.97794C130.96 -4.47804 130.282 -4.75899 129.574 -4.75899L116.241 -4.75899C115.534 -4.75899 114.856 -4.47804 114.356 -3.97794C113.855 -3.47784 113.574 -2.79957 113.574 -2.09232L113.574 29.9077C113.574 30.6149 113.855 31.2932 114.356 31.7933C114.856 32.2934 115.534 32.5743 116.241 32.5743L148.241 32.5743C148.948 32.5743 149.627 32.2934 150.127 31.7933C150.627 31.2932 150.908 30.6149 150.908 29.9077L150.908 16.5743C150.908 15.8671 150.627 15.1888 150.127 14.6887C149.627 14.1886 148.948 13.9077 148.241 13.9077L113.574 13.9077" stroke="white" stroke-width="2" stroke-linecap="round" stroke-linejoin="round"/>
<path d="M23.4822 163.713L10.1488 163.713C8.67608 163.713 7.48218 164.907 7.48218 166.379L7.48218 179.713C7.48218 181.186 8.67608 182.379 10.1488 182.379L23.4822 182.379C24.9549 182.379 26.1488 181.186 26.1488 179.713L26.1488 166.379C26.1488 164.907 24.9549 163.713 23.4822 163.713Z" stroke="white" stroke-width="2" stroke-linecap="round" stroke-linejoin="round"/>
<path d="M-3.18453 211.713L-3.18453 177.046C-3.18453 176.339 -3.46549 175.661 -3.96558 175.16C-4.46568 174.66 -5.14396 174.379 -5.8512 174.379L-19.1845 174.379C-19.8918 174.379 -20.5701 174.66 -21.0701 175.16C-21.5702 175.661 -21.8512 176.339 -21.8512 177.046L-21.8512 209.046C-21.8512 209.753 -21.5702 210.432 -21.0701 210.932C-20.5701 211.432 -19.8918 211.713 -19.1845 211.713L12.8155 211.713C13.5227 211.713 14.201 211.432 14.7011 210.932C15.2012 210.432 15.4821 209.753 15.4821 209.046L15.4821 195.713C15.4821 195.006 15.2012 194.327 14.7011 193.827C14.201 193.327 13.5227 193.046 12.8155 193.046L-21.8512 193.046" stroke="white" stroke-width="2" stroke-linecap="round" stroke-linejoin="round"/>
<path d="M113.051 112L99.7181 112C98.2453 112 97.0514 113.194 97.0514 114.667L97.0514 128C97.0514 129.473 98.2453 130.667 99.7181 130.667L113.051 130.667C114.524 130.667 115.718 129.473 115.718 128L115.718 114.667C115.718 113.194 114.524 112 113.051 112Z" stroke="white" stroke-width="2" stroke-linecap="round" stroke-linejoin="round"/>
<path d="M86.3847 160L86.3847 125.333C86.3847 124.626 86.1037 123.948 85.6036 123.448C85.1035 122.948 84.4253 122.667 83.718 122.667L70.3847 122.667C69.6774 122.667 68.9992 122.948 68.4991 123.448C67.999 123.948 67.718 124.626 67.718 125.333L67.718 157.333C67.718 158.041 67.999 158.719 68.4991 159.219C68.9992 159.719 69.6774 160 70.3847 160L102.385 160C103.092 160 103.77 159.719 104.27 159.219C104.77 158.719 105.051 158.041 105.051 157.333L105.051 144C105.051 143.293 104.77 142.614 104.27 142.114C103.77 141.614 103.092 141.333 102.385 141.333L67.718 141.333" stroke="white" stroke-width="2" stroke-linecap="round" stroke-linejoin="round"/>
<path d="M202.621 60.2872L189.287 60.2872C187.815 60.2872 186.621 61.4811 186.621 62.9538L186.621 76.2872C186.621 77.7599 187.815 78.9538 189.287 78.9538L202.621 78.9538C204.093 78.9538 205.287 77.7599 205.287 76.2872L205.287 62.9538C205.287 61.4811 204.093 60.2872 202.621 60.2872Z" stroke="white" stroke-width="2" stroke-linecap="round" stroke-linejoin="round"/>
<path d="M175.954 108.287L175.954 73.6205C175.954 72.9132 175.673 72.235 175.173 71.7349C174.673 71.2348 173.994 70.9538 173.287 70.9538L159.954 70.9538C159.247 70.9538 158.568 71.2348 158.068 71.7349C157.568 72.235 157.287 72.9132 157.287 73.6205L157.287 105.62C157.287 106.328 157.568 107.006 158.068 107.506C158.568 108.006 159.247 108.287 159.954 108.287L191.954 108.287C192.661 108.287 193.339 108.006 193.84 107.506C194.34 107.006 194.621 106.328 194.621 105.62L194.621 92.2871C194.621 91.5799 194.34 90.9016 193.84 90.4015C193.339 89.9014 192.661 89.6205 191.954 89.6205L157.287 89.6205" stroke="white" stroke-width="2" stroke-linecap="round" stroke-linejoin="round"/>
<path d="M292.19 8.57434L278.856 8.57434C277.384 8.57434 276.19 9.76825 276.19 11.241L276.19 24.5743C276.19 26.0471 277.384 27.241 278.856 27.241L292.19 27.241C293.662 27.241 294.856 26.0471 294.856 24.5743L294.856 11.241C294.856 9.76825 293.662 8.57434 292.19 8.57434Z" stroke="white" stroke-width="2" stroke-linecap="round" stroke-linejoin="round"/>
<path d="M265.523 56.5743L265.523 21.9077C265.523 21.2004 265.242 20.5222 264.742 20.0221C264.242 19.522 263.564 19.241 262.856 19.241L249.523 19.241C248.816 19.241 248.138 19.522 247.637 20.0221C247.137 20.5222 246.856 21.2004 246.856 21.9077L246.856 53.9077C246.856 54.6149 247.137 55.2932 247.637 55.7933C248.138 56.2934 248.816 56.5743 249.523 56.5743L281.523 56.5743C282.23 56.5743 282.909 56.2934 283.409 55.7933C283.909 55.2932 284.19 54.6149 284.19 53.9077L284.19 40.5743C284.19 39.8671 283.909 39.1888 283.409 38.6887C282.909 38.1886 282.23 37.9077 281.523 37.9077L246.856 37.9077" stroke="white" stroke-width="2" stroke-linecap="round" stroke-linejoin="round"/>
<path d="M355.092 4.86154L355.092 -29.8051C355.092 -30.5124 354.811 -31.1906 354.311 -31.6907C353.811 -32.1908 353.133 -32.4718 352.426 -32.4718L339.092 -32.4718C338.385 -32.4718 337.707 -32.1908 337.207 -31.6907C336.706 -31.1906 336.426 -30.5124 336.426 -29.8051L336.426 2.19487C336.426 2.90212 336.706 3.5804 337.207 4.08049C337.707 4.58059 338.385 4.86154 339.092 4.86154L371.092 4.86154C371.799 4.86154 372.478 4.58059 372.978 4.08049C373.478 3.5804 373.759 2.90212 373.759 2.19487L373.759 -11.1385C373.759 -11.8457 373.478 -12.524 372.978 -13.0241C372.478 -13.5242 371.799 -13.8051 371.092 -13.8051L336.426 -13.8051" stroke="white" stroke-width="2" stroke-linecap="round" stroke-linejoin="round"/>
<path d="M67.1949 239.426L53.8616 239.426C52.3889 239.426 51.1949 240.619 51.1949 242.092L51.1949 255.426C51.1949 256.898 52.3889 258.092 53.8616 258.092L67.1949 258.092C68.6677 258.092 69.8616 256.898 69.8616 255.426L69.8616 242.092C69.8616 240.619 68.6677 239.426 67.1949 239.426Z" stroke="white" stroke-width="2" stroke-linecap="round" stroke-linejoin="round"/>
<path d="M40.5282 287.426L40.5282 252.759C40.5282 252.052 40.2473 251.373 39.7472 250.873C39.2471 250.373 38.5688 250.092 37.8616 250.092L24.5282 250.092C23.821 250.092 23.1427 250.373 22.6426 250.873C22.1425 251.373 21.8616 252.052 21.8616 252.759L21.8616 284.759C21.8616 285.466 22.1425 286.144 22.6426 286.645C23.1427 287.145 23.821 287.426 24.5282 287.426L56.5282 287.426C57.2355 287.426 57.9138 287.145 58.4139 286.645C58.9139 286.144 59.1949 285.466 59.1949 284.759L59.1949 271.426C59.1949 270.718 58.9139 270.04 58.4139 269.54C57.9138 269.04 57.2355 268.759 56.5282 268.759L21.8616 268.759" stroke="white" stroke-width="2" stroke-linecap="round" stroke-linejoin="round"/>
<path d="M156.764 187.713L143.431 187.713C141.958 187.713 140.764 188.907 140.764 190.379L140.764 203.713C140.764 205.186 141.958 206.379 143.431 206.379L156.764 206.379C158.237 206.379 159.431 205.186 159.431 203.713L159.431 190.379C159.431 188.907 158.237 187.713 156.764 187.713Z" stroke="white" stroke-width="2" stroke-linecap="round" stroke-linejoin="round"/>
<path d="M130.097 235.713L130.097 201.046C130.097 200.339 129.816 199.661 129.316 199.16C128.816 198.66 128.138 198.379 127.431 198.379L114.097 198.379C113.39 198.379 112.712 198.66 112.212 199.16C111.712 199.661 111.431 200.339 111.431 201.046L111.431 233.046C111.431 233.753 111.712 234.432 112.212 234.932C112.712 235.432 113.39 235.713 114.097 235.713L146.097 235.713C146.805 235.713 147.483 235.432 147.983 234.932C148.483 234.432 148.764 233.753 148.764 233.046L148.764 219.713C148.764 219.006 148.483 218.327 147.983 217.827C147.483 217.327 146.805 217.046 146.097 217.046L111.431 217.046" stroke="white" stroke-width="2" stroke-linecap="round" stroke-linejoin="round"/>
<path d="M246.333 136L233 136C231.527 136 230.333 137.194 230.333 138.667L230.333 152C230.333 153.473 231.527 154.667 233 154.667L246.333 154.667C247.806 154.667 249 153.473 249 152L249 138.667C249 137.194 247.806 136 246.333 136Z" stroke="white" stroke-width="2" stroke-linecap="round" stroke-linejoin="round"/>
<path d="M219.667 184L219.667 149.333C219.667 148.626 219.386 147.948 218.886 147.448C218.386 146.948 217.707 146.667 217 146.667L203.667 146.667C202.959 146.667 202.281 146.948 201.781 147.448C201.281 147.948 201 148.626 201 149.333L201 181.333C201 182.041 201.281 182.719 201.781 183.219C202.281 183.719 202.959 184 203.667 184L235.667 184C236.374 184 237.052 183.719 237.552 183.219C238.052 182.719 238.333 182.041 238.333 181.333L238.333 168C238.333 167.293 238.052 166.614 237.552 166.114C237.052 165.614 236.374 165.333 235.667 165.333L201 165.333" stroke="white" stroke-width="2" stroke-linecap="round" stroke-linejoin="round"/>
<path d="M335.903 84.2872L322.569 84.2872C321.096 84.2872 319.903 85.4811 319.903 86.9538L319.903 100.287C319.903 101.76 321.096 102.954 322.569 102.954L335.903 102.954C337.375 102.954 338.569 101.76 338.569 100.287L338.569 86.9538C338.569 85.4811 337.375 84.2872 335.903 84.2872Z" stroke="white" stroke-width="2" stroke-linecap="round" stroke-linejoin="round"/>
<path d="M309.236 132.287L309.236 97.6205C309.236 96.9132 308.955 96.235 308.455 95.7349C307.955 95.2348 307.277 94.9538 306.569 94.9538L293.236 94.9538C292.529 94.9538 291.85 95.2348 291.35 95.7349C290.85 96.235 290.569 96.9132 290.569 97.6205L290.569 129.62C290.569 130.328 290.85 131.006 291.35 131.506C291.85 132.006 292.529 132.287 293.236 132.287L325.236 132.287C325.943 132.287 326.622 132.006 327.122 131.506C327.622 131.006 327.903 130.328 327.903 129.62L327.903 116.287C327.903 115.58 327.622 114.902 327.122 114.402C326.622 113.901 325.943 113.62 325.236 113.62L290.569 113.62" stroke="white" stroke-width="2" stroke-linecap="round" stroke-linejoin="round"/>
<path d="M425.472 32.5743L412.138 32.5743C410.666 32.5743 409.472 33.7682 409.472 35.241L409.472 48.5743C409.472 50.0471 410.666 51.241 412.138 51.241L425.472 51.241C426.944 51.241 428.138 50.0471 428.138 48.5743L428.138 35.241C428.138 33.7682 426.944 32.5743 425.472 32.5743Z" stroke="white" stroke-width="2" stroke-linecap="round" stroke-linejoin="round"/>
<path d="M398.805 80.5743L398.805 45.9077C398.805 45.2004 398.524 44.5222 398.024 44.0221C397.524 43.522 396.846 43.241 396.138 43.241L382.805 43.241C382.098 43.241 381.42 43.522 380.919 44.0221C380.419 44.5222 380.138 45.2004 380.138 45.9077L380.138 77.9077C380.138 78.6149 380.419 79.2932 380.919 79.7933C381.42 80.2934 382.098 80.5743 382.805 80.5743L414.805 80.5743C415.512 80.5743 416.191 80.2934 416.691 79.7933C417.191 79.2932 417.472 78.6149 417.472 77.9077L417.472 64.5743C417.472 63.8671 417.191 63.1888 416.691 62.6887C416.191 62.1886 415.512 61.9077 414.805 61.9077L380.138 61.9077" stroke="white" stroke-width="2" stroke-linecap="round" stroke-linejoin="round"/>
<path d="M110.908 315.138L97.5745 315.138C96.1017 315.138 94.9078 316.332 94.9078 317.805L94.9078 331.138C94.9078 332.611 96.1017 333.805 97.5745 333.805L110.908 333.805C112.381 333.805 113.575 332.611 113.575 331.138L113.575 317.805C113.575 316.332 112.381 315.138 110.908 315.138Z" stroke="white" stroke-width="2" stroke-linecap="round" stroke-linejoin="round"/>
<path d="M200.477 263.426L187.144 263.426C185.671 263.426 184.477 264.619 184.477 266.092L184.477 279.426C184.477 280.898 185.671 282.092 187.144 282.092L200.477 282.092C201.95 282.092 203.144 280.898 203.144 279.426L203.144 266.092C203.144 264.619 201.95 263.426 200.477 263.426Z" stroke="white" stroke-width="2" stroke-linecap="round" stroke-linejoin="round"/>
<path d="M173.81 311.426L173.81 276.759C173.81 276.052 173.529 275.373 173.029 274.873C172.529 274.373 171.851 274.092 171.144 274.092L157.81 274.092C157.103 274.092 156.425 274.373 155.925 274.873C155.425 275.373 155.144 276.052 155.144 276.759L155.144 308.759C155.144 309.466 155.425 310.144 155.925 310.645C156.425 311.145 157.103 311.426 157.81 311.426L189.81 311.426C190.518 311.426 191.196 311.145 191.696 310.645C192.196 310.144 192.477 309.466 192.477 308.759L192.477 295.426C192.477 294.718 192.196 294.04 191.696 293.54C191.196 293.04 190.518 292.759 189.81 292.759L155.144 292.759" stroke="white" stroke-width="2" stroke-linecap="round" stroke-linejoin="round"/>
<path d="M290.046 211.713L276.713 211.713C275.24 211.713 274.046 212.907 274.046 214.379L274.046 227.713C274.046 229.186 275.24 230.379 276.713 230.379L290.046 230.379C291.519 230.379 292.713 229.186 292.713 227.713L292.713 214.379C292.713 212.907 291.519 211.713 290.046 211.713Z" stroke="white" stroke-width="2" stroke-linecap="round" stroke-linejoin="round"/>
<path d="M263.38 259.713L263.38 225.046C263.38 224.339 263.099 223.661 262.599 223.16C262.098 222.66 261.42 222.379 260.713 222.379L247.38 222.379C246.672 222.379 245.994 222.66 245.494 223.16C244.994 223.661 244.713 224.339 244.713 225.046L244.713 257.046C244.713 257.753 244.994 258.432 245.494 258.932C245.994 259.432 246.672 259.713 247.38 259.713L279.38 259.713C280.087 259.713 280.765 259.432 281.265 258.932C281.765 258.432 282.046 257.753 282.046 257.046L282.046 243.713C282.046 243.006 281.765 242.327 281.265 241.827C280.765 241.327 280.087 241.046 279.38 241.046L244.713 241.046" stroke="white" stroke-width="2" stroke-linecap="round" stroke-linejoin="round"/>
<path d="M379.615 160L366.282 160C364.809 160 363.615 161.194 363.615 162.667L363.615 176C363.615 177.473 364.809 178.667 366.282 178.667L379.615 178.667C381.088 178.667 382.282 177.473 382.282 176L382.282 162.667C382.282 161.194 381.088 160 379.615 160Z" stroke="white" stroke-width="2" stroke-linecap="round" stroke-linejoin="round"/>
<path d="M352.949 208L352.949 173.333C352.949 172.626 352.668 171.948 352.168 171.448C351.667 170.948 350.989 170.667 350.282 170.667L336.949 170.667C336.241 170.667 335.563 170.948 335.063 171.448C334.563 171.948 334.282 172.626 334.282 173.333L334.282 205.333C334.282 206.041 334.563 206.719 335.063 207.219C335.563 207.719 336.241 208 336.949 208L368.949 208C369.656 208 370.334 207.719 370.834 207.219C371.334 206.719 371.615 206.041 371.615 205.333L371.615 192C371.615 191.293 371.334 190.614 370.834 190.114C370.334 189.614 369.656 189.333 368.949 189.333L334.282 189.333" stroke="white" stroke-width="2" stroke-linecap="round" stroke-linejoin="round"/>
<path d="M442.518 156.287L442.518 121.62C442.518 120.913 442.237 120.235 441.737 119.735C441.237 119.235 440.559 118.954 439.851 118.954L426.518 118.954C425.811 118.954 425.132 119.235 424.632 119.735C424.132 120.235 423.851 120.913 423.851 121.62L423.851 153.62C423.851 154.328 424.132 155.006 424.632 155.506C425.132 156.006 425.811 156.287 426.518 156.287L458.518 156.287C459.225 156.287 459.904 156.006 460.404 155.506C460.904 155.006 461.185 154.328 461.185 153.62L461.185 140.287C461.185 139.58 460.904 138.902 460.404 138.402C459.904 137.901 459.225 137.62 458.518 137.62L423.851 137.62" stroke="white" stroke-width="2" stroke-linecap="round" stroke-linejoin="round"/>
<path d="M333.759 287.426L320.425 287.426C318.953 287.426 317.759 288.619 317.759 290.092L317.759 303.426C317.759 304.898 318.953 306.092 320.425 306.092L333.759 306.092C335.232 306.092 336.425 304.898 336.425 303.426L336.425 290.092C336.425 288.619 335.232 287.426 333.759 287.426Z" stroke="white" stroke-width="2" stroke-linecap="round" stroke-linejoin="round"/>
<path d="M307.092 335.426L307.092 300.759C307.092 300.052 306.811 299.373 306.311 298.873C305.811 298.373 305.133 298.092 304.426 298.092L291.092 298.092C290.385 298.092 289.707 298.373 289.207 298.873C288.706 299.373 288.426 300.052 288.426 300.759L288.426 332.759C288.426 333.466 288.706 334.144 289.207 334.645C289.707 335.145 290.385 335.426 291.092 335.426L323.092 335.426C323.799 335.426 324.478 335.145 324.978 334.645C325.478 334.144 325.759 333.466 325.759 332.759L325.759 319.426C325.759 318.718 325.478 318.04 324.978 317.54C324.478 317.04 323.799 316.759 323.092 316.759L288.426 316.759" stroke="white" stroke-width="2" stroke-linecap="round" stroke-linejoin="round"/>
<path d="M423.328 235.713L409.995 235.713C408.522 235.713 407.328 236.907 407.328 238.379L407.328 251.713C407.328 253.186 408.522 254.379 409.995 254.379L423.328 254.379C424.801 254.379 425.995 253.186 425.995 251.713L425.995 238.379C425.995 236.907 424.801 235.713 423.328 235.713Z" stroke="white" stroke-width="2" stroke-linecap="round" stroke-linejoin="round"/>
<path d="M396.662 283.713L396.662 249.046C396.662 248.339 396.381 247.661 395.88 247.16C395.38 246.66 394.702 246.379 393.995 246.379L380.662 246.379C379.954 246.379 379.276 246.66 378.776 247.16C378.276 247.661 377.995 248.339 377.995 249.046L377.995 281.046C377.995 281.753 378.276 282.432 378.776 282.932C379.276 283.432 379.954 283.713 380.662 283.713L412.662 283.713C413.369 283.713 414.047 283.432 414.547 282.932C415.047 282.432 415.328 281.753 415.328 281.046L415.328 267.713C415.328 267.006 415.047 266.327 414.547 265.827C414.047 265.327 413.369 265.046 412.662 265.046L377.995 265.046" stroke="white" stroke-width="2" stroke-linecap="round" stroke-linejoin="round"/>
</g>
<defs>
<clipPath id="clip0_2013_1363">
<rect width="450" height="320" fill="white"/>
</clipPath>
</defs>
</svg>
