<svg width="450" height="320" viewBox="0 0 450 320" fill="none" xmlns="http://www.w3.org/2000/svg">
<g clip-path="url(#clip0_2016_1636)">
<rect width="450" height="320" fill="#121212"/>
<path d="M66.6718 57.6205L29.3385 57.6205C26.3929 57.6205 24.0051 60.0083 24.0051 62.9538L24.0051 81.6205C24.0051 84.566 26.3929 86.9538 29.3385 86.9538L66.6718 86.9538C69.6173 86.9538 72.0051 84.566 72.0051 81.6205L72.0051 62.9538C72.0051 60.0083 69.6173 57.6205 66.6718 57.6205Z" stroke="white" stroke-width="2" stroke-linecap="round" stroke-linejoin="round"/>
<path d="M34.6719 57.6205L34.6719 46.9538C34.6686 43.6473 35.894 40.4575 38.1102 38.0036C40.3265 35.5497 43.3754 34.0069 46.6652 33.6746C49.955 33.3423 53.2509 34.2442 55.9131 36.2053C58.5753 38.1664 60.4139 41.0467 61.0719 44.2872" stroke="white" stroke-width="2" stroke-linecap="round" stroke-linejoin="round"/>
<path d="M156.241 5.90767L118.908 5.90767C115.962 5.90767 113.574 8.29548 113.574 11.241L113.574 29.9077C113.574 32.8532 115.962 35.241 118.908 35.241L156.241 35.241C159.186 35.241 161.574 32.8532 161.574 29.9077L161.574 11.241C161.574 8.29548 159.186 5.90767 156.241 5.90767Z" stroke="white" stroke-width="2" stroke-linecap="round" stroke-linejoin="round"/>
<path d="M124.241 5.90767L124.241 -4.759C124.238 -8.06553 125.463 -11.2554 127.679 -13.7092C129.896 -16.1631 132.945 -17.7059 136.234 -18.0382C139.524 -18.3705 142.82 -17.4686 145.482 -15.5075C148.144 -13.5464 149.983 -10.6661 150.641 -7.42566" stroke="white" stroke-width="2" stroke-linecap="round" stroke-linejoin="round"/>
<path d="M20.8153 185.046L-16.518 185.046C-19.4635 185.046 -21.8513 187.434 -21.8513 190.379L-21.8513 209.046C-21.8513 211.992 -19.4635 214.379 -16.518 214.379L20.8153 214.379C23.7609 214.379 26.1487 211.992 26.1487 209.046L26.1487 190.379C26.1487 187.434 23.7609 185.046 20.8153 185.046Z" stroke="white" stroke-width="2" stroke-linecap="round" stroke-linejoin="round"/>
<path d="M-11.1846 185.046L-11.1846 174.379C-11.1879 171.073 -9.96248 167.883 -7.74623 165.429C-5.52999 162.975 -2.48102 161.433 0.808781 161.1C4.09858 160.768 7.3945 161.67 10.0567 163.631C12.7189 165.592 14.5575 168.472 15.2154 171.713" stroke="white" stroke-width="2" stroke-linecap="round" stroke-linejoin="round"/>
<path d="M110.384 133.333L73.0511 133.333C70.1056 133.333 67.7178 135.721 67.7178 138.667L67.7178 157.333C67.7178 160.279 70.1056 162.667 73.0511 162.667L110.384 162.667C113.33 162.667 115.718 160.279 115.718 157.333L115.718 138.667C115.718 135.721 113.33 133.333 110.384 133.333Z" stroke="white" stroke-width="2" stroke-linecap="round" stroke-linejoin="round"/>
<path d="M78.3845 133.333L78.3845 122.667C78.3812 119.36 79.6066 116.17 81.8229 113.716C84.0391 111.263 87.0881 109.72 90.3779 109.387C93.6677 109.055 96.9636 109.957 99.6258 111.918C102.288 113.879 104.127 116.76 104.785 120" stroke="white" stroke-width="2" stroke-linecap="round" stroke-linejoin="round"/>
<path d="M199.954 81.6205L162.62 81.6205C159.675 81.6205 157.287 84.0083 157.287 86.9538L157.287 105.62C157.287 108.566 159.675 110.954 162.62 110.954L199.954 110.954C202.899 110.954 205.287 108.566 205.287 105.62L205.287 86.9538C205.287 84.0083 202.899 81.6205 199.954 81.6205Z" stroke="white" stroke-width="2" stroke-linecap="round" stroke-linejoin="round"/>
<path d="M167.954 81.6205L167.954 70.9538C167.951 67.6473 169.176 64.4575 171.392 62.0036C173.608 59.5497 176.657 58.0069 179.947 57.6746C183.237 57.3423 186.533 58.2442 189.195 60.2053C191.857 62.1664 193.696 65.0467 194.354 68.2872" stroke="white" stroke-width="2" stroke-linecap="round" stroke-linejoin="round"/>
<path d="M289.523 29.9077L252.19 29.9077C249.244 29.9077 246.856 32.2955 246.856 35.241L246.856 53.9077C246.856 56.8532 249.244 59.241 252.19 59.241L289.523 59.241C292.468 59.241 294.856 56.8532 294.856 53.9077L294.856 35.241C294.856 32.2955 292.468 29.9077 289.523 29.9077Z" stroke="white" stroke-width="2" stroke-linecap="round" stroke-linejoin="round"/>
<path d="M257.523 29.9077L257.523 19.241C257.52 15.9345 258.745 12.7446 260.961 10.2908C263.178 7.83692 266.227 6.29408 269.516 5.96178C272.806 5.62947 276.102 6.53141 278.764 8.49251C281.426 10.4536 283.265 13.3339 283.923 16.5743" stroke="white" stroke-width="2" stroke-linecap="round" stroke-linejoin="round"/>
<path d="M379.092 -21.8051L341.759 -21.8051C338.813 -21.8051 336.426 -19.4173 336.426 -16.4718L336.426 2.19487C336.426 5.14039 338.813 7.5282 341.759 7.5282L379.092 7.5282C382.038 7.5282 384.426 5.14039 384.426 2.19487L384.426 -16.4718C384.426 -19.4173 382.038 -21.8051 379.092 -21.8051Z" stroke="white" stroke-width="2" stroke-linecap="round" stroke-linejoin="round"/>
<path d="M64.5282 260.759L27.1949 260.759C24.2494 260.759 21.8616 263.147 21.8616 266.092L21.8616 284.759C21.8616 287.704 24.2494 290.092 27.1949 290.092L64.5282 290.092C67.4738 290.092 69.8616 287.704 69.8616 284.759L69.8616 266.092C69.8616 263.147 67.4738 260.759 64.5282 260.759Z" stroke="white" stroke-width="2" stroke-linecap="round" stroke-linejoin="round"/>
<path d="M32.5283 260.759L32.5283 250.092C32.525 246.786 33.7504 243.596 35.9667 241.142C38.1829 238.688 41.2319 237.145 44.5217 236.813C47.8115 236.481 51.1074 237.383 53.7696 239.344C56.4318 241.305 58.2703 244.185 58.9283 247.426" stroke="white" stroke-width="2" stroke-linecap="round" stroke-linejoin="round"/>
<path d="M154.097 209.046L116.764 209.046C113.818 209.046 111.431 211.434 111.431 214.379L111.431 233.046C111.431 235.992 113.818 238.379 116.764 238.379L154.097 238.379C157.043 238.379 159.431 235.992 159.431 233.046L159.431 214.379C159.431 211.434 157.043 209.046 154.097 209.046Z" stroke="white" stroke-width="2" stroke-linecap="round" stroke-linejoin="round"/>
<path d="M122.097 209.046L122.097 198.379C122.094 195.073 123.32 191.883 125.536 189.429C127.752 186.975 130.801 185.433 134.091 185.1C137.381 184.768 140.676 185.67 143.339 187.631C146.001 189.592 147.839 192.472 148.497 195.713" stroke="white" stroke-width="2" stroke-linecap="round" stroke-linejoin="round"/>
<path d="M243.667 157.333L206.333 157.333C203.388 157.333 201 159.721 201 162.667L201 181.333C201 184.279 203.388 186.667 206.333 186.667L243.667 186.667C246.612 186.667 249 184.279 249 181.333L249 162.667C249 159.721 246.612 157.333 243.667 157.333Z" stroke="white" stroke-width="2" stroke-linecap="round" stroke-linejoin="round"/>
<path d="M211.667 157.333L211.667 146.667C211.663 143.36 212.889 140.17 215.105 137.716C217.321 135.263 220.37 133.72 223.66 133.387C226.95 133.055 230.246 133.957 232.908 135.918C235.57 137.879 237.409 140.76 238.067 144" stroke="white" stroke-width="2" stroke-linecap="round" stroke-linejoin="round"/>
<path d="M333.236 105.62L295.902 105.62C292.957 105.62 290.569 108.008 290.569 110.954L290.569 129.62C290.569 132.566 292.957 134.954 295.902 134.954L333.236 134.954C336.181 134.954 338.569 132.566 338.569 129.62L338.569 110.954C338.569 108.008 336.181 105.62 333.236 105.62Z" stroke="white" stroke-width="2" stroke-linecap="round" stroke-linejoin="round"/>
<path d="M301.236 105.62L301.236 94.9538C301.233 91.6473 302.458 88.4575 304.674 86.0036C306.89 83.5497 309.939 82.0069 313.229 81.6746C316.519 81.3423 319.815 82.2442 322.477 84.2053C325.139 86.1664 326.978 89.0467 327.636 92.2872" stroke="white" stroke-width="2" stroke-linecap="round" stroke-linejoin="round"/>
<path d="M422.805 53.9077L385.472 53.9077C382.526 53.9077 380.138 56.2955 380.138 59.241L380.138 77.9077C380.138 80.8532 382.526 83.241 385.472 83.241L422.805 83.241C425.751 83.241 428.138 80.8532 428.138 77.9077L428.138 59.241C428.138 56.2955 425.751 53.9077 422.805 53.9077Z" stroke="white" stroke-width="2" stroke-linecap="round" stroke-linejoin="round"/>
<path d="M390.805 53.9077L390.805 43.241C390.802 39.9345 392.027 36.7446 394.244 34.2908C396.46 31.8369 399.509 30.2941 402.799 29.9618C406.088 29.6295 409.384 30.5314 412.046 32.4925C414.709 34.4536 416.547 37.3339 417.205 40.5743" stroke="white" stroke-width="2" stroke-linecap="round" stroke-linejoin="round"/>
<path d="M76.241 336.472L76.241 325.805C76.2377 322.499 77.4631 319.309 79.6793 316.855C81.8955 314.401 84.9445 312.858 88.2343 312.526C91.5241 312.194 94.82 313.095 97.4822 315.057C100.144 317.018 101.983 319.898 102.641 323.138" stroke="white" stroke-width="2" stroke-linecap="round" stroke-linejoin="round"/>
<path d="M197.81 284.759L160.477 284.759C157.531 284.759 155.144 287.147 155.144 290.092L155.144 308.759C155.144 311.704 157.531 314.092 160.477 314.092L197.81 314.092C200.756 314.092 203.144 311.704 203.144 308.759L203.144 290.092C203.144 287.147 200.756 284.759 197.81 284.759Z" stroke="white" stroke-width="2" stroke-linecap="round" stroke-linejoin="round"/>
<path d="M165.81 284.759L165.81 274.092C165.807 270.786 167.032 267.596 169.249 265.142C171.465 262.688 174.514 261.145 177.804 260.813C181.093 260.481 184.389 261.383 187.052 263.344C189.714 265.305 191.552 268.185 192.21 271.426" stroke="white" stroke-width="2" stroke-linecap="round" stroke-linejoin="round"/>
<path d="M287.379 233.046L250.046 233.046C247.1 233.046 244.713 235.434 244.713 238.379L244.713 257.046C244.713 259.992 247.1 262.379 250.046 262.379L287.379 262.379C290.325 262.379 292.713 259.992 292.713 257.046L292.713 238.379C292.713 235.434 290.325 233.046 287.379 233.046Z" stroke="white" stroke-width="2" stroke-linecap="round" stroke-linejoin="round"/>
<path d="M255.379 233.046L255.379 222.379C255.376 219.073 256.601 215.883 258.818 213.429C261.034 210.975 264.083 209.433 267.373 209.1C270.663 208.768 273.958 209.67 276.621 211.631C279.283 213.592 281.121 216.472 281.779 219.713" stroke="white" stroke-width="2" stroke-linecap="round" stroke-linejoin="round"/>
<path d="M376.949 181.333L339.615 181.333C336.67 181.333 334.282 183.721 334.282 186.667L334.282 205.333C334.282 208.279 336.67 210.667 339.615 210.667L376.949 210.667C379.894 210.667 382.282 208.279 382.282 205.333L382.282 186.667C382.282 183.721 379.894 181.333 376.949 181.333Z" stroke="white" stroke-width="2" stroke-linecap="round" stroke-linejoin="round"/>
<path d="M344.949 181.333L344.949 170.667C344.945 167.36 346.171 164.17 348.387 161.716C350.603 159.263 353.652 157.72 356.942 157.387C360.232 157.055 363.528 157.957 366.19 159.918C368.852 161.879 370.691 164.76 371.349 168" stroke="white" stroke-width="2" stroke-linecap="round" stroke-linejoin="round"/>
<path d="M466.518 129.62L429.184 129.62C426.239 129.62 423.851 132.008 423.851 134.954L423.851 153.62C423.851 156.566 426.239 158.954 429.184 158.954L466.518 158.954C469.463 158.954 471.851 156.566 471.851 153.62L471.851 134.954C471.851 132.008 469.463 129.62 466.518 129.62Z" stroke="white" stroke-width="2" stroke-linecap="round" stroke-linejoin="round"/>
<path d="M434.518 129.62L434.518 118.954C434.515 115.647 435.74 112.457 437.956 110.004C440.172 107.55 443.221 106.007 446.511 105.675C449.801 105.342 453.097 106.244 455.759 108.205C458.421 110.166 460.26 113.047 460.918 116.287" stroke="white" stroke-width="2" stroke-linecap="round" stroke-linejoin="round"/>
<path d="M254.308 334.615L254.308 323.949C254.304 320.642 255.53 317.452 257.746 314.998C259.962 312.545 263.011 311.002 266.301 310.669C269.591 310.337 272.887 311.239 275.549 313.2C278.211 315.161 280.05 318.042 280.708 321.282" stroke="white" stroke-width="2" stroke-linecap="round" stroke-linejoin="round"/>
<path d="M375.877 282.902L338.544 282.902C335.598 282.902 333.21 285.29 333.21 288.236L333.21 306.902C333.21 309.848 335.598 312.236 338.544 312.236L375.877 312.236C378.822 312.236 381.21 309.848 381.21 306.902L381.21 288.236C381.21 285.29 378.822 282.902 375.877 282.902Z" stroke="white" stroke-width="2" stroke-linecap="round" stroke-linejoin="round"/>
<path d="M343.877 282.902L343.877 272.236C343.874 268.929 345.099 265.739 347.315 263.286C349.532 260.832 352.581 259.289 355.87 258.957C359.16 258.624 362.456 259.526 365.118 261.487C367.78 263.448 369.619 266.329 370.277 269.569" stroke="white" stroke-width="2" stroke-linecap="round" stroke-linejoin="round"/>
<path d="M465.446 231.19L428.113 231.19C425.167 231.19 422.779 233.578 422.779 236.523L422.779 255.19C422.779 258.135 425.167 260.523 428.113 260.523L465.446 260.523C468.391 260.523 470.779 258.135 470.779 255.19L470.779 236.523C470.779 233.578 468.391 231.19 465.446 231.19Z" stroke="white" stroke-width="2" stroke-linecap="round" stroke-linejoin="round"/>
<path d="M433.446 231.19L433.446 220.523C433.443 217.216 434.668 214.027 436.884 211.573C439.101 209.119 442.15 207.576 445.439 207.244C448.729 206.911 452.025 207.813 454.687 209.775C457.35 211.736 459.188 214.616 459.846 217.856" stroke="white" stroke-width="2" stroke-linecap="round" stroke-linejoin="round"/>
</g>
<defs>
<clipPath id="clip0_2016_1636">
<rect width="450" height="320" fill="white"/>
</clipPath>
</defs>
</svg>
